<?xml version="1.0" standalone="no"?>
<!DOCTYPE svg PUBLIC "-//W3C//DTD SVG 1.1//EN" "http://www.w3.org/Graphics/SVG/1.1/DTD/svg11.dtd" >
<svg xmlns="http://www.w3.org/2000/svg" xmlns:xlink="http://www.w3.org/1999/xlink" version="1.1">
<metadata></metadata>
<defs>
<font id="cocogoose_proregular" horiz-adv-x="2531" >
<font-face units-per-em="2048" ascent="1638" descent="-410" />
<missing-glyph horiz-adv-x="641" />
<glyph unicode="&#xfb01;" horiz-adv-x="1527" d="M62 854q0 -20 11.5 -30.5t26.5 -10.5h143v-770q0 -43 46 -43h297q45 0 44 43v770h380v-768q0 -45 45 -45h303q45 0 45 45v797q0 2 0.5 5t0.5 7v270q0 41 -39 41h-735v70q0 45 10 74.5t28.5 46t44.5 23t59 6.5q29 0 45 11t16 46v235q0 36 -12 48t-53 12 q-125 0 -222.5 -36.5t-164.5 -98t-102.5 -143t-35.5 -173.5v-121h-143q-15 0 -26.5 -10t-11.5 -31v-270zM1008 1538q0 -44 24 -58.5t59 -14.5h236q37 0 57.5 15t20.5 60v236q0 41 -18 63t-60 22h-236q-46 0 -64.5 -24t-18.5 -61v-238z" />
<glyph unicode="&#xfb03;" horiz-adv-x="2404" d="M65 854q0 -20 11 -30t29 -10h141v-770q0 -44 45 -44h299q44 0 44 44v770h445v-770q0 -44 45 -44h299q44 0 44 44v770h419v-769q0 -45 46 -45h303q45 0 44 45v1075q0 20 -12 32.5t-32 12.5h-768v69q0 46 9.5 75.5t27.5 46t44 23t59 6.5q30 0 46 11t16 45v237 q0 35 -12 47.5t-53 12.5q-125 0 -222.5 -36.5t-164.5 -98.5t-102.5 -143.5t-35.5 -173.5v-121h-445v69q0 46 9.5 75.5t27.5 46t44 23t59 6.5q30 0 46 11t16 45v237q0 35 -12 47.5t-53 12.5q-125 0 -222.5 -36.5t-164.5 -98.5t-102.5 -143.5t-35.5 -173.5v-121h-141 q-16 0 -28 -10t-12 -31v-270zM1884 1453q0 -44 24.5 -59t59.5 -15h236q37 0 57.5 15.5t20.5 60.5v214q0 41 -18.5 63.5t-59.5 22.5h-236q-46 0 -65 -24t-19 -62v-216z" />
<glyph horiz-adv-x="0" />
<glyph horiz-adv-x="0" />
<glyph unicode="&#xd;" horiz-adv-x="641" />
<glyph unicode=" "  horiz-adv-x="641" />
<glyph unicode="&#x09;" horiz-adv-x="641" />
<glyph unicode="&#xa0;" horiz-adv-x="641" />
<glyph unicode="!" horiz-adv-x="696" d="M167 46q0 -15 5.5 -24t13.5 -13.5t15.5 -6.5t12.5 -2h268q5 0 13.5 1.5t16.5 6.5t13.5 14.5t5.5 23.5v271q0 4 -2 13t-7.5 16.5t-15 13t-24.5 5.5h-268q-16 0 -31.5 -11.5t-15.5 -39.5v-268zM167 580q0 -45 45 -45h275q45 0 44 45v1059q0 45 -44 45h-275q-46 0 -45 -45 v-1059z" />
<glyph unicode="&#x22;" horiz-adv-x="856" d="M96 1078q0 -16 4.5 -30t28.5 -14h177q18 0 27 8.5t9 30.5v402q0 15 -5.5 30.5t-33.5 15.5h-162q-45 0 -45 -46v-397zM490 1078q0 -16 4 -30t29 -14h177q18 0 27 8.5t9 30.5v402q0 15 -6 30.5t-33 15.5h-163q-45 0 -44 -46v-397z" />
<glyph unicode="#" horiz-adv-x="1290" d="M115 402q0 -20 14.5 -29.5t24.5 -9.5h135v-320q0 -43 43 -43h192q43 0 42 43v320h155v-320q0 -43 43 -43h192q43 0 42 43v320h153q16 0 29 10.5t13 28.5v202q0 41 -39 40h-156v239h153q16 0 29 11t13 31v199q0 19 -10.5 31t-28.5 12h-156v317q0 44 -42 43h-192 q-43 0 -43 -43v-317h-155v317q0 44 -42 43h-192q-43 0 -43 -43v-317h-132q-18 0 -30 -13.5t-12 -31.5v-197q0 -21 14.5 -31.5t24.5 -10.5h135v-239h-132q-18 0 -30 -12t-12 -30v-200zM566 644v239h155v-239h-155z" />
<glyph unicode="$" horiz-adv-x="1317" d="M83 283q3 -11 11 -21.5t18 -21.5q75 -79 176 -142.5t215 -94.5v-164q0 -37 38 -37h218q36 0 37 37v152q101 16 185 57.5t144.5 103.5t94 144.5t33.5 179.5q0 107 -35.5 181.5t-100 128t-154.5 93t-199 76.5q-55 18 -99.5 34.5t-75.5 34t-47 38.5t-16 49q0 29 14.5 49 t37.5 32t51.5 17t57.5 5q76 0 134.5 -30t113.5 -80q14 -12 27.5 -20t26.5 -8q18 0 33 16l157 168q25 25 24.5 47t-21.5 47q-32 35 -76 66t-94.5 55.5t-106.5 42t-112 27.5v136q0 36 -37 36h-216q-35 0 -35 -36v-147q-85 -19 -154.5 -56t-118.5 -88.5t-75 -117t-26 -140.5 q0 -90 32.5 -163.5t95.5 -134.5t157.5 -111t217.5 -93q28 -10 64 -23.5t69 -32t55.5 -43.5t22.5 -57q0 -29 -7 -55t-26 -45.5t-52.5 -31t-85.5 -11.5q-47 0 -91.5 16t-85 40t-76.5 52t-65 52q-12 11 -23.5 17t-23.5 6q-17 0 -32 -15l-177 -168q-13 -13 -16.5 -25t-0.5 -23z " />
<glyph unicode="%" horiz-adv-x="1907" d="M-2 63v14q0 10 2 11q0 2 6 8v4l2 4l4 4t2 6l94 129h-102v39h159v-24l-8 -15l-106 -143h2l2 2h108v-39h-165zM-2 407q0 6 4 16q1 4 2.5 9.5t5.5 9.5l9 14q2 2 6.5 5t6.5 5q5 5 10 6t9 3q3 0 8.5 2t11.5 2q16 0 27 -8q14 -4 22 -15l-5 -6h-13q-3 2 -6.5 5t-7.5 3h-37 l-21 -12q-4 -3 -7.5 -7.5t-4.5 -11.5q-2 -6 -3 -12t-1 -8q0 -10 4 -14q0 -4 0.5 -9t0.5 -8l5 -4q5 -1 6 -6l8 -5q2 -1 7 -1q2 -4 5 -5t7 -3h33q2 2 7 3t9 5v29h-14v2l-6 4h-3l-1 8h38v-51q-2 -5 -4 -6.5t-6 -6.5h-12q-9 -2 -12 -2h-35q-5 0 -19 9q-7 0 -13 10l-9 14 q-4 4 -5.5 8t-2.5 9q-2 6 -3 10t-1 10zM6 526v586h911q0 30 5 59t20 53q12 29 26.5 52.5t36.5 41.5q38 42 92 62q27 12 54.5 17t56.5 5q33 0 61.5 -6t53.5 -16q59 -29 94.5 -64.5t62.5 -95.5q19 -52 19 -108h911v-586h-2404zM131 624h18v58h35q4 0 10 0.5t8 3.5q11 4 15 10 q4 2 7 6t3 8q5 13 6 19q0 10 -6 20q0 2 -4 6l-6 6q-2 3 -5.5 7t-9.5 4q-2 4 -8 5t-10 1h-53v-154zM149 702v53h35q4 0 10 -2l8 -4q2 -1 3 -4.5t3 -5.5q3 -4 3 -10v-4q0 -2 -3 -7q-2 -2 -3 -5t-3 -3q-1 -2 -3 -4t-5 -4h-45zM155 337v138h84v-17h-67v-43h55v-16h-55v-47h67 v-15h-84zM192 63v219h139v-39h-100v-49h82v-41h-82v-51h100v-39h-139zM247 624h97v21h-74v47h59v18h-59v45h74v23h-97v-154zM256 458v17h106v-17h-47v-121h-12v121h-47zM338 243v39h165v-39h-59v-180h-43v180h-63zM374 624h23v64h24l39 -56q1 -4 7 -6l24 -2l-47 68q4 0 12 4 q7 3 8 10q9 6 9 12v25q-6 15 -13 20q-5 9 -14 9q-2 4 -7 5t-9 1h-56v-154zM397 708v47h33q3 0 10 -2l6 -4l2 -4l2 -4q3 -1 4 -10q-1 -6 -4 -9l-4 -8q-2 0 -3 -2t-3 -2q-2 -2 -10 -2h-33zM419.5 12.5q3.5 -12.5 19.5 -12.5h154q15 0 26.5 4.5t26.5 28.5l806 1436q5 9 7 17.5 t-0.5 16.5t-10.5 13t-24 5h-156q-27 0 -36 -10.5t-14 -19.5l-796 -1454q-6 -12 -2.5 -24.5zM448 337v138h86v-17h-70v-49h60v-12h-60v-60h-16zM473 63l96 219h35l94 -219h-25q-9 0 -16 4q-2 2 -4 7t-6 9l-13 27h-100l-10 -27q0 -6 -4 -6l-8 -10q-2 0 -3.5 -1t-5.5 -1z M497 653l10 -18h3q7 -7 16.5 -9t19.5 -2h9q5 0 12 2q4 2 9 4t7 5q4 2 7.5 6t4.5 10q2 5 3.5 8.5t1.5 9.5q0 11 -5.5 19t-11.5 14q-2 0 -4 2t-6 4l-4 2h-4q-4 3 -6.5 3.5t-3.5 1.5q-7 2 -9 3.5t-6 3.5q-6 3 -9 3l-3 22q9 7 12 8l15 2q11 -3 12 -6l6 -2q10 0 14 4l4 2l-6 8 q-2 1 -5 4t-7 5q-2 0 -4 2t-6 4h-29q-5 -2 -7.5 -4t-6.5 -4q-2 -5 -6 -8t-7 -7q0 -4 -2 -7t-2 -9q0 -7 4 -17l5 -8l6 -4q2 -2 6 -5t7 -3l8 -5q2 -1 7 -1q1 -2 6 -2t7 -2l6 -2q5 -4 5.5 -5.5t2.5 -5.5l2 -16q-4 -5 -4 -7.5t-2 -4.5q-1 -3 -7 -5l-3 -1q-4 0 -8 -1t-5 -1 q-5 0 -11.5 1.5t-6.5 6.5l-4 2q-4 4 -12 4h-5zM555 149h61l-29 74h-2zM559 391v84h14v-84q0 -6 2 -9.5t6 -5.5q0 -6 3 -9.5t5 -4.5q0 -2 4.5 -4t6.5 -4q6 -2 8 -2h16q9 4 13 6l8 4q4 1 8 14q4 3 4 15v84h14v-84q0 -10 -3.5 -22t-12.5 -17q-5 -13 -16 -13q-6 -1 -12 -1.5 t-11 -0.5t-11 0.5t-14 1.5q-3 0 -16 13l-10 16q-1 6 -3.5 11.5t-2.5 11.5zM616 699q0 -16 6.5 -29t16.5 -25q12 -15 26 -15q12 -6 29 -6h20q6 2 11 4t8 4q12 5 16 13q7 7 12 16q2 4 5.5 9t3.5 9q1 6 2.5 10.5t1.5 9.5q0 13 -4 23q0 5 -3.5 9t-5.5 10q-2 3 -5 6.5t-7 7.5 l-7 6q-2 3 -9 9l-8 4q-2 1 -5 2l-6 2h-41q-11 -4 -18 -8q-4 -5 -8 -8t-8 -7q-12 -9 -13 -14q-4 -6 -5 -10t-3 -9q-1 -5 -1.5 -10.5t-0.5 -12.5zM637 699q0 21 9 32.5t25 21.5q5 2 12 3t11 1q14 0 22 -4q13 -5 17 -12q6 -2 9 -8t5 -11q4 -7 4 -23q0 -11 -4 -22q-2 -4 -5 -9 t-9 -7q-5 -10 -17 -14t-22 -4q-11 0 -23 4q-4 4 -9 7t-9 7q-2 2 -6 7t-6 9q-4 12 -4 22zM700 337v138h16v-123h64v-15h-80zM706 63v219h139v-39h-100v-56h82v-38h-82v-86h-39zM794 337v138h17v-123h63v-15h-80zM802 624h21v125h2l2 -2v-4l86 -119h16v154h-18v-119l-78 113 q-4 0 -6 6h-25v-154zM860 174v13q0 4 2 15q5 18 12 25q4 9 8 13.5t8 10.5q7 4 12 8.5t11 10.5l29 10q4 0 11 1t15 1q9 0 16 -1t15 -1q6 -4 13 -6l14 -4l22 -19q4 -6 9 -10.5t10 -13.5q2 -4 4 -10.5t6 -14.5q2 -11 2 -15v-30q0 -5 -2 -12q-3 -7 -5.5 -15t-4.5 -14 q-5 -4 -10 -10t-9 -10q-15 -15 -23 -19.5t-26 -11.5q-4 -1 -7.5 -1.5t-7.5 -0.5h-16q-10 0 -20 2t-23 4q-12 6 -19 12.5t-16 14.5q-16 15 -23 35.5t-7 42.5zM899 159q0 -4 6 -12q5 -15 13.5 -24t23.5 -17q10 -4 26 -4q19 0 29 4q15 7 20 16q14 5 18.5 22t4.5 30q0 15 -4 24 q-4 18 -19 25q-2 6 -8 9t-12 5q-11 6 -29 6q-14 0 -26 -6q-11 -1 -23 -14q-9 -5 -14 -25q-5 -5 -6 -11v-28zM942 475h5q11 0 15 -9l43 -104v-2h2l2 2q5 14 13 27.5t12 25.5q4 15 10 27l12 24q0 5 1.5 5t1.5 2l18 2q-7 -17 -15 -34.5t-16 -33.5q-4 -9 -7.5 -18.5t-6.5 -18.5 l-15 -33h-16zM942 1112q0 -61 18.5 -103t56.5 -88q38 -37 87 -58.5t104 -21.5q53 0 102 19t85 59q21 19 35.5 40.5t25.5 43.5q21 54 22 109q0 46 -14.5 87.5t-44.5 77.5q-14 19 -29.5 32.5t-34.5 25.5q-18 7 -37.5 17.5t-39.5 17.5l-32.5 6.5t-37.5 3.5q-59 0 -107 -25 q-49 -17 -84 -57q-36 -36 -55.5 -85.5t-19.5 -100.5zM946 624h12q7 0 10 2q0 2 6 6l11 27h77l11 -27q1 -4 6 -6q2 -2 8 -2h14l-67 154h-21zM968 1112q0 19 3 40t12 42q4 19 14 36t25 33h319l-315 -315q-28 36 -43 76q-9 18 -12 40.5t-3 47.5zM985 -337q0 6 4 16q1 4 2.5 9.5 t5.5 9.5l9 14q2 2 6.5 5t6.5 5q5 5 10 6t9 3q3 0 8.5 2t11.5 2q16 0 27 -8q14 -4 22 -15l-5 -6h-13q-3 2 -6.5 5t-7.5 3h-37l-21 -12q-4 -3 -7.5 -7.5t-4.5 -11.5q-2 -6 -3 -12t-1 -8q0 -10 4 -14q0 -4 0.5 -9t0.5 -8l5 -4q5 -1 6 -6l8 -5q2 -1 7 -1q2 -4 5 -5t7 -3h33 q2 2 7 3t9 5v29h-14v2l-6 4h-3l-1 8h38v-51q-2 -5 -4 -6.5t-6 -6.5h-12q-9 -2 -12 -2h-35q-5 0 -19 9q-7 0 -13 10l-9 14q-4 4 -5.5 8t-2.5 9q-2 6 -3 10t-1 10zM985 -667q0 10 2 11q0 2 6 8v4l2 4l4 4t2 6l94 129h-102v39h159v-24l-8 -15l-106 -143h2l2 2h108v-39h-165v14z M993 -218v586h911q0 30 5 59t20 53q12 29 26.5 52.5t36.5 41.5q38 42 92 62q27 12 54.5 17t56.5 5q33 0 61.5 -6t53.5 -16q59 -29 94.5 -64.5t62.5 -95.5q19 -52 19 -108h911v-586h-2404zM993 679l29 64v6l2 -2v-4l28 -64h-59zM1046 1291q36 30 74 44q39 18 88 18 q47 0 90 -18q17 -9 36 -21t36 -23h-324zM1048 929h322q-17 -14 -36 -26t-36 -19q-23 -6 -45.5 -11t-44.5 -5q-25 0 -46 5t-42 11q-19 7 -37 19t-35 26zM1073 955l315 318q62 -78 62 -161q0 -23 -3.5 -44.5t-11.5 -41.5q-14 -37 -41 -71h-321zM1087 337v138h84v-17h-68v-43 h60v-16h-60v-47h68v-15h-84zM1107 63v219h35q4 0 8.5 -1t4.5 -3q3 -2 5.5 -2t4.5 -2l22 -33q5 -9 10 -17.5t11 -17.5q14 -14 24.5 -29.5t24.5 -29.5q0 -2 1 -5t1 -7l2 -5v152h38v-219h-36l-100 147l-4 3v2q-5 10 -7.5 12t-5.5 2v-166h-39zM1116 624h86v21h-66v133h-20v-154z M1118 34v-154h18v58h35q4 0 10 0.5t8 3.5q11 4 15 10q4 2 7 6t3 8q5 13 6 19q0 10 -6 20q0 2 -4 6l-6 6q-2 3 -5.5 7t-9.5 4q-2 4 -8 5t-10 1h-53zM1136 11h35q4 0 10 -2l8 -4q2 -1 3 -4.5t3 -5.5q3 -4 3 -10v-4q0 -2 -3 -7q-2 -2 -3 -5t-3 -3q-1 -2 -3 -4t-5 -4h-45v53z M1142 -269h84v-17h-67v-43h55v-16h-55v-47h67v-15h-84v138zM1179 -462h139v-39h-100v-49h82v-41h-82v-51h100v-39h-139v219zM1206 337v138h56q10 -2 14.5 -4.5t9.5 -6.5q0 -2 3 -6t3 -8l2 -20q-3 -17 -6 -21l-6 -4q-2 -2 -7 -4q-3 -3 -12 -4l47 -60h-15q-10 3 -9 9l-39 51 h-28v-60h-13zM1219 409h38q5 0 6 4q4 4 10 4l2 4q5 11 5 17q0 2 -1 3t-1 5q-3 2 -4 3t-1 5q-5 0 -10 4h-44v-49zM1234 34v-154h97v21h-74v47h59v18h-59v45h74v23h-97zM1243 -269h106v-17h-47v-121h-12v121h-47v17zM1290 686q0 -7 1.5 -17.5t6.5 -15.5q2 -6 10 -12 q2 -3 4.5 -6t8.5 -5q2 -2 6 -3t8 -3q4 0 7 -1t9 -1q4 0 7.5 1t11.5 1q2 2 5 3t7 3q9 6 12 11q3 2 5.5 5t5.5 7q0 4 3 7t3 7v111h-21v-103q0 -3 -2 -8q-1 -7 -10 -12q0 -2 -4 -4t-6 -6l-9 -2h-8q-7 0 -14 2q-5 4 -8.5 6t-5.5 4l-11 12q0 3 -1 7.5t-1 11.5v92h-20v-92z M1321 243v39h165v-39h-65v-180h-39v180h-61zM1321 360l4 2h6q1 0 3.5 -1t4.5 -1q4 -4 7 -5t5 -3h21q8 0 12 4q1 2 2 3.5t2 3.5q2 2 3 6.5t1 6.5q0 18 -16 23q-3 0 -13 4t-12 6q-10 0 -14 8q-2 0 -4 3l-4 6v23q0 1 2 7q0 9 8 10l6 5l4 2l4 2q4 0 6.5 2t8.5 2l10 -4 q3 0 4.5 -1t5.5 -3q6 0 6 -7q5 0 7 -3l1 -3l-2 -2q-6 -2 -10 -2h-6l-25 4q-9 0 -8 -2q-5 -7 -6 -8q-4 0 -4 -8q0 -5 4 -6q0 -4 4 -7l6 -4q4 -4 7.5 -4t7.5 -2l6 -2q3 0 8 -6h4l6 -2q5 -4 8 -7l5 -5q1 -5 1.5 -9.5t0.5 -9.5v-10q-5 -9 -7.5 -13t-7.5 -7q-2 -2 -6 -4.5 t-6 -2.5q-4 -2 -10 -2h-10q-10 0 -17.5 1t-13.5 8q-2 0 -3 3t-5 5v4zM1325 -462h165v-39h-59v-180h-43v180h-63v39zM1361 34v-154h23v64h24l39 -56q1 -4 7 -6l24 -2l-47 68q4 0 12 4q7 3 8 10q9 6 9 12v25q-6 15 -13 20q-5 9 -14 9q-2 4 -7 5t-9 1h-56zM1384 11h33 q3 0 10 -2l6 -4l2 -4l2 -4q3 -1 4 -10q-1 -6 -4 -9l-4 -8q-2 0 -3 -2t-3 -2q-2 -2 -10 -2h-33v47zM1433 653l8 -10v-2q7 -5 9 -6q6 -7 14 -9t18 -2h12q3 0 11 2q2 2 6 4t8 5l6 8q3 3 4 8q7 7 7 18t-4.5 19t-12.5 14q-6 5 -6 6h-4l-39 17l-6 6q0 1 -1 3.5t-1 4.5q0 4 4 8 q5 4 6.5 6t5.5 2q2 2 10 2l3 -1q5 -2 8 -3l6 -2q6 -2 8 -2q7 0 8 4l6 2q0 2 -3 4t-5 4q0 1 -3 4l-5 5q-3 0 -5.5 2t-6.5 4h-6l-5 1q-6 0 -10 -0.5t-8 -0.5l-14 -8l-11 -15q-1 -4 -3.5 -7t-2.5 -9q0 -4 2 -8t4 -9q2 -4 4.5 -7t4.5 -5q4 -2 7 -5t7 -3q9 -5 14 -6q4 -2 6.5 -2 t6.5 -2q5 0 10.5 -3.5t5.5 -9.5l2 -15q-2 -7 -4 -9l-4 -4q-12 -9 -23 -8q-2 0 -6 1t-6 1q-3 1 -8 6l-3 2q-4 4 -9 4h-7zM1435 -269h86v-17h-70v-49h60v-12h-60v-60h-16v138zM1439 337v138h17v-138h-17zM1460 -681l96 219h35l94 -219h-25q-9 0 -16 4q-2 2 -4 7t-6 9l-13 27 h-100l-10 -27q0 -6 -4 -6l-8 -10q-2 0 -3.5 -1t-5.5 -1zM1484 -91l10 -18h3q7 -7 16.5 -9t19.5 -2h9q5 0 12 2q4 2 9 4t7 5q4 2 7.5 6t4.5 10q2 5 3.5 8.5t1.5 9.5q0 11 -5.5 19t-11.5 14q-2 0 -4 2t-6 4l-4 2h-4q-4 3 -6.5 3.5t-3.5 1.5q-7 2 -9 3.5t-6 3.5q-6 3 -9 3 l-3 22q9 7 12 8l15 2q11 -3 12 -6l6 -2q10 0 14 4l4 2l-6 8q-2 1 -5 4t-7 5q-2 0 -4 2t-6 4h-29q-5 -2 -7.5 -4t-6.5 -4q-2 -5 -6 -8t-7 -7q0 -4 -2 -7t-2 -9q0 -7 4 -17l5 -8l6 -4q2 -2 6 -5t7 -3l8 -5q2 -1 7 -1q1 -2 6 -2t7 -2l6 -2q5 -4 5.5 -5.5t2.5 -5.5l2 -16 q-4 -5 -4 -7.5t-2 -4.5q-1 -3 -7 -5l-3 -1q-4 0 -8 -1t-5 -1q-5 0 -11.5 1.5t-6.5 6.5l-4 2q-4 4 -12 4h-5zM1488 110l7 4l8 2l2 2h10q13 -3 14 -4q5 -4 9 -6t6 -4q2 0 6 -1t10 -1h5q9 2 13 3.5t7 4.5q2 2 4.5 4t3.5 4q2 4 4 7.5t2 7.5q0 6 -6 10q-4 6 -8 6q-2 4 -6.5 5 t-7.5 3q-5 0 -13 6q-5 0 -9.5 1t-10.5 6q-10 3 -13.5 6.5l-7.5 7.5q-12 4 -12 14q-6 12 -6 25q0 19 6 26q1 4 6 11l8 10q4 2 9.5 4t13.5 6q6 0 11 1t13 1q4 0 8.5 -1t10.5 -1l16 -6q3 -4 6.5 -7t7.5 -7q3 -2 7 -5.5t4 -7.5l-14 -8l-21 -4l-6 2q-3 1 -6 4q-2 0 -3.5 1t-4.5 1 h-17q-2 0 -3 -1t-5 -3l-7 -6q-1 -3 -1 -10q3 -6 4.5 -9.5t3.5 -7.5h6q9 -2 14 -5t11 -5l8 -2q5 -4 9.5 -5.5t10.5 -4.5q6 -2 16.5 -13.5t10.5 -17.5q5 -9 6 -20q0 -15 -8 -29l-8 -13q-3 -5 -9 -8q-6 -6 -11 -10t-13 -6q-5 -2 -14 -3t-15 -1q-12 0 -33 4q-10 4 -22 19 q-4 1 -6 5l-4 9q-6 2 -7 10zM1488 407v16l11 19q2 2 4.5 6t7.5 8q6 9 12 10q3 5 9 6t10 3q4 0 8 2t10 2q4 0 10.5 -2t10.5 -2q4 -2 8 -3t8 -6l12 -10l13 -14q2 -4 4 -8.5t4 -10.5q0 -4 1 -9t1 -7q0 -6 -1 -14t-5 -17q-4 -13 -17 -20q-4 -4 -9 -8t-13 -9q-11 -2 -27 -2h-15 q-4 0 -11 2q-16 4 -23 17q-12 9 -16 20q-6 15 -7 31zM1505 399q3 -15 8 -23q0 -2 2 -4t4 -6l6 -4q2 -2 9 -2q2 -4 6 -5t6 -3h28q5 2 8 3t7 5l10 6q2 4 5 6t3 4q2 3 3 8t3 9q0 2 1 6t1 8q0 2 -1 8t-5 12q0 6 -4 10.5t-6 8.5q-3 1 -8 6l-10 6h-43q-4 -4 -9.5 -7t-9.5 -5 q-2 -3 -5 -8t-3 -11q-3 -6 -4.5 -12t-1.5 -8v-8zM1542 -595h61l-29 74h-2zM1546 -269h14v-84q0 -6 2 -9.5t6 -5.5q0 -6 3 -9.5t5 -4.5q0 -2 4.5 -4t6.5 -4q6 -2 8 -2h16q9 4 13 6l8 4q4 1 8 14q4 3 4 15v84h14v-84q0 -10 -3.5 -22t-12.5 -17q-5 -13 -16 -13q-6 -1 -12 -1.5 t-11 -0.5t-11 0.5t-14 1.5q-3 0 -16 13l-10 16q-1 6 -3.5 11.5t-2.5 11.5v84zM1560 624h94v21h-71v47h59v18h-59v45h71v23h-94v-154zM1603 -45q0 -16 6.5 -29t16.5 -25q12 -15 26 -15q12 -6 29 -6h20q6 2 11 4t8 4q12 5 16 13q7 7 12 16q2 4 5.5 9t3.5 9q1 6 2.5 10.5 t1.5 9.5q0 13 -4 23q0 5 -3.5 9t-5.5 10q-2 3 -5 6.5t-7 7.5l-7 6q-2 3 -9 9l-8 4q-2 1 -5 2l-6 2h-41q-11 -4 -18 -8q-4 -5 -8 -8t-8 -7q-12 -9 -13 -14q-4 -6 -5 -10t-3 -9q-1 -5 -1.5 -10.5t-0.5 -12.5zM1624 -45q0 21 9 32.5t25 21.5q5 2 12 3t11 1q14 0 22 -4 q13 -5 17 -12q6 -2 9 -8t5 -11q4 -7 4 -23q0 -11 -4 -22q-2 -4 -5 -9t-9 -7q-5 -10 -17 -14t-22 -4q-11 0 -23 4q-4 4 -9 7t-9 7q-2 2 -6 7t-6 9q-4 12 -4 22zM1646 86v4l8 12q7 4 9 4l15 4l9 -8q6 0 6 -6l2 -10q0 -7 -2 -9q0 -4 -6 -10l-24 -4q-4 4 -9 4q0 2 -6 10 q-2 2 -2 9zM1656 337v138h19l82 -113v113h14v-138h-12l-82 113v4h-4v-117h-17zM1687 -269h16v-123h64v-15h-80v138zM1693 -462h139v-39h-100v-56h82v-38h-82v-86h-39v219zM1710 174q0 9 1 14.5t3 13.5q2 17 10 25l9 13.5t9 10.5l25 19l27 10q5 0 12.5 1t15.5 1h13q4 0 16 -3 t16 -5l23 -14q4 -4 7.5 -8.5t6.5 -8.5l-14 -16h-15q-7 0 -14 4q-3 2 -8.5 5t-9.5 5q-9 2 -11 2h-10q-16 0 -28 -6q-16 -2 -23 -14q-7 -7 -14 -25q-2 -4 -4 -10t-2 -14q0 -10 6 -27.5t14 -24.5q10 -10 23 -16q13 -4 28 -4q5 0 10 1t11 1q3 2 8.5 5t9.5 7q2 0 8 2h13q2 0 8 -2 q2 -1 8 -6l6 -8l-6 -8t-8 -8q-6 -3 -11 -6t-12 -7q-5 -3 -16.5 -6.5t-17.5 -3.5h-11q-12 0 -23.5 2t-21.5 4q-21 10 -35 27q-16 15 -22 35q-4 10 -7 20t-3 23zM1742 699q0 -5 2.5 -13.5t6.5 -14.5q5 -16 16 -26q9 -15 25 -15q12 -6 30 -6h21q3 2 8.5 4t9.5 4q4 3 8.5 6 t5.5 7q10 5 15 16l8 18v43q-2 5 -3.5 9.5t-4.5 9.5q-5 6 -15 14q-1 4 -5.5 7t-8.5 8q-2 1 -4.5 2t-5.5 2l-8 4h-41q-5 -2 -10.5 -4t-10.5 -4q-3 -5 -6.5 -8t-7.5 -7q-3 -4 -6.5 -7t-5.5 -7q-2 -6 -5 -10t-3 -9q-5 -11 -5 -23zM1765 699q0 12 6 23q0 5 3 11t7 8 q9 9 19.5 12.5t21.5 3.5q13 0 23 -4l18 -12q2 -2 6.5 -8t5.5 -11q4 -7 5 -23q0 -13 -5 -22q-1 -4 -6 -10l-6 -6q-5 -4 -9.5 -7t-8.5 -7q-9 -4 -23 -4q-15 0 -22 4q-5 4 -10 7t-9 7q-3 2 -6.5 7t-3.5 9q-4 6 -5 11.5t-1 10.5zM1781 -269h17v-123h63v-15h-80v138zM1789 34 v-154h21v125h2l2 -2v-4l86 -119h16v154h-18v-119l-78 113q-4 0 -6 6h-25zM1847 -557q0 4 2 15q5 18 12 25q4 9 8 13.5t8 10.5q7 4 12 8.5t11 10.5l29 10q4 0 11 1t15 1q9 0 16 -1t15 -1q6 -4 13 -6l14 -4l22 -19q4 -6 9 -10.5t10 -13.5q2 -4 4 -10.5t6 -14.5q2 -11 2 -15 v-30q0 -5 -2 -12q-3 -7 -5.5 -15t-4.5 -14q-5 -4 -10 -10t-9 -10q-15 -15 -23 -19.5t-26 -11.5q-4 -1 -7.5 -1.5t-7.5 -0.5h-16q-10 0 -20 2t-23 4q-12 6 -19 12.5t-16 14.5q-16 15 -23 35.5t-7 42.5v13zM1874 337v138h83v-17h-67v-49h55v-12h-55v-60h-16zM1886 -557v-28 q0 -4 6 -12q5 -15 13.5 -24t23.5 -17q10 -4 26 -4q19 0 29 4q15 7 20 16q14 5 18.5 22t4.5 30q0 15 -4 24q-4 18 -19 25q-2 6 -8 9t-12 5q-11 6 -29 6q-14 0 -26 -6q-11 -1 -23 -14q-9 -5 -14 -25q-5 -5 -6 -11zM1921 174q0 9 1 14.5t1 13.5q3 7 6.5 14t7.5 11q2 9 6 13.5 t10 10.5q3 4 10 8.5t13 10.5q4 2 11 4t13 6q11 0 17 1t12 1q10 0 17.5 -1t13.5 -1q6 -4 13 -6t13 -4q14 -11 25 -19q2 -6 8 -10.5t8 -13.5q3 -4 6 -10.5t5 -14.5q4 -7 4 -15v-30q0 -7 -4 -12q-2 -7 -5 -15t-6 -14q-4 -7 -16 -20l-12 -10t-13 -9q-5 -5 -12.5 -7.5l-13.5 -4.5 q-9 -2 -14 -2h-17q-20 0 -43 6q-9 6 -16.5 12.5t-16.5 14.5q-9 6 -14.5 14t-7.5 21q-6 10 -8 20t-2 23zM1929 -269h5q11 0 15 -9l43 -104v-2h2l2 2q5 14 13 27.5t12 25.5q4 15 10 27l12 24q0 5 1.5 5t1.5 2l18 2q-7 -17 -15 -34.5t-16 -33.5q-4 -9 -7.5 -18.5t-6.5 -18.5 l-15 -33h-16zM1929 368q0 -61 18.5 -103t56.5 -88q38 -37 87 -58.5t104 -21.5q53 0 102 19t85 59q21 19 35.5 40.5t25.5 43.5q21 54 22 109q0 46 -14.5 87.5t-44.5 77.5q-14 19 -29.5 32.5t-34.5 25.5q-18 7 -37.5 17.5t-39.5 17.5l-32.5 6.5t-37.5 3.5q-59 0 -107 -25 q-49 -17 -84 -57q-36 -36 -55.5 -85.5t-19.5 -100.5zM1929 624h22v121l90 -121h17v154h-21v-119l-2.5 5t-3.5 5l-74 103l-4 6h-24v-154zM1933 -120h12q7 0 10 2q0 2 6 6l11 27h77l11 -27q1 -4 6 -6q2 -2 8 -2h14l-67 154h-21zM1955 368q0 19 3 40t12 42q4 19 14 36t25 33 h319l-315 -315q-28 36 -43 76q-9 18 -12 40.5t-3 47.5zM1962 174q0 -9 1 -15t1 -12q9 -17 16 -25q6 -4 11 -8t12 -8q7 -2 14.5 -3t11.5 -1q21 0 29 4q29 11 39 41q5 13 6 27q0 16 -6 24q-3 14 -14 24.5t-25 14.5q-4 4 -11.5 5t-17.5 1q-11 0 -26 -6q-7 -1 -12 -4.5t-11 -9.5 q-9 -6 -16 -25q0 -4 -1 -10t-1 -14zM1974 337v138h57q3 0 10 -2q2 -2 5.5 -4.5t4.5 -4.5q4 -2 5.5 -6t7.5 -8v-27q-4 -4 -5 -8t-3 -6l-10 -8q-4 -1 -7.5 -2t-5.5 -2l45 -60h-12q-7 2 -8.5 3.5t-1.5 5.5l-39 51h-27v-60h-16zM1980 -65l29 64v6l2 -2v-4l28 -64h-59zM1990 409 h35q4 1 8 4q4 4 8 4q5 7 5 9q2 4 2 12q0 3 -2 8q0 1 -5 8q-3 0 -8 4h-43v-49zM2033 547q36 30 74 44q39 18 88 18q47 0 90 -18q17 -9 36 -21t36 -23h-324zM2035 185h322q-17 -14 -36 -26t-36 -19q-23 -6 -45.5 -11t-44.5 -5q-25 0 -46 5t-42 11q-19 7 -37 19t-35 26z M2060 211l315 318q62 -78 62 -161q0 -23 -3.5 -44.5t-11.5 -41.5q-14 -37 -41 -71h-321zM2074 -269h84v-17h-68v-43h60v-16h-60v-47h68v-15h-84v138zM2093 407q0 2 1 7t1 9q2 4 3 9.5t5 9.5q2 3 5 6.5t5 7.5q7 5 17 10q3 5 8.5 6t7.5 3q5 0 8.5 2t11.5 2q2 0 7.5 -2t11.5 -2 q4 -2 8 -3t6 -6q4 -2 9 -5t8 -5q1 -2 2 -3.5t2 -3.5l4 -7q6 -11 8 -19q2 -4 3 -9t1 -7q0 -6 -1 -14t-5 -17q0 -6 -6 -11l-8 -9q-6 -4 -12.5 -8t-12.5 -9q-9 -2 -13 -2h-29q-4 0 -13 2q-12 4 -23 17q-7 7 -14 20q-2 9 -4 17t-2 14zM2094 -462h35q4 0 8.5 -1t4.5 -3 q3 -2 5.5 -2t4.5 -2l22 -33q5 -9 10 -17.5t11 -17.5q14 -14 24.5 -29.5t24.5 -29.5q0 -2 1 -5t1 -7l2 -5v152h38v-219h-36l-100 147l-4 3v2q-5 10 -7.5 12t-5.5 2v-166h-39v219zM2095 624h90v21h-68v133h-22v-154zM2103 34v-154h86v21h-66v133h-20zM2111 393q0 -4 1 -9t5 -8 l4 -4q3 -3 4 -6l6 -4q7 -5 11.5 -6.5t7.5 -3.5h31l6 3q5 4 9.5 6t8.5 5l3 6q3 6 6.5 11.5t3.5 9.5v34q-2 6 -6.5 10.5t-6.5 8.5q-6 2 -10 5t-8 7h-43q-6 -4 -10 -7t-9 -5q-7 -5 -12 -19q-2 -9 -2 -12v-22zM2160 778l58 -76v-3l4 -3v-72h21v70l5 5v3l58 76h-19q-5 0 -9.5 -4 t-4.5 -9l-37 -47h-4l-39 47q-3 14 -16 13h-17zM2168 63v219h39q5 0 7 -1t4 -1q2 -2 3 -2t3 -2l8 -4q0 -2 2 -4t2 -4q4 -17 11 -32t16 -34q6 -16 12 -32.5t12 -30.5v-13l6 13l9 14l45 115l4 8l6 4q2 2 4 2t4 2l1 1l44 1v-219h-37v160l-6 -10v-6q-9 -19 -15.5 -38.5 t-15.5 -33.5q-6 -19 -12 -35.5t-14 -36.5h-37l-55 139q-5 3 -5 11l-4 6v-156h-41zM2193 -269h56q10 -2 14.5 -4.5t9.5 -6.5q0 -2 3 -6t3 -8l2 -20q-3 -17 -6 -21l-6 -4q-2 -2 -7 -4q-3 -3 -12 -4l47 -60h-15q-10 3 -9 9l-39 51h-28v-60h-13v138zM2206 -286v-49h38q5 0 6 4 q4 4 10 4l2 4q5 11 5 17q0 2 -1 3t-1 5q-3 2 -4 3t-1 5q-5 0 -10 4h-44zM2265 337v138h14l8 -4v-5l49 -106l3 -2v4q0 1 8 6l40 98q2 5 3.5 5t1.5 2l18 2v-138h-12v113l-2 -2v-2q-4 -7 -7 -17t-8 -14q-4 -7 -6 -13.5t-8 -14.5q-2 -9 -3 -15t-5 -10q-3 -9 -6.5 -13.5 t-5.5 -11.5h-15q-10 13 -15 26t-11 28q-4 12 -11.5 26.5t-11.5 28.5v2h-4v-111h-14zM2277 34v-92q0 -7 1.5 -17.5t6.5 -15.5q2 -6 10 -12q2 -3 4.5 -6t8.5 -5q2 -2 6 -3t8 -3q4 0 7 -1t9 -1q4 0 7.5 1t11.5 1q2 2 5 3t7 3q9 6 12 11q3 2 5.5 5t5.5 7q0 4 3 7t3 7v111h-21 v-103q0 -3 -2 -8q-1 -7 -10 -12q0 -2 -4 -4t-6 -6l-9 -2h-8q-7 0 -14 2q-5 4 -8.5 6t-5.5 4l-11 12q0 3 -1 7.5t-1 11.5v92h-20zM2308 -384l4 2h6q1 0 3.5 -1t4.5 -1q4 -4 7 -5t5 -3h21q8 0 12 4q1 2 2 3.5t2 3.5q2 2 3 6.5t1 6.5q0 18 -16 23q-3 0 -13 4t-12 6q-10 0 -14 8 q-2 0 -4 3l-4 6v23q0 1 2 7q0 9 8 10l6 5l4 2l4 2q4 0 6.5 2t8.5 2l10 -4q3 0 4.5 -1t5.5 -3q6 0 6 -7q5 0 7 -3l1 -3l-2 -2q-6 -2 -10 -2h-6l-25 4q-9 0 -8 -2q-5 -7 -6 -8q-4 0 -4 -8q0 -5 4 -6q0 -4 4 -7l6 -4q4 -4 7.5 -4t7.5 -2l6 -2q3 0 8 -6h4l6 -2q5 -4 8 -7l5 -5 q1 -5 1.5 -9.5t0.5 -9.5v-10q-5 -9 -7.5 -13t-7.5 -7q-2 -2 -6 -4.5t-6 -2.5q-4 -2 -10 -2h-10q-10 0 -17.5 1t-13.5 8q-2 0 -3 3t-5 5v4zM2308 -462h165v-39h-65v-180h-39v180h-61v39zM2420 -91l8 -10v-2q7 -5 9 -6q6 -7 14 -9t18 -2h12q3 0 11 2q2 2 6 4t8 5l6 8q3 3 4 8 q7 7 7 18t-4.5 19t-12.5 14q-6 5 -6 6h-4l-39 17l-6 6q0 1 -1 3.5t-1 4.5q0 4 4 8q5 4 6.5 6t5.5 2q2 2 10 2l3 -1q5 -2 8 -3l6 -2q6 -2 8 -2q7 0 8 4l6 2q0 2 -3 4t-5 4q0 1 -3 4l-5 5q-3 0 -5.5 2t-6.5 4h-6l-5 1q-6 0 -10 -0.5t-8 -0.5l-14 -8l-11 -15q-1 -4 -3.5 -7 t-2.5 -9q0 -4 2 -8t4 -9q2 -4 4.5 -7t4.5 -5q4 -2 7 -5t7 -3q9 -5 14 -6q4 -2 6.5 -2t6.5 -2q5 0 10.5 -3.5t5.5 -9.5l2 -15q-2 -7 -4 -9l-4 -4q-12 -9 -23 -8q-2 0 -6 1t-6 1q-3 1 -8 6l-3 2q-4 4 -9 4h-7zM2426 -269h17v-138h-17v138zM2475 -321l11 19q2 2 4.5 6t7.5 8 q6 9 12 10q3 5 9 6t10 3q4 0 8 2t10 2q4 0 10.5 -2t10.5 -2q4 -2 8 -3t8 -6l12 -10l13 -14q2 -4 4 -8.5t4 -10.5q0 -4 1 -9t1 -7q0 -6 -1 -14t-5 -17q-4 -13 -17 -20q-4 -4 -9 -8t-13 -9q-11 -2 -27 -2h-15q-4 0 -11 2q-16 4 -23 17q-12 9 -16 20q-6 15 -7 31v16zM2475 -634 l7 4l8 2l2 2h10q13 -3 14 -4q5 -4 9 -6t6 -4q2 0 6 -1t10 -1h5q9 2 13 3.5t7 4.5q2 2 4.5 4t3.5 4q2 4 4 7.5t2 7.5q0 6 -6 10q-4 6 -8 6q-2 4 -6.5 5t-7.5 3q-5 0 -13 6q-5 0 -9.5 1t-10.5 6q-10 3 -13.5 6.5l-7.5 7.5q-12 4 -12 14q-6 12 -6 25q0 19 6 26q1 4 6 11l8 10 q4 2 9.5 4t13.5 6q6 0 11 1t13 1q4 0 8.5 -1t10.5 -1l16 -6q3 -4 6.5 -7t7.5 -7q3 -2 7 -5.5t4 -7.5l-14 -8l-21 -4l-6 2q-3 1 -6 4q-2 0 -3.5 1t-4.5 1h-17q-2 0 -3 -1t-5 -3l-7 -6q-1 -3 -1 -10q3 -6 4.5 -9.5t3.5 -7.5h6q9 -2 14 -5t11 -5l8 -2q5 -4 9.5 -5.5t10.5 -4.5 q6 -2 16.5 -13.5t10.5 -17.5q5 -9 6 -20q0 -15 -8 -29l-8 -13q-3 -5 -9 -8q-6 -6 -11 -10t-13 -6q-5 -2 -14 -3t-15 -1q-12 0 -33 4q-10 4 -22 19q-4 1 -6 5l-4 9q-6 2 -7 10zM2492 -337v-8q3 -15 8 -23q0 -2 2 -4t4 -6l6 -4q2 -2 9 -2q2 -4 6 -5t6 -3h28q5 2 8 3t7 5l10 6 q2 4 5 6t3 4q2 3 3 8t3 9q0 2 1 6t1 8q0 2 -1 8t-5 12q0 6 -4 10.5t-6 8.5q-3 1 -8 6l-10 6h-43q-4 -4 -9.5 -7t-9.5 -5q-2 -3 -5 -8t-3 -11q-3 -6 -4.5 -12t-1.5 -8zM2547 34v-154h94v21h-71v47h59v18h-59v45h71v23h-94zM2633 -654l8 12q7 4 9 4l15 4l9 -8q6 0 6 -6l2 -10 q0 -7 -2 -9q0 -4 -6 -10l-24 -4q-4 4 -9 4q0 2 -6 10q-2 2 -2 9v4zM2643 -269h19l82 -113v113h14v-138h-12l-82 113v4h-4v-117h-17v138zM2697 -570q0 9 1 14.5t3 13.5q2 17 10 25l9 13.5t9 10.5l25 19l27 10q5 0 12.5 1t15.5 1h13q4 0 16 -3t16 -5l23 -14q4 -4 7.5 -8.5 t6.5 -8.5l-14 -16h-15q-7 0 -14 4q-3 2 -8.5 5t-9.5 5q-9 2 -11 2h-10q-16 0 -28 -6q-16 -2 -23 -14q-7 -7 -14 -25q-2 -4 -4 -10t-2 -14q0 -10 6 -27.5t14 -24.5q10 -10 23 -16q13 -4 28 -4q5 0 10 1t11 1q3 2 8.5 5t9.5 7q2 0 8 2h13q2 0 8 -2q2 -1 8 -6l6 -8l-6 -8t-8 -8 q-6 -3 -11 -6t-12 -7q-5 -3 -16.5 -6.5t-17.5 -3.5h-11q-12 0 -23.5 2t-21.5 4q-21 10 -35 27q-16 15 -22 35q-4 10 -7 20t-3 23zM2729 -45q0 -5 2.5 -13.5t6.5 -14.5q5 -16 16 -26q9 -15 25 -15q12 -6 30 -6h21q3 2 8.5 4t9.5 4q4 3 8.5 6t5.5 7q10 5 15 16l8 18v43 q-2 5 -3.5 9.5t-4.5 9.5q-5 6 -15 14q-1 4 -5.5 7t-8.5 8q-2 1 -4.5 2t-5.5 2l-8 4h-41q-5 -2 -10.5 -4t-10.5 -4q-3 -5 -6.5 -8t-7.5 -7q-3 -4 -6.5 -7t-5.5 -7q-2 -6 -5 -10t-3 -9q-5 -11 -5 -23zM2752 -45q0 12 6 23q0 5 3 11t7 8q9 9 19.5 12.5t21.5 3.5q13 0 23 -4 l18 -12q2 -2 6.5 -8t5.5 -11q4 -7 5 -23q0 -13 -5 -22q-1 -4 -6 -10l-6 -6q-5 -4 -9.5 -7t-8.5 -7q-9 -4 -23 -4q-15 0 -22 4q-5 4 -10 7t-9 7q-3 2 -6.5 7t-3.5 9q-4 6 -5 11.5t-1 10.5zM2861 -269h83v-17h-67v-49h55v-12h-55v-60h-16v138zM2908 -570q0 9 1 14.5t1 13.5 q3 7 6.5 14t7.5 11q2 9 6 13.5t10 10.5q3 4 10 8.5t13 10.5q4 2 11 4t13 6q11 0 17 1t12 1q10 0 17.5 -1t13.5 -1q6 -4 13 -6t13 -4q14 -11 25 -19q2 -6 8 -10.5t8 -13.5q3 -4 6 -10.5t5 -14.5q4 -7 4 -15v-30q0 -7 -4 -12q-2 -7 -5 -15t-6 -14q-4 -7 -16 -20l-12 -10 t-13 -9q-5 -5 -12.5 -7.5l-13.5 -4.5q-9 -2 -14 -2h-17q-20 0 -43 6q-9 6 -16.5 12.5t-16.5 14.5q-9 6 -14.5 14t-7.5 21q-6 10 -8 20t-2 23zM2916 34v-154h22v121l90 -121h17v154h-21v-119l-2.5 5t-3.5 5l-74 103l-4 6h-24zM2949 -570q0 -9 1 -15t1 -12q9 -17 16 -25 q6 -4 11 -8t12 -8q7 -2 14.5 -3t11.5 -1q21 0 29 4q29 11 39 41q5 13 6 27q0 16 -6 24q-3 14 -14 24.5t-25 14.5q-4 4 -11.5 5t-17.5 1q-11 0 -26 -6q-7 -1 -12 -4.5t-11 -9.5q-9 -6 -16 -25q0 -4 -1 -10t-1 -14zM2961 -269h57q3 0 10 -2q2 -2 5.5 -4.5t4.5 -4.5 q4 -2 5.5 -6t7.5 -8v-27q-4 -4 -5 -8t-3 -6l-10 -8q-4 -1 -7.5 -2t-5.5 -2l45 -60h-12q-7 2 -8.5 3.5t-1.5 5.5l-39 51h-27v-60h-16v138zM2977 -286v-49h35q4 1 8 4q4 4 8 4q5 7 5 9q2 4 2 12q0 3 -2 8q0 1 -5 8q-3 0 -8 4h-43zM3080 -337q0 2 1 7t1 9q2 4 3 9.5t5 9.5 q2 3 5 6.5t5 7.5q7 5 17 10q3 5 8.5 6t7.5 3q5 0 8.5 2t11.5 2q2 0 7.5 -2t11.5 -2q4 -2 8 -3t6 -6q4 -2 9 -5t8 -5q1 -2 2 -3.5t2 -3.5l4 -7q6 -11 8 -19q2 -4 3 -9t1 -7q0 -6 -1 -14t-5 -17q0 -6 -6 -11l-8 -9q-6 -4 -12.5 -8t-12.5 -9q-9 -2 -13 -2h-29q-4 0 -13 2 q-12 4 -23 17q-7 7 -14 20q-2 9 -4 17t-2 14zM3082 34v-154h90v21h-68v133h-22zM3098 -329v-22q0 -4 1 -9t5 -8l4 -4q3 -3 4 -6l6 -4q7 -5 11.5 -6.5t7.5 -3.5h31l6 3q5 4 9.5 6t8.5 5l3 6q3 6 6.5 11.5t3.5 9.5v34q-2 6 -6.5 10.5t-6.5 8.5q-6 2 -10 5t-8 7h-43 q-6 -4 -10 -7t-9 -5q-7 -5 -12 -19q-2 -9 -2 -12zM3147 34l58 -76v-3l4 -3v-72h21v70l5 5v3l58 76h-19q-5 0 -9.5 -4t-4.5 -9l-37 -47h-4l-39 47q-3 14 -16 13h-17zM3155 -462h39q5 0 7 -1t4 -1q2 -2 3 -2t3 -2l8 -4q0 -2 2 -4t2 -4q4 -17 11 -32t16 -34q6 -16 12 -32.5 t12 -30.5v-13l6 13l9 14l45 115l4 8l6 4q2 2 4 2t4 2l1 1l44 1v-219h-37v160l-6 -10v-6q-9 -19 -15.5 -38.5t-15.5 -33.5q-6 -19 -12 -35.5t-14 -36.5h-37l-55 139q-5 3 -5 11l-4 6v-156h-41v219zM3252 -269h14l8 -4v-5l49 -106l3 -2v4q0 1 8 6l40 98q2 5 3.5 5t1.5 2l18 2 v-138h-12v113l-2 -2v-2q-4 -7 -7 -17t-8 -14q-4 -7 -6 -13.5t-8 -14.5q-2 -9 -3 -15t-5 -10q-3 -9 -6.5 -13.5t-5.5 -11.5h-15q-10 13 -15 26t-11 28q-4 12 -11.5 26.5t-11.5 28.5v2h-4v-111h-14v138z" />
<glyph unicode="&#x26;" d="M66 43v14q0 10 2 11q0 2 6 8v4l2 4l4 4t2 6l94 129h-102v39h159v-24l-8 -15l-106 -143h2l2 2h108v-39h-165zM66 387q0 6 4 16q1 4 2.5 9.5t5.5 9.5l9 14q2 2 6.5 5t6.5 5q5 5 10 6t9 3q3 0 8.5 2t11.5 2q16 0 27 -8q14 -4 22 -15l-5 -6h-13q-3 2 -6.5 5t-7.5 3h-37 l-21 -12q-4 -3 -7.5 -7.5t-4.5 -11.5q-2 -6 -3 -12t-1 -8q0 -10 4 -14q0 -4 0.5 -9t0.5 -8l5 -4q5 -1 6 -6l8 -5q2 -1 7 -1q2 -4 5 -5t7 -3h33q2 2 7 3t9 5v29h-14v2l-6 4h-3l-1 8h38v-51q-2 -5 -4 -6.5t-6 -6.5h-12q-9 -2 -12 -2h-35q-5 0 -19 9q-7 0 -13 10l-9 14 q-4 4 -5.5 8t-2.5 9q-2 6 -3 10t-1 10zM74 506v586h911q0 30 5 59t20 53q12 29 26.5 52.5t36.5 41.5q38 42 92 62q27 12 54.5 17t56.5 5q33 0 61.5 -6t53.5 -16q59 -29 94.5 -64.5t62.5 -95.5q19 -52 19 -108h911v-586h-2404zM199 604h18v58h35q4 0 10 0.5t8 3.5q11 4 15 10 q4 2 7 6t3 8q5 13 6 19q0 10 -6 20q0 2 -4 6l-6 6q-2 3 -5.5 7t-9.5 4q-2 4 -8 5t-10 1h-53v-154zM217 682v53h35q4 0 10 -2l8 -4q2 -1 3 -4.5t3 -5.5q3 -4 3 -10v-4q0 -2 -3 -7q-2 -2 -3 -5t-3 -3q-1 -2 -3 -4t-5 -4h-45zM223 317v138h84v-17h-67v-43h55v-16h-55v-47h67 v-15h-84zM260 43v219h139v-39h-100v-49h82v-41h-82v-51h100v-39h-139zM315 604h97v21h-74v47h59v18h-59v45h74v23h-97v-154zM324 438v17h106v-17h-47v-121h-12v121h-47zM406 223v39h165v-39h-59v-180h-43v180h-63zM442 604h23v64h24l39 -56q1 -4 7 -6l24 -2l-47 68q4 0 12 4 q7 3 8 10q9 6 9 12v25q-6 15 -13 20q-5 9 -14 9q-2 4 -7 5t-9 1h-56v-154zM465 688v47h33q3 0 10 -2l6 -4l2 -4l2 -4q3 -1 4 -10q-1 -6 -4 -9l-4 -8q-2 0 -3 -2t-3 -2q-2 -2 -10 -2h-33zM516 317v138h86v-17h-70v-49h60v-12h-60v-60h-16zM541 43l96 219h35l94 -219h-25 q-9 0 -16 4q-2 2 -4 7t-6 9l-13 27h-100l-10 -27q0 -6 -4 -6l-8 -10q-2 0 -3.5 -1t-5.5 -1zM565 633l10 -18h3q7 -7 16.5 -9t19.5 -2h9q5 0 12 2q4 2 9 4t7 5q4 2 7.5 6t4.5 10q2 5 3.5 8.5t1.5 9.5q0 11 -5.5 19t-11.5 14q-2 0 -4 2t-6 4l-4 2h-4q-4 3 -6.5 3.5t-3.5 1.5 q-7 2 -9 3.5t-6 3.5q-6 3 -9 3l-3 22q9 7 12 8l15 2q11 -3 12 -6l6 -2q10 0 14 4l4 2l-6 8q-2 1 -5 4t-7 5q-2 0 -4 2t-6 4h-29q-5 -2 -7.5 -4t-6.5 -4q-2 -5 -6 -8t-7 -7q0 -4 -2 -7t-2 -9q0 -7 4 -17l5 -8l6 -4q2 -2 6 -5t7 -3l8 -5q2 -1 7 -1q1 -2 6 -2t7 -2l6 -2 q5 -4 5.5 -5.5t2.5 -5.5l2 -16q-4 -5 -4 -7.5t-2 -4.5q-1 -3 -7 -5l-3 -1q-4 0 -8 -1t-5 -1q-5 0 -11.5 1.5t-6.5 6.5l-4 2q-4 4 -12 4h-5zM623 129h61l-29 74h-2zM627 371v84h14v-84q0 -6 2 -9.5t6 -5.5q0 -6 3 -9.5t5 -4.5q0 -2 4.5 -4t6.5 -4q6 -2 8 -2h16q9 4 13 6l8 4 q4 1 8 14q4 3 4 15v84h14v-84q0 -10 -3.5 -22t-12.5 -17q-5 -13 -16 -13q-6 -1 -12 -1.5t-11 -0.5t-11 0.5t-14 1.5q-3 0 -16 13l-10 16q-1 6 -3.5 11.5t-2.5 11.5zM684 679q0 -16 6.5 -29t16.5 -25q12 -15 26 -15q12 -6 29 -6h20q6 2 11 4t8 4q12 5 16 13q7 7 12 16 q2 4 5.5 9t3.5 9q1 6 2.5 10.5t1.5 9.5q0 13 -4 23q0 5 -3.5 9t-5.5 10q-2 3 -5 6.5t-7 7.5l-7 6q-2 3 -9 9l-8 4q-2 1 -5 2l-6 2h-41q-11 -4 -18 -8q-4 -5 -8 -8t-8 -7q-12 -9 -13 -14q-4 -6 -5 -10t-3 -9q-1 -5 -1.5 -10.5t-0.5 -12.5zM705 679q0 21 9 32.5t25 21.5 q5 2 12 3t11 1q14 0 22 -4q13 -5 17 -12q6 -2 9 -8t5 -11q4 -7 4 -23q0 -11 -4 -22q-2 -4 -5 -9t-9 -7q-5 -10 -17 -14t-22 -4q-11 0 -23 4q-4 4 -9 7t-9 7q-2 2 -6 7t-6 9q-4 12 -4 22zM768 317v138h16v-123h64v-15h-80zM774 43v219h139v-39h-100v-56h82v-38h-82v-86h-39z M862 317v138h17v-123h63v-15h-80zM870 604h21v125h2l2 -2v-4l86 -119h16v154h-18v-119l-78 113q-4 0 -6 6h-25v-154zM928 154v13q0 4 2 15q5 18 12 25q4 9 8 13.5t8 10.5q7 4 12 8.5t11 10.5l29 10q4 0 11 1t15 1q9 0 16 -1t15 -1q6 -4 13 -6l14 -4l22 -19q4 -6 9 -10.5 t10 -13.5q2 -4 4 -10.5t6 -14.5q2 -11 2 -15v-30q0 -5 -2 -12q-3 -7 -5.5 -15t-4.5 -14q-5 -4 -10 -10t-9 -10q-15 -15 -23 -19.5t-26 -11.5q-4 -1 -7.5 -1.5t-7.5 -0.5h-16q-10 0 -20 2t-23 4q-12 6 -19 12.5t-16 14.5q-16 15 -23 35.5t-7 42.5zM967 139q0 -4 6 -12 q5 -15 13.5 -24t23.5 -17q10 -4 26 -4q19 0 29 4q15 7 20 16q14 5 18.5 22t4.5 30q0 15 -4 24q-4 18 -19 25q-2 6 -8 9t-12 5q-11 6 -29 6q-14 0 -26 -6q-11 -1 -23 -14q-9 -5 -14 -25q-5 -5 -6 -11v-28zM1010 455h5q11 0 15 -9l43 -104v-2h2l2 2q5 14 13 27.5t12 25.5 q4 15 10 27l12 24q0 5 1.5 5t1.5 2l18 2q-7 -17 -15 -34.5t-16 -33.5q-4 -9 -7.5 -18.5t-6.5 -18.5l-15 -33h-16zM1010 1092q0 -61 18.5 -103t56.5 -88q38 -37 87 -58.5t104 -21.5q53 0 102 19t85 59q21 19 35.5 40.5t25.5 43.5q21 54 22 109q0 46 -14.5 87.5t-44.5 77.5 q-14 19 -29.5 32.5t-34.5 25.5q-18 7 -37.5 17.5t-39.5 17.5l-32.5 6.5t-37.5 3.5q-59 0 -107 -25q-49 -17 -84 -57q-36 -36 -55.5 -85.5t-19.5 -100.5zM1014 604h12q7 0 10 2q0 2 6 6l11 27h77l11 -27q1 -4 6 -6q2 -2 8 -2h14l-67 154h-21zM1036 1092q0 19 3 40t12 42 q4 19 14 36t25 33h319l-315 -315q-28 36 -43 76q-9 18 -12 40.5t-3 47.5zM1061 659l29 64v6l2 -2v-4l28 -64h-59zM1114 1271q36 30 74 44q39 18 88 18q47 0 90 -18q17 -9 36 -21t36 -23h-324zM1116 909h322q-17 -14 -36 -26t-36 -19q-23 -6 -45.5 -11t-44.5 -5q-25 0 -46 5 t-42 11q-19 7 -37 19t-35 26zM1141 935l315 318q62 -78 62 -161q0 -23 -3.5 -44.5t-11.5 -41.5q-14 -37 -41 -71h-321zM1155 317v138h84v-17h-68v-43h60v-16h-60v-47h68v-15h-84zM1175 43v219h35q4 0 8.5 -1t4.5 -3q3 -2 5.5 -2t4.5 -2l22 -33q5 -9 10 -17.5t11 -17.5 q14 -14 24.5 -29.5t24.5 -29.5q0 -2 1 -5t1 -7l2 -5v152h38v-219h-36l-100 147l-4 3v2q-5 10 -7.5 12t-5.5 2v-166h-39zM1184 604h86v21h-66v133h-20v-154zM1274 317v138h56q10 -2 14.5 -4.5t9.5 -6.5q0 -2 3 -6t3 -8l2 -20q-3 -17 -6 -21l-6 -4q-2 -2 -7 -4q-3 -3 -12 -4 l47 -60h-15q-10 3 -9 9l-39 51h-28v-60h-13zM1287 389h38q5 0 6 4q4 4 10 4l2 4q5 11 5 17q0 2 -1 3t-1 5q-3 2 -4 3t-1 5q-5 0 -10 4h-44v-49zM1358 666q0 -7 1.5 -17.5t6.5 -15.5q2 -6 10 -12q2 -3 4.5 -6t8.5 -5q2 -2 6 -3t8 -3q4 0 7 -1t9 -1q4 0 7.5 1t11.5 1q2 2 5 3 t7 3q9 6 12 11q3 2 5.5 5t5.5 7q0 4 3 7t3 7v111h-21v-103q0 -3 -2 -8q-1 -7 -10 -12q0 -2 -4 -4t-6 -6l-9 -2h-8q-7 0 -14 2q-5 4 -8.5 6t-5.5 4l-11 12q0 3 -1 7.5t-1 11.5v92h-20v-92zM1389 223v39h165v-39h-65v-180h-39v180h-61zM1389 340l4 2h6q1 0 3.5 -1t4.5 -1 q4 -4 7 -5t5 -3h21q8 0 12 4q1 2 2 3.5t2 3.5q2 2 3 6.5t1 6.5q0 18 -16 23q-3 0 -13 4t-12 6q-10 0 -14 8q-2 0 -4 3l-4 6v23q0 1 2 7q0 9 8 10l6 5l4 2l4 2q4 0 6.5 2t8.5 2l10 -4q3 0 4.5 -1t5.5 -3q6 0 6 -7q5 0 7 -3l1 -3l-2 -2q-6 -2 -10 -2h-6l-25 4q-9 0 -8 -2 q-5 -7 -6 -8q-4 0 -4 -8q0 -5 4 -6q0 -4 4 -7l6 -4q4 -4 7.5 -4t7.5 -2l6 -2q3 0 8 -6h4l6 -2q5 -4 8 -7l5 -5q1 -5 1.5 -9.5t0.5 -9.5v-10q-5 -9 -7.5 -13t-7.5 -7q-2 -2 -6 -4.5t-6 -2.5q-4 -2 -10 -2h-10q-10 0 -17.5 1t-13.5 8q-2 0 -3 3t-5 5v4zM1501 633l8 -10v-2 q7 -5 9 -6q6 -7 14 -9t18 -2h12q3 0 11 2q2 2 6 4t8 5l6 8q3 3 4 8q7 7 7 18t-4.5 19t-12.5 14q-6 5 -6 6h-4l-39 17l-6 6q0 1 -1 3.5t-1 4.5q0 4 4 8q5 4 6.5 6t5.5 2q2 2 10 2l3 -1q5 -2 8 -3l6 -2q6 -2 8 -2q7 0 8 4l6 2q0 2 -3 4t-5 4q0 1 -3 4l-5 5q-3 0 -5.5 2t-6.5 4 h-6l-5 1q-6 0 -10 -0.5t-8 -0.5l-14 -8l-11 -15q-1 -4 -3.5 -7t-2.5 -9q0 -4 2 -8t4 -9q2 -4 4.5 -7t4.5 -5q4 -2 7 -5t7 -3q9 -5 14 -6q4 -2 6.5 -2t6.5 -2q5 0 10.5 -3.5t5.5 -9.5l2 -15q-2 -7 -4 -9l-4 -4q-12 -9 -23 -8q-2 0 -6 1t-6 1q-3 1 -8 6l-3 2q-4 4 -9 4h-7z M1507 317v138h17v-138h-17zM1556 90l7 4l8 2l2 2h10q13 -3 14 -4q5 -4 9 -6t6 -4q2 0 6 -1t10 -1h5q9 2 13 3.5t7 4.5q2 2 4.5 4t3.5 4q2 4 4 7.5t2 7.5q0 6 -6 10q-4 6 -8 6q-2 4 -6.5 5t-7.5 3q-5 0 -13 6q-5 0 -9.5 1t-10.5 6q-10 3 -13.5 6.5l-7.5 7.5q-12 4 -12 14 q-6 12 -6 25q0 19 6 26q1 4 6 11l8 10q4 2 9.5 4t13.5 6q6 0 11 1t13 1q4 0 8.5 -1t10.5 -1l16 -6q3 -4 6.5 -7t7.5 -7q3 -2 7 -5.5t4 -7.5l-14 -8l-21 -4l-6 2q-3 1 -6 4q-2 0 -3.5 1t-4.5 1h-17q-2 0 -3 -1t-5 -3l-7 -6q-1 -3 -1 -10q3 -6 4.5 -9.5t3.5 -7.5h6q9 -2 14 -5 t11 -5l8 -2q5 -4 9.5 -5.5t10.5 -4.5q6 -2 16.5 -13.5t10.5 -17.5q5 -9 6 -20q0 -15 -8 -29l-8 -13q-3 -5 -9 -8q-6 -6 -11 -10t-13 -6q-5 -2 -14 -3t-15 -1q-12 0 -33 4q-10 4 -22 19q-4 1 -6 5l-4 9q-6 2 -7 10zM1556 387v16l11 19q2 2 4.5 6t7.5 8q6 9 12 10q3 5 9 6 t10 3q4 0 8 2t10 2q4 0 10.5 -2t10.5 -2q4 -2 8 -3t8 -6l12 -10l13 -14q2 -4 4 -8.5t4 -10.5q0 -4 1 -9t1 -7q0 -6 -1 -14t-5 -17q-4 -13 -17 -20q-4 -4 -9 -8t-13 -9q-11 -2 -27 -2h-15q-4 0 -11 2q-16 4 -23 17q-12 9 -16 20q-6 15 -7 31zM1573 379q3 -15 8 -23q0 -2 2 -4 t4 -6l6 -4q2 -2 9 -2q2 -4 6 -5t6 -3h28q5 2 8 3t7 5l10 6q2 4 5 6t3 4q2 3 3 8t3 9q0 2 1 6t1 8q0 2 -1 8t-5 12q0 6 -4 10.5t-6 8.5q-3 1 -8 6l-10 6h-43q-4 -4 -9.5 -7t-9.5 -5q-2 -3 -5 -8t-3 -11q-3 -6 -4.5 -12t-1.5 -8v-8zM1628 604h94v21h-71v47h59v18h-59v45h71v23 h-94v-154zM1714 66v4l8 12q7 4 9 4l15 4l9 -8q6 0 6 -6l2 -10q0 -7 -2 -9q0 -4 -6 -10l-24 -4q-4 4 -9 4q0 2 -6 10q-2 2 -2 9zM1724 317v138h19l82 -113v113h14v-138h-12l-82 113v4h-4v-117h-17zM1778 154q0 9 1 14.5t3 13.5q2 17 10 25l9 13.5t9 10.5l25 19l27 10 q5 0 12.5 1t15.5 1h13q4 0 16 -3t16 -5l23 -14q4 -4 7.5 -8.5t6.5 -8.5l-14 -16h-15q-7 0 -14 4q-3 2 -8.5 5t-9.5 5q-9 2 -11 2h-10q-16 0 -28 -6q-16 -2 -23 -14q-7 -7 -14 -25q-2 -4 -4 -10t-2 -14q0 -10 6 -27.5t14 -24.5q10 -10 23 -16q13 -4 28 -4q5 0 10 1t11 1 q3 2 8.5 5t9.5 7q2 0 8 2h13q2 0 8 -2q2 -1 8 -6l6 -8l-6 -8t-8 -8q-6 -3 -11 -6t-12 -7q-5 -3 -16.5 -6.5t-17.5 -3.5h-11q-12 0 -23.5 2t-21.5 4q-21 10 -35 27q-16 15 -22 35q-4 10 -7 20t-3 23zM1810 679q0 -5 2.5 -13.5t6.5 -14.5q5 -16 16 -26q9 -15 25 -15 q12 -6 30 -6h21q3 2 8.5 4t9.5 4q4 3 8.5 6t5.5 7q10 5 15 16l8 18v43q-2 5 -3.5 9.5t-4.5 9.5q-5 6 -15 14q-1 4 -5.5 7t-8.5 8q-2 1 -4.5 2t-5.5 2l-8 4h-41q-5 -2 -10.5 -4t-10.5 -4q-3 -5 -6.5 -8t-7.5 -7q-3 -4 -6.5 -7t-5.5 -7q-2 -6 -5 -10t-3 -9q-5 -11 -5 -23z M1833 679q0 12 6 23q0 5 3 11t7 8q9 9 19.5 12.5t21.5 3.5q13 0 23 -4l18 -12q2 -2 6.5 -8t5.5 -11q4 -7 5 -23q0 -13 -5 -22q-1 -4 -6 -10l-6 -6q-5 -4 -9.5 -7t-8.5 -7q-9 -4 -23 -4q-15 0 -22 4q-5 4 -10 7t-9 7q-3 2 -6.5 7t-3.5 9q-4 6 -5 11.5t-1 10.5zM1942 317v138 h83v-17h-67v-49h55v-12h-55v-60h-16zM1989 154q0 9 1 14.5t1 13.5q3 7 6.5 14t7.5 11q2 9 6 13.5t10 10.5q3 4 10 8.5t13 10.5q4 2 11 4t13 6q11 0 17 1t12 1q10 0 17.5 -1t13.5 -1q6 -4 13 -6t13 -4q14 -11 25 -19q2 -6 8 -10.5t8 -13.5q3 -4 6 -10.5t5 -14.5q4 -7 4 -15 v-30q0 -7 -4 -12q-2 -7 -5 -15t-6 -14q-4 -7 -16 -20l-12 -10t-13 -9q-5 -5 -12.5 -7.5l-13.5 -4.5q-9 -2 -14 -2h-17q-20 0 -43 6q-9 6 -16.5 12.5t-16.5 14.5q-9 6 -14.5 14t-7.5 21q-6 10 -8 20t-2 23zM1997 604h22v121l90 -121h17v154h-21v-119l-2.5 5t-3.5 5l-74 103 l-4 6h-24v-154zM2030 154q0 -9 1 -15t1 -12q9 -17 16 -25q6 -4 11 -8t12 -8q7 -2 14.5 -3t11.5 -1q21 0 29 4q29 11 39 41q5 13 6 27q0 16 -6 24q-3 14 -14 24.5t-25 14.5q-4 4 -11.5 5t-17.5 1q-11 0 -26 -6q-7 -1 -12 -4.5t-11 -9.5q-9 -6 -16 -25q0 -4 -1 -10t-1 -14z M2042 317v138h57q3 0 10 -2q2 -2 5.5 -4.5t4.5 -4.5q4 -2 5.5 -6t7.5 -8v-27q-4 -4 -5 -8t-3 -6l-10 -8q-4 -1 -7.5 -2t-5.5 -2l45 -60h-12q-7 2 -8.5 3.5t-1.5 5.5l-39 51h-27v-60h-16zM2058 389h35q4 1 8 4q4 4 8 4q5 7 5 9q2 4 2 12q0 3 -2 8q0 1 -5 8q-3 0 -8 4h-43v-49 zM2161 387q0 2 1 7t1 9q2 4 3 9.5t5 9.5q2 3 5 6.5t5 7.5q7 5 17 10q3 5 8.5 6t7.5 3q5 0 8.5 2t11.5 2q2 0 7.5 -2t11.5 -2q4 -2 8 -3t6 -6q4 -2 9 -5t8 -5q1 -2 2 -3.5t2 -3.5l4 -7q6 -11 8 -19q2 -4 3 -9t1 -7q0 -6 -1 -14t-5 -17q0 -6 -6 -11l-8 -9q-6 -4 -12.5 -8 t-12.5 -9q-9 -2 -13 -2h-29q-4 0 -13 2q-12 4 -23 17q-7 7 -14 20q-2 9 -4 17t-2 14zM2163 604h90v21h-68v133h-22v-154zM2179 373q0 -4 1 -9t5 -8l4 -4q3 -3 4 -6l6 -4q7 -5 11.5 -6.5t7.5 -3.5h31l6 3q5 4 9.5 6t8.5 5l3 6q3 6 6.5 11.5t3.5 9.5v34q-2 6 -6.5 10.5 t-6.5 8.5q-6 2 -10 5t-8 7h-43q-6 -4 -10 -7t-9 -5q-7 -5 -12 -19q-2 -9 -2 -12v-22zM2228 758l58 -76v-3l4 -3v-72h21v70l5 5v3l58 76h-19q-5 0 -9.5 -4t-4.5 -9l-37 -47h-4l-39 47q-3 14 -16 13h-17zM2236 43v219h39q5 0 7 -1t4 -1q2 -2 3 -2t3 -2l8 -4q0 -2 2 -4t2 -4 q4 -17 11 -32t16 -34q6 -16 12 -32.5t12 -30.5v-13l6 13l9 14l45 115l4 8l6 4q2 2 4 2t4 2l1 1l44 1v-219h-37v160l-6 -10v-6q-9 -19 -15.5 -38.5t-15.5 -33.5q-6 -19 -12 -35.5t-14 -36.5h-37l-55 139q-5 3 -5 11l-4 6v-156h-41zM2333 317v138h14l8 -4v-5l49 -106l3 -2v4 q0 1 8 6l40 98q2 5 3.5 5t1.5 2l18 2v-138h-12v113l-2 -2v-2q-4 -7 -7 -17t-8 -14q-4 -7 -6 -13.5t-8 -14.5q-2 -9 -3 -15t-5 -10q-3 -9 -6.5 -13.5t-5.5 -11.5h-15q-10 13 -15 26t-11 28q-4 12 -11.5 26.5t-11.5 28.5v2h-4v-111h-14z" />
<glyph unicode="'" horiz-adv-x="625" d="M149 1078q0 -16 4.5 -30t28.5 -14h177q18 0 27.5 8.5t9.5 30.5v402q0 15 -6 30.5t-34 15.5h-162q-45 0 -45 -46v-397z" />
<glyph unicode="(" horiz-adv-x="823" d="M135 765q0 -118 13.5 -252.5t48 -275.5t94.5 -282.5t152 -273.5q15 -21 33 -21q13 0 26 9l253 158q18 12 20.5 27.5t-9.5 31.5q-47 65 -83.5 144.5t-63.5 165t-45.5 170.5t-30.5 161.5t-16.5 138t-4.5 99.5t5 99.5t16.5 137t30 160.5t45.5 170t63.5 164t83.5 143 q12 16 9.5 31.5t-20.5 27.5l-253 158q-14 10 -26 10q-18 0 -33 -22q-92 -132 -152 -273t-94.5 -280.5t-48 -273.5t-13.5 -252z" />
<glyph unicode=")" horiz-adv-x="825" d="M26.5 -145.5q-2.5 15.5 9.5 31.5q47 65 83.5 144.5t63.5 165t45.5 170.5t30.5 161.5t16.5 138t4.5 99.5t-5 99.5t-16.5 137t-30 160.5t-45.5 170t-63.5 164t-83.5 143q-12 16 -9.5 31.5t20.5 27.5l253 158q14 10 26 10q18 0 33 -22q92 -132 152 -273t94.5 -280.5 t48 -273.5t13.5 -252t-13.5 -252.5t-48 -275.5t-94.5 -282.5t-152 -273.5q-15 -21 -33 -21q-13 0 -26 9l-253 158q-18 12 -20.5 27.5z" />
<glyph unicode="*" horiz-adv-x="1005" d="M102 502q0 -17 11.5 -25t19.5 -7l174 27l-109 -140q-9 -12 -3 -25t18 -21l180 -104q7 -4 16 -4q10 0 17 4.5t9 10.5l67 170l63 -165q6 -17 27 -17q10 0 18 4l181 106q13 7 18 19t-5 23l-104 137l174 -28q33 0 33 33v210q-2 32 -31 32l-181 -23l114 139q9 11 5 23.5 t-17 20.5l-183 105q-10 6 -20 6q-16 0 -22 -17l-69 -162l-67 167q-6 16 -26 16q-10 0 -21 -6l-179 -103q-15 -9 -16.5 -23t3.5 -20l116 -145l-178 26q-15 0 -23.5 -10.5t-8.5 -25.5z" />
<glyph unicode="+" horiz-adv-x="921" d="M65 498q0 -17 11 -24.5t20 -7.5h204v-213q0 -15 9.5 -24t24.5 -9h253q17 0 24.5 11t7.5 20v215h203q14 0 23.5 8.5t9.5 23.5v234q0 15 -8 23.5t-22 8.5h-206v213q0 14 -8.5 23.5t-23.5 9.5h-255q-15 0 -23.5 -8t-8.5 -23v-215h-202q-15 0 -24 -9.5t-9 -24.5v-232z" />
<glyph unicode="," horiz-adv-x="625" d="M140 56q0 -28 13.5 -41t35.5 -13h65q12 0 14.5 -9t2.5 -13q0 -48 -19.5 -83t-49.5 -63q-4 -4 -11 -10t-10 -14t-2 -16.5t12 -17.5l93 -91q14 -11 23 -11t16 5.5t14 11.5q22 19 51.5 50t55 79t43 115.5t17.5 158.5v182q0 59 -56 58h-255q-21 0 -37 -12t-16 -50v-216z" />
<glyph unicode="-" horiz-adv-x="1126" d="M170 518q0 -27 17.5 -39.5t34.5 -12.5h679q26 0 43 13t17 39v199q0 54 -53 54h-686q-18 0 -35 -15t-17 -43v-195z" />
<glyph unicode="." horiz-adv-x="625" d="M140 41q0 -13 4.5 -21t11.5 -12.5t14 -6t10 -1.5h284q3 0 10 1.5t14 6t12.5 12.5t5.5 21v262q0 4 -2 11t-6 14t-12.5 12t-21.5 5h-284q-15 0 -27.5 -10.5t-12.5 -32.5v-261z" />
<glyph unicode="/" horiz-adv-x="1130" d="M37.5 13q-5.5 13 3.5 32l642 1430q21 46 65 46h305q45 0 26 -46l-640 -1430q-19 -45 -66 -45h-308q-22 0 -27.5 13z" />
<glyph unicode="0" d="M66 43v14q0 10 2 11q0 2 6 8v4l2 4l4 4t2 6l94 129h-102v39h159v-24l-8 -15l-106 -143h2l2 2h108v-39h-165zM66 387q0 6 4 16q1 4 2.5 9.5t5.5 9.5l9 14q2 2 6.5 5t6.5 5q5 5 10 6t9 3q3 0 8.5 2t11.5 2q16 0 27 -8q14 -4 22 -15l-5 -6h-13q-3 2 -6.5 5t-7.5 3h-37 l-21 -12q-4 -3 -7.5 -7.5t-4.5 -11.5q-2 -6 -3 -12t-1 -8q0 -10 4 -14q0 -4 0.5 -9t0.5 -8l5 -4q5 -1 6 -6l8 -5q2 -1 7 -1q2 -4 5 -5t7 -3h33q2 2 7 3t9 5v29h-14v2l-6 4h-3l-1 8h38v-51q-2 -5 -4 -6.5t-6 -6.5h-12q-9 -2 -12 -2h-35q-5 0 -19 9q-7 0 -13 10l-9 14 q-4 4 -5.5 8t-2.5 9q-2 6 -3 10t-1 10zM74 506v586h911q0 30 5 59t20 53q12 29 26.5 52.5t36.5 41.5q38 42 92 62q27 12 54.5 17t56.5 5q33 0 61.5 -6t53.5 -16q59 -29 94.5 -64.5t62.5 -95.5q19 -52 19 -108h911v-586h-2404zM199 604h18v58h35q4 0 10 0.5t8 3.5q11 4 15 10 q4 2 7 6t3 8q5 13 6 19q0 10 -6 20q0 2 -4 6l-6 6q-2 3 -5.5 7t-9.5 4q-2 4 -8 5t-10 1h-53v-154zM217 682v53h35q4 0 10 -2l8 -4q2 -1 3 -4.5t3 -5.5q3 -4 3 -10v-4q0 -2 -3 -7q-2 -2 -3 -5t-3 -3q-1 -2 -3 -4t-5 -4h-45zM223 317v138h84v-17h-67v-43h55v-16h-55v-47h67 v-15h-84zM260 43v219h139v-39h-100v-49h82v-41h-82v-51h100v-39h-139zM315 604h97v21h-74v47h59v18h-59v45h74v23h-97v-154zM324 438v17h106v-17h-47v-121h-12v121h-47zM406 223v39h165v-39h-59v-180h-43v180h-63zM442 604h23v64h24l39 -56q1 -4 7 -6l24 -2l-47 68q4 0 12 4 q7 3 8 10q9 6 9 12v25q-6 15 -13 20q-5 9 -14 9q-2 4 -7 5t-9 1h-56v-154zM465 688v47h33q3 0 10 -2l6 -4l2 -4l2 -4q3 -1 4 -10q-1 -6 -4 -9l-4 -8q-2 0 -3 -2t-3 -2q-2 -2 -10 -2h-33zM516 317v138h86v-17h-70v-49h60v-12h-60v-60h-16zM541 43l96 219h35l94 -219h-25 q-9 0 -16 4q-2 2 -4 7t-6 9l-13 27h-100l-10 -27q0 -6 -4 -6l-8 -10q-2 0 -3.5 -1t-5.5 -1zM565 633l10 -18h3q7 -7 16.5 -9t19.5 -2h9q5 0 12 2q4 2 9 4t7 5q4 2 7.5 6t4.5 10q2 5 3.5 8.5t1.5 9.5q0 11 -5.5 19t-11.5 14q-2 0 -4 2t-6 4l-4 2h-4q-4 3 -6.5 3.5t-3.5 1.5 q-7 2 -9 3.5t-6 3.5q-6 3 -9 3l-3 22q9 7 12 8l15 2q11 -3 12 -6l6 -2q10 0 14 4l4 2l-6 8q-2 1 -5 4t-7 5q-2 0 -4 2t-6 4h-29q-5 -2 -7.5 -4t-6.5 -4q-2 -5 -6 -8t-7 -7q0 -4 -2 -7t-2 -9q0 -7 4 -17l5 -8l6 -4q2 -2 6 -5t7 -3l8 -5q2 -1 7 -1q1 -2 6 -2t7 -2l6 -2 q5 -4 5.5 -5.5t2.5 -5.5l2 -16q-4 -5 -4 -7.5t-2 -4.5q-1 -3 -7 -5l-3 -1q-4 0 -8 -1t-5 -1q-5 0 -11.5 1.5t-6.5 6.5l-4 2q-4 4 -12 4h-5zM623 129h61l-29 74h-2zM627 371v84h14v-84q0 -6 2 -9.5t6 -5.5q0 -6 3 -9.5t5 -4.5q0 -2 4.5 -4t6.5 -4q6 -2 8 -2h16q9 4 13 6l8 4 q4 1 8 14q4 3 4 15v84h14v-84q0 -10 -3.5 -22t-12.5 -17q-5 -13 -16 -13q-6 -1 -12 -1.5t-11 -0.5t-11 0.5t-14 1.5q-3 0 -16 13l-10 16q-1 6 -3.5 11.5t-2.5 11.5zM684 679q0 -16 6.5 -29t16.5 -25q12 -15 26 -15q12 -6 29 -6h20q6 2 11 4t8 4q12 5 16 13q7 7 12 16 q2 4 5.5 9t3.5 9q1 6 2.5 10.5t1.5 9.5q0 13 -4 23q0 5 -3.5 9t-5.5 10q-2 3 -5 6.5t-7 7.5l-7 6q-2 3 -9 9l-8 4q-2 1 -5 2l-6 2h-41q-11 -4 -18 -8q-4 -5 -8 -8t-8 -7q-12 -9 -13 -14q-4 -6 -5 -10t-3 -9q-1 -5 -1.5 -10.5t-0.5 -12.5zM705 679q0 21 9 32.5t25 21.5 q5 2 12 3t11 1q14 0 22 -4q13 -5 17 -12q6 -2 9 -8t5 -11q4 -7 4 -23q0 -11 -4 -22q-2 -4 -5 -9t-9 -7q-5 -10 -17 -14t-22 -4q-11 0 -23 4q-4 4 -9 7t-9 7q-2 2 -6 7t-6 9q-4 12 -4 22zM768 317v138h16v-123h64v-15h-80zM774 43v219h139v-39h-100v-56h82v-38h-82v-86h-39z M862 317v138h17v-123h63v-15h-80zM870 604h21v125h2l2 -2v-4l86 -119h16v154h-18v-119l-78 113q-4 0 -6 6h-25v-154zM928 154v13q0 4 2 15q5 18 12 25q4 9 8 13.5t8 10.5q7 4 12 8.5t11 10.5l29 10q4 0 11 1t15 1q9 0 16 -1t15 -1q6 -4 13 -6l14 -4l22 -19q4 -6 9 -10.5 t10 -13.5q2 -4 4 -10.5t6 -14.5q2 -11 2 -15v-30q0 -5 -2 -12q-3 -7 -5.5 -15t-4.5 -14q-5 -4 -10 -10t-9 -10q-15 -15 -23 -19.5t-26 -11.5q-4 -1 -7.5 -1.5t-7.5 -0.5h-16q-10 0 -20 2t-23 4q-12 6 -19 12.5t-16 14.5q-16 15 -23 35.5t-7 42.5zM967 139q0 -4 6 -12 q5 -15 13.5 -24t23.5 -17q10 -4 26 -4q19 0 29 4q15 7 20 16q14 5 18.5 22t4.5 30q0 15 -4 24q-4 18 -19 25q-2 6 -8 9t-12 5q-11 6 -29 6q-14 0 -26 -6q-11 -1 -23 -14q-9 -5 -14 -25q-5 -5 -6 -11v-28zM1010 455h5q11 0 15 -9l43 -104v-2h2l2 2q5 14 13 27.5t12 25.5 q4 15 10 27l12 24q0 5 1.5 5t1.5 2l18 2q-7 -17 -15 -34.5t-16 -33.5q-4 -9 -7.5 -18.5t-6.5 -18.5l-15 -33h-16zM1010 1092q0 -61 18.5 -103t56.5 -88q38 -37 87 -58.5t104 -21.5q53 0 102 19t85 59q21 19 35.5 40.5t25.5 43.5q21 54 22 109q0 46 -14.5 87.5t-44.5 77.5 q-14 19 -29.5 32.5t-34.5 25.5q-18 7 -37.5 17.5t-39.5 17.5l-32.5 6.5t-37.5 3.5q-59 0 -107 -25q-49 -17 -84 -57q-36 -36 -55.5 -85.5t-19.5 -100.5zM1014 604h12q7 0 10 2q0 2 6 6l11 27h77l11 -27q1 -4 6 -6q2 -2 8 -2h14l-67 154h-21zM1036 1092q0 19 3 40t12 42 q4 19 14 36t25 33h319l-315 -315q-28 36 -43 76q-9 18 -12 40.5t-3 47.5zM1061 659l29 64v6l2 -2v-4l28 -64h-59zM1114 1271q36 30 74 44q39 18 88 18q47 0 90 -18q17 -9 36 -21t36 -23h-324zM1116 909h322q-17 -14 -36 -26t-36 -19q-23 -6 -45.5 -11t-44.5 -5q-25 0 -46 5 t-42 11q-19 7 -37 19t-35 26zM1141 935l315 318q62 -78 62 -161q0 -23 -3.5 -44.5t-11.5 -41.5q-14 -37 -41 -71h-321zM1155 317v138h84v-17h-68v-43h60v-16h-60v-47h68v-15h-84zM1175 43v219h35q4 0 8.5 -1t4.5 -3q3 -2 5.5 -2t4.5 -2l22 -33q5 -9 10 -17.5t11 -17.5 q14 -14 24.5 -29.5t24.5 -29.5q0 -2 1 -5t1 -7l2 -5v152h38v-219h-36l-100 147l-4 3v2q-5 10 -7.5 12t-5.5 2v-166h-39zM1184 604h86v21h-66v133h-20v-154zM1274 317v138h56q10 -2 14.5 -4.5t9.5 -6.5q0 -2 3 -6t3 -8l2 -20q-3 -17 -6 -21l-6 -4q-2 -2 -7 -4q-3 -3 -12 -4 l47 -60h-15q-10 3 -9 9l-39 51h-28v-60h-13zM1287 389h38q5 0 6 4q4 4 10 4l2 4q5 11 5 17q0 2 -1 3t-1 5q-3 2 -4 3t-1 5q-5 0 -10 4h-44v-49zM1358 666q0 -7 1.5 -17.5t6.5 -15.5q2 -6 10 -12q2 -3 4.5 -6t8.5 -5q2 -2 6 -3t8 -3q4 0 7 -1t9 -1q4 0 7.5 1t11.5 1q2 2 5 3 t7 3q9 6 12 11q3 2 5.5 5t5.5 7q0 4 3 7t3 7v111h-21v-103q0 -3 -2 -8q-1 -7 -10 -12q0 -2 -4 -4t-6 -6l-9 -2h-8q-7 0 -14 2q-5 4 -8.5 6t-5.5 4l-11 12q0 3 -1 7.5t-1 11.5v92h-20v-92zM1389 223v39h165v-39h-65v-180h-39v180h-61zM1389 340l4 2h6q1 0 3.5 -1t4.5 -1 q4 -4 7 -5t5 -3h21q8 0 12 4q1 2 2 3.5t2 3.5q2 2 3 6.5t1 6.5q0 18 -16 23q-3 0 -13 4t-12 6q-10 0 -14 8q-2 0 -4 3l-4 6v23q0 1 2 7q0 9 8 10l6 5l4 2l4 2q4 0 6.5 2t8.5 2l10 -4q3 0 4.5 -1t5.5 -3q6 0 6 -7q5 0 7 -3l1 -3l-2 -2q-6 -2 -10 -2h-6l-25 4q-9 0 -8 -2 q-5 -7 -6 -8q-4 0 -4 -8q0 -5 4 -6q0 -4 4 -7l6 -4q4 -4 7.5 -4t7.5 -2l6 -2q3 0 8 -6h4l6 -2q5 -4 8 -7l5 -5q1 -5 1.5 -9.5t0.5 -9.5v-10q-5 -9 -7.5 -13t-7.5 -7q-2 -2 -6 -4.5t-6 -2.5q-4 -2 -10 -2h-10q-10 0 -17.5 1t-13.5 8q-2 0 -3 3t-5 5v4zM1501 633l8 -10v-2 q7 -5 9 -6q6 -7 14 -9t18 -2h12q3 0 11 2q2 2 6 4t8 5l6 8q3 3 4 8q7 7 7 18t-4.5 19t-12.5 14q-6 5 -6 6h-4l-39 17l-6 6q0 1 -1 3.5t-1 4.5q0 4 4 8q5 4 6.5 6t5.5 2q2 2 10 2l3 -1q5 -2 8 -3l6 -2q6 -2 8 -2q7 0 8 4l6 2q0 2 -3 4t-5 4q0 1 -3 4l-5 5q-3 0 -5.5 2t-6.5 4 h-6l-5 1q-6 0 -10 -0.5t-8 -0.5l-14 -8l-11 -15q-1 -4 -3.5 -7t-2.5 -9q0 -4 2 -8t4 -9q2 -4 4.5 -7t4.5 -5q4 -2 7 -5t7 -3q9 -5 14 -6q4 -2 6.5 -2t6.5 -2q5 0 10.5 -3.5t5.5 -9.5l2 -15q-2 -7 -4 -9l-4 -4q-12 -9 -23 -8q-2 0 -6 1t-6 1q-3 1 -8 6l-3 2q-4 4 -9 4h-7z M1507 317v138h17v-138h-17zM1556 90l7 4l8 2l2 2h10q13 -3 14 -4q5 -4 9 -6t6 -4q2 0 6 -1t10 -1h5q9 2 13 3.5t7 4.5q2 2 4.5 4t3.5 4q2 4 4 7.5t2 7.5q0 6 -6 10q-4 6 -8 6q-2 4 -6.5 5t-7.5 3q-5 0 -13 6q-5 0 -9.5 1t-10.5 6q-10 3 -13.5 6.5l-7.5 7.5q-12 4 -12 14 q-6 12 -6 25q0 19 6 26q1 4 6 11l8 10q4 2 9.5 4t13.5 6q6 0 11 1t13 1q4 0 8.5 -1t10.5 -1l16 -6q3 -4 6.5 -7t7.5 -7q3 -2 7 -5.5t4 -7.5l-14 -8l-21 -4l-6 2q-3 1 -6 4q-2 0 -3.5 1t-4.5 1h-17q-2 0 -3 -1t-5 -3l-7 -6q-1 -3 -1 -10q3 -6 4.5 -9.5t3.5 -7.5h6q9 -2 14 -5 t11 -5l8 -2q5 -4 9.5 -5.5t10.5 -4.5q6 -2 16.5 -13.5t10.5 -17.5q5 -9 6 -20q0 -15 -8 -29l-8 -13q-3 -5 -9 -8q-6 -6 -11 -10t-13 -6q-5 -2 -14 -3t-15 -1q-12 0 -33 4q-10 4 -22 19q-4 1 -6 5l-4 9q-6 2 -7 10zM1556 387v16l11 19q2 2 4.5 6t7.5 8q6 9 12 10q3 5 9 6 t10 3q4 0 8 2t10 2q4 0 10.5 -2t10.5 -2q4 -2 8 -3t8 -6l12 -10l13 -14q2 -4 4 -8.5t4 -10.5q0 -4 1 -9t1 -7q0 -6 -1 -14t-5 -17q-4 -13 -17 -20q-4 -4 -9 -8t-13 -9q-11 -2 -27 -2h-15q-4 0 -11 2q-16 4 -23 17q-12 9 -16 20q-6 15 -7 31zM1573 379q3 -15 8 -23q0 -2 2 -4 t4 -6l6 -4q2 -2 9 -2q2 -4 6 -5t6 -3h28q5 2 8 3t7 5l10 6q2 4 5 6t3 4q2 3 3 8t3 9q0 2 1 6t1 8q0 2 -1 8t-5 12q0 6 -4 10.5t-6 8.5q-3 1 -8 6l-10 6h-43q-4 -4 -9.5 -7t-9.5 -5q-2 -3 -5 -8t-3 -11q-3 -6 -4.5 -12t-1.5 -8v-8zM1628 604h94v21h-71v47h59v18h-59v45h71v23 h-94v-154zM1714 66v4l8 12q7 4 9 4l15 4l9 -8q6 0 6 -6l2 -10q0 -7 -2 -9q0 -4 -6 -10l-24 -4q-4 4 -9 4q0 2 -6 10q-2 2 -2 9zM1724 317v138h19l82 -113v113h14v-138h-12l-82 113v4h-4v-117h-17zM1778 154q0 9 1 14.5t3 13.5q2 17 10 25l9 13.5t9 10.5l25 19l27 10 q5 0 12.5 1t15.5 1h13q4 0 16 -3t16 -5l23 -14q4 -4 7.5 -8.5t6.5 -8.5l-14 -16h-15q-7 0 -14 4q-3 2 -8.5 5t-9.5 5q-9 2 -11 2h-10q-16 0 -28 -6q-16 -2 -23 -14q-7 -7 -14 -25q-2 -4 -4 -10t-2 -14q0 -10 6 -27.5t14 -24.5q10 -10 23 -16q13 -4 28 -4q5 0 10 1t11 1 q3 2 8.5 5t9.5 7q2 0 8 2h13q2 0 8 -2q2 -1 8 -6l6 -8l-6 -8t-8 -8q-6 -3 -11 -6t-12 -7q-5 -3 -16.5 -6.5t-17.5 -3.5h-11q-12 0 -23.5 2t-21.5 4q-21 10 -35 27q-16 15 -22 35q-4 10 -7 20t-3 23zM1810 679q0 -5 2.5 -13.5t6.5 -14.5q5 -16 16 -26q9 -15 25 -15 q12 -6 30 -6h21q3 2 8.5 4t9.5 4q4 3 8.5 6t5.5 7q10 5 15 16l8 18v43q-2 5 -3.5 9.5t-4.5 9.5q-5 6 -15 14q-1 4 -5.5 7t-8.5 8q-2 1 -4.5 2t-5.5 2l-8 4h-41q-5 -2 -10.5 -4t-10.5 -4q-3 -5 -6.5 -8t-7.5 -7q-3 -4 -6.5 -7t-5.5 -7q-2 -6 -5 -10t-3 -9q-5 -11 -5 -23z M1833 679q0 12 6 23q0 5 3 11t7 8q9 9 19.5 12.5t21.5 3.5q13 0 23 -4l18 -12q2 -2 6.5 -8t5.5 -11q4 -7 5 -23q0 -13 -5 -22q-1 -4 -6 -10l-6 -6q-5 -4 -9.5 -7t-8.5 -7q-9 -4 -23 -4q-15 0 -22 4q-5 4 -10 7t-9 7q-3 2 -6.5 7t-3.5 9q-4 6 -5 11.5t-1 10.5zM1942 317v138 h83v-17h-67v-49h55v-12h-55v-60h-16zM1989 154q0 9 1 14.5t1 13.5q3 7 6.5 14t7.5 11q2 9 6 13.5t10 10.5q3 4 10 8.5t13 10.5q4 2 11 4t13 6q11 0 17 1t12 1q10 0 17.5 -1t13.5 -1q6 -4 13 -6t13 -4q14 -11 25 -19q2 -6 8 -10.5t8 -13.5q3 -4 6 -10.5t5 -14.5q4 -7 4 -15 v-30q0 -7 -4 -12q-2 -7 -5 -15t-6 -14q-4 -7 -16 -20l-12 -10t-13 -9q-5 -5 -12.5 -7.5l-13.5 -4.5q-9 -2 -14 -2h-17q-20 0 -43 6q-9 6 -16.5 12.5t-16.5 14.5q-9 6 -14.5 14t-7.5 21q-6 10 -8 20t-2 23zM1997 604h22v121l90 -121h17v154h-21v-119l-2.5 5t-3.5 5l-74 103 l-4 6h-24v-154zM2030 154q0 -9 1 -15t1 -12q9 -17 16 -25q6 -4 11 -8t12 -8q7 -2 14.5 -3t11.5 -1q21 0 29 4q29 11 39 41q5 13 6 27q0 16 -6 24q-3 14 -14 24.5t-25 14.5q-4 4 -11.5 5t-17.5 1q-11 0 -26 -6q-7 -1 -12 -4.5t-11 -9.5q-9 -6 -16 -25q0 -4 -1 -10t-1 -14z M2042 317v138h57q3 0 10 -2q2 -2 5.5 -4.5t4.5 -4.5q4 -2 5.5 -6t7.5 -8v-27q-4 -4 -5 -8t-3 -6l-10 -8q-4 -1 -7.5 -2t-5.5 -2l45 -60h-12q-7 2 -8.5 3.5t-1.5 5.5l-39 51h-27v-60h-16zM2058 389h35q4 1 8 4q4 4 8 4q5 7 5 9q2 4 2 12q0 3 -2 8q0 1 -5 8q-3 0 -8 4h-43v-49 zM2161 387q0 2 1 7t1 9q2 4 3 9.5t5 9.5q2 3 5 6.5t5 7.5q7 5 17 10q3 5 8.5 6t7.5 3q5 0 8.5 2t11.5 2q2 0 7.5 -2t11.5 -2q4 -2 8 -3t6 -6q4 -2 9 -5t8 -5q1 -2 2 -3.5t2 -3.5l4 -7q6 -11 8 -19q2 -4 3 -9t1 -7q0 -6 -1 -14t-5 -17q0 -6 -6 -11l-8 -9q-6 -4 -12.5 -8 t-12.5 -9q-9 -2 -13 -2h-29q-4 0 -13 2q-12 4 -23 17q-7 7 -14 20q-2 9 -4 17t-2 14zM2163 604h90v21h-68v133h-22v-154zM2179 373q0 -4 1 -9t5 -8l4 -4q3 -3 4 -6l6 -4q7 -5 11.5 -6.5t7.5 -3.5h31l6 3q5 4 9.5 6t8.5 5l3 6q3 6 6.5 11.5t3.5 9.5v34q-2 6 -6.5 10.5 t-6.5 8.5q-6 2 -10 5t-8 7h-43q-6 -4 -10 -7t-9 -5q-7 -5 -12 -19q-2 -9 -2 -12v-22zM2228 758l58 -76v-3l4 -3v-72h21v70l5 5v3l58 76h-19q-5 0 -9.5 -4t-4.5 -9l-37 -47h-4l-39 47q-3 14 -16 13h-17zM2236 43v219h39q5 0 7 -1t4 -1q2 -2 3 -2t3 -2l8 -4q0 -2 2 -4t2 -4 q4 -17 11 -32t16 -34q6 -16 12 -32.5t12 -30.5v-13l6 13l9 14l45 115l4 8l6 4q2 2 4 2t4 2l1 1l44 1v-219h-37v160l-6 -10v-6q-9 -19 -15.5 -38.5t-15.5 -33.5q-6 -19 -12 -35.5t-14 -36.5h-37l-55 139q-5 3 -5 11l-4 6v-156h-41zM2333 317v138h14l8 -4v-5l49 -106l3 -2v4 q0 1 8 6l40 98q2 5 3.5 5t1.5 2l18 2v-138h-12v113l-2 -2v-2q-4 -7 -7 -17t-8 -14q-4 -7 -6 -13.5t-8 -14.5q-2 -9 -3 -15t-5 -10q-3 -9 -6.5 -13.5t-5.5 -11.5h-15q-10 13 -15 26t-11 28q-4 12 -11.5 26.5t-11.5 28.5v2h-4v-111h-14z" />
<glyph unicode="1" d="M66 43v14q0 10 2 11q0 2 6 8v4l2 4l4 4t2 6l94 129h-102v39h159v-24l-8 -15l-106 -143h2l2 2h108v-39h-165zM66 387q0 6 4 16q1 4 2.5 9.5t5.5 9.5l9 14q2 2 6.5 5t6.5 5q5 5 10 6t9 3q3 0 8.5 2t11.5 2q16 0 27 -8q14 -4 22 -15l-5 -6h-13q-3 2 -6.5 5t-7.5 3h-37 l-21 -12q-4 -3 -7.5 -7.5t-4.5 -11.5q-2 -6 -3 -12t-1 -8q0 -10 4 -14q0 -4 0.5 -9t0.5 -8l5 -4q5 -1 6 -6l8 -5q2 -1 7 -1q2 -4 5 -5t7 -3h33q2 2 7 3t9 5v29h-14v2l-6 4h-3l-1 8h38v-51q-2 -5 -4 -6.5t-6 -6.5h-12q-9 -2 -12 -2h-35q-5 0 -19 9q-7 0 -13 10l-9 14 q-4 4 -5.5 8t-2.5 9q-2 6 -3 10t-1 10zM74 506v586h911q0 30 5 59t20 53q12 29 26.5 52.5t36.5 41.5q38 42 92 62q27 12 54.5 17t56.5 5q33 0 61.5 -6t53.5 -16q59 -29 94.5 -64.5t62.5 -95.5q19 -52 19 -108h911v-586h-2404zM199 604h18v58h35q4 0 10 0.5t8 3.5q11 4 15 10 q4 2 7 6t3 8q5 13 6 19q0 10 -6 20q0 2 -4 6l-6 6q-2 3 -5.5 7t-9.5 4q-2 4 -8 5t-10 1h-53v-154zM217 682v53h35q4 0 10 -2l8 -4q2 -1 3 -4.5t3 -5.5q3 -4 3 -10v-4q0 -2 -3 -7q-2 -2 -3 -5t-3 -3q-1 -2 -3 -4t-5 -4h-45zM223 317v138h84v-17h-67v-43h55v-16h-55v-47h67 v-15h-84zM260 43v219h139v-39h-100v-49h82v-41h-82v-51h100v-39h-139zM315 604h97v21h-74v47h59v18h-59v45h74v23h-97v-154zM324 438v17h106v-17h-47v-121h-12v121h-47zM406 223v39h165v-39h-59v-180h-43v180h-63zM442 604h23v64h24l39 -56q1 -4 7 -6l24 -2l-47 68q4 0 12 4 q7 3 8 10q9 6 9 12v25q-6 15 -13 20q-5 9 -14 9q-2 4 -7 5t-9 1h-56v-154zM465 688v47h33q3 0 10 -2l6 -4l2 -4l2 -4q3 -1 4 -10q-1 -6 -4 -9l-4 -8q-2 0 -3 -2t-3 -2q-2 -2 -10 -2h-33zM516 317v138h86v-17h-70v-49h60v-12h-60v-60h-16zM541 43l96 219h35l94 -219h-25 q-9 0 -16 4q-2 2 -4 7t-6 9l-13 27h-100l-10 -27q0 -6 -4 -6l-8 -10q-2 0 -3.5 -1t-5.5 -1zM565 633l10 -18h3q7 -7 16.5 -9t19.5 -2h9q5 0 12 2q4 2 9 4t7 5q4 2 7.5 6t4.5 10q2 5 3.5 8.5t1.5 9.5q0 11 -5.5 19t-11.5 14q-2 0 -4 2t-6 4l-4 2h-4q-4 3 -6.5 3.5t-3.5 1.5 q-7 2 -9 3.5t-6 3.5q-6 3 -9 3l-3 22q9 7 12 8l15 2q11 -3 12 -6l6 -2q10 0 14 4l4 2l-6 8q-2 1 -5 4t-7 5q-2 0 -4 2t-6 4h-29q-5 -2 -7.5 -4t-6.5 -4q-2 -5 -6 -8t-7 -7q0 -4 -2 -7t-2 -9q0 -7 4 -17l5 -8l6 -4q2 -2 6 -5t7 -3l8 -5q2 -1 7 -1q1 -2 6 -2t7 -2l6 -2 q5 -4 5.5 -5.5t2.5 -5.5l2 -16q-4 -5 -4 -7.5t-2 -4.5q-1 -3 -7 -5l-3 -1q-4 0 -8 -1t-5 -1q-5 0 -11.5 1.5t-6.5 6.5l-4 2q-4 4 -12 4h-5zM623 129h61l-29 74h-2zM627 371v84h14v-84q0 -6 2 -9.5t6 -5.5q0 -6 3 -9.5t5 -4.5q0 -2 4.5 -4t6.5 -4q6 -2 8 -2h16q9 4 13 6l8 4 q4 1 8 14q4 3 4 15v84h14v-84q0 -10 -3.5 -22t-12.5 -17q-5 -13 -16 -13q-6 -1 -12 -1.5t-11 -0.5t-11 0.5t-14 1.5q-3 0 -16 13l-10 16q-1 6 -3.5 11.5t-2.5 11.5zM684 679q0 -16 6.5 -29t16.5 -25q12 -15 26 -15q12 -6 29 -6h20q6 2 11 4t8 4q12 5 16 13q7 7 12 16 q2 4 5.5 9t3.5 9q1 6 2.5 10.5t1.5 9.5q0 13 -4 23q0 5 -3.5 9t-5.5 10q-2 3 -5 6.5t-7 7.5l-7 6q-2 3 -9 9l-8 4q-2 1 -5 2l-6 2h-41q-11 -4 -18 -8q-4 -5 -8 -8t-8 -7q-12 -9 -13 -14q-4 -6 -5 -10t-3 -9q-1 -5 -1.5 -10.5t-0.5 -12.5zM705 679q0 21 9 32.5t25 21.5 q5 2 12 3t11 1q14 0 22 -4q13 -5 17 -12q6 -2 9 -8t5 -11q4 -7 4 -23q0 -11 -4 -22q-2 -4 -5 -9t-9 -7q-5 -10 -17 -14t-22 -4q-11 0 -23 4q-4 4 -9 7t-9 7q-2 2 -6 7t-6 9q-4 12 -4 22zM768 317v138h16v-123h64v-15h-80zM774 43v219h139v-39h-100v-56h82v-38h-82v-86h-39z M862 317v138h17v-123h63v-15h-80zM870 604h21v125h2l2 -2v-4l86 -119h16v154h-18v-119l-78 113q-4 0 -6 6h-25v-154zM928 154v13q0 4 2 15q5 18 12 25q4 9 8 13.5t8 10.5q7 4 12 8.5t11 10.5l29 10q4 0 11 1t15 1q9 0 16 -1t15 -1q6 -4 13 -6l14 -4l22 -19q4 -6 9 -10.5 t10 -13.5q2 -4 4 -10.5t6 -14.5q2 -11 2 -15v-30q0 -5 -2 -12q-3 -7 -5.5 -15t-4.5 -14q-5 -4 -10 -10t-9 -10q-15 -15 -23 -19.5t-26 -11.5q-4 -1 -7.5 -1.5t-7.5 -0.5h-16q-10 0 -20 2t-23 4q-12 6 -19 12.5t-16 14.5q-16 15 -23 35.5t-7 42.5zM967 139q0 -4 6 -12 q5 -15 13.5 -24t23.5 -17q10 -4 26 -4q19 0 29 4q15 7 20 16q14 5 18.5 22t4.5 30q0 15 -4 24q-4 18 -19 25q-2 6 -8 9t-12 5q-11 6 -29 6q-14 0 -26 -6q-11 -1 -23 -14q-9 -5 -14 -25q-5 -5 -6 -11v-28zM1010 455h5q11 0 15 -9l43 -104v-2h2l2 2q5 14 13 27.5t12 25.5 q4 15 10 27l12 24q0 5 1.5 5t1.5 2l18 2q-7 -17 -15 -34.5t-16 -33.5q-4 -9 -7.5 -18.5t-6.5 -18.5l-15 -33h-16zM1010 1092q0 -61 18.5 -103t56.5 -88q38 -37 87 -58.5t104 -21.5q53 0 102 19t85 59q21 19 35.5 40.5t25.5 43.5q21 54 22 109q0 46 -14.5 87.5t-44.5 77.5 q-14 19 -29.5 32.5t-34.5 25.5q-18 7 -37.5 17.5t-39.5 17.5l-32.5 6.5t-37.5 3.5q-59 0 -107 -25q-49 -17 -84 -57q-36 -36 -55.5 -85.5t-19.5 -100.5zM1014 604h12q7 0 10 2q0 2 6 6l11 27h77l11 -27q1 -4 6 -6q2 -2 8 -2h14l-67 154h-21zM1036 1092q0 19 3 40t12 42 q4 19 14 36t25 33h319l-315 -315q-28 36 -43 76q-9 18 -12 40.5t-3 47.5zM1061 659l29 64v6l2 -2v-4l28 -64h-59zM1114 1271q36 30 74 44q39 18 88 18q47 0 90 -18q17 -9 36 -21t36 -23h-324zM1116 909h322q-17 -14 -36 -26t-36 -19q-23 -6 -45.5 -11t-44.5 -5q-25 0 -46 5 t-42 11q-19 7 -37 19t-35 26zM1141 935l315 318q62 -78 62 -161q0 -23 -3.5 -44.5t-11.5 -41.5q-14 -37 -41 -71h-321zM1155 317v138h84v-17h-68v-43h60v-16h-60v-47h68v-15h-84zM1175 43v219h35q4 0 8.5 -1t4.5 -3q3 -2 5.5 -2t4.5 -2l22 -33q5 -9 10 -17.5t11 -17.5 q14 -14 24.5 -29.5t24.5 -29.5q0 -2 1 -5t1 -7l2 -5v152h38v-219h-36l-100 147l-4 3v2q-5 10 -7.5 12t-5.5 2v-166h-39zM1184 604h86v21h-66v133h-20v-154zM1274 317v138h56q10 -2 14.5 -4.5t9.5 -6.5q0 -2 3 -6t3 -8l2 -20q-3 -17 -6 -21l-6 -4q-2 -2 -7 -4q-3 -3 -12 -4 l47 -60h-15q-10 3 -9 9l-39 51h-28v-60h-13zM1287 389h38q5 0 6 4q4 4 10 4l2 4q5 11 5 17q0 2 -1 3t-1 5q-3 2 -4 3t-1 5q-5 0 -10 4h-44v-49zM1358 666q0 -7 1.5 -17.5t6.5 -15.5q2 -6 10 -12q2 -3 4.5 -6t8.5 -5q2 -2 6 -3t8 -3q4 0 7 -1t9 -1q4 0 7.5 1t11.5 1q2 2 5 3 t7 3q9 6 12 11q3 2 5.5 5t5.5 7q0 4 3 7t3 7v111h-21v-103q0 -3 -2 -8q-1 -7 -10 -12q0 -2 -4 -4t-6 -6l-9 -2h-8q-7 0 -14 2q-5 4 -8.5 6t-5.5 4l-11 12q0 3 -1 7.5t-1 11.5v92h-20v-92zM1389 223v39h165v-39h-65v-180h-39v180h-61zM1389 340l4 2h6q1 0 3.5 -1t4.5 -1 q4 -4 7 -5t5 -3h21q8 0 12 4q1 2 2 3.5t2 3.5q2 2 3 6.5t1 6.5q0 18 -16 23q-3 0 -13 4t-12 6q-10 0 -14 8q-2 0 -4 3l-4 6v23q0 1 2 7q0 9 8 10l6 5l4 2l4 2q4 0 6.5 2t8.5 2l10 -4q3 0 4.5 -1t5.5 -3q6 0 6 -7q5 0 7 -3l1 -3l-2 -2q-6 -2 -10 -2h-6l-25 4q-9 0 -8 -2 q-5 -7 -6 -8q-4 0 -4 -8q0 -5 4 -6q0 -4 4 -7l6 -4q4 -4 7.5 -4t7.5 -2l6 -2q3 0 8 -6h4l6 -2q5 -4 8 -7l5 -5q1 -5 1.5 -9.5t0.5 -9.5v-10q-5 -9 -7.5 -13t-7.5 -7q-2 -2 -6 -4.5t-6 -2.5q-4 -2 -10 -2h-10q-10 0 -17.5 1t-13.5 8q-2 0 -3 3t-5 5v4zM1501 633l8 -10v-2 q7 -5 9 -6q6 -7 14 -9t18 -2h12q3 0 11 2q2 2 6 4t8 5l6 8q3 3 4 8q7 7 7 18t-4.5 19t-12.5 14q-6 5 -6 6h-4l-39 17l-6 6q0 1 -1 3.5t-1 4.5q0 4 4 8q5 4 6.5 6t5.5 2q2 2 10 2l3 -1q5 -2 8 -3l6 -2q6 -2 8 -2q7 0 8 4l6 2q0 2 -3 4t-5 4q0 1 -3 4l-5 5q-3 0 -5.5 2t-6.5 4 h-6l-5 1q-6 0 -10 -0.5t-8 -0.5l-14 -8l-11 -15q-1 -4 -3.5 -7t-2.5 -9q0 -4 2 -8t4 -9q2 -4 4.5 -7t4.5 -5q4 -2 7 -5t7 -3q9 -5 14 -6q4 -2 6.5 -2t6.5 -2q5 0 10.5 -3.5t5.5 -9.5l2 -15q-2 -7 -4 -9l-4 -4q-12 -9 -23 -8q-2 0 -6 1t-6 1q-3 1 -8 6l-3 2q-4 4 -9 4h-7z M1507 317v138h17v-138h-17zM1556 90l7 4l8 2l2 2h10q13 -3 14 -4q5 -4 9 -6t6 -4q2 0 6 -1t10 -1h5q9 2 13 3.5t7 4.5q2 2 4.5 4t3.5 4q2 4 4 7.5t2 7.5q0 6 -6 10q-4 6 -8 6q-2 4 -6.5 5t-7.5 3q-5 0 -13 6q-5 0 -9.5 1t-10.5 6q-10 3 -13.5 6.5l-7.5 7.5q-12 4 -12 14 q-6 12 -6 25q0 19 6 26q1 4 6 11l8 10q4 2 9.5 4t13.5 6q6 0 11 1t13 1q4 0 8.5 -1t10.5 -1l16 -6q3 -4 6.5 -7t7.5 -7q3 -2 7 -5.5t4 -7.5l-14 -8l-21 -4l-6 2q-3 1 -6 4q-2 0 -3.5 1t-4.5 1h-17q-2 0 -3 -1t-5 -3l-7 -6q-1 -3 -1 -10q3 -6 4.5 -9.5t3.5 -7.5h6q9 -2 14 -5 t11 -5l8 -2q5 -4 9.5 -5.5t10.5 -4.5q6 -2 16.5 -13.5t10.5 -17.5q5 -9 6 -20q0 -15 -8 -29l-8 -13q-3 -5 -9 -8q-6 -6 -11 -10t-13 -6q-5 -2 -14 -3t-15 -1q-12 0 -33 4q-10 4 -22 19q-4 1 -6 5l-4 9q-6 2 -7 10zM1556 387v16l11 19q2 2 4.5 6t7.5 8q6 9 12 10q3 5 9 6 t10 3q4 0 8 2t10 2q4 0 10.5 -2t10.5 -2q4 -2 8 -3t8 -6l12 -10l13 -14q2 -4 4 -8.5t4 -10.5q0 -4 1 -9t1 -7q0 -6 -1 -14t-5 -17q-4 -13 -17 -20q-4 -4 -9 -8t-13 -9q-11 -2 -27 -2h-15q-4 0 -11 2q-16 4 -23 17q-12 9 -16 20q-6 15 -7 31zM1573 379q3 -15 8 -23q0 -2 2 -4 t4 -6l6 -4q2 -2 9 -2q2 -4 6 -5t6 -3h28q5 2 8 3t7 5l10 6q2 4 5 6t3 4q2 3 3 8t3 9q0 2 1 6t1 8q0 2 -1 8t-5 12q0 6 -4 10.5t-6 8.5q-3 1 -8 6l-10 6h-43q-4 -4 -9.5 -7t-9.5 -5q-2 -3 -5 -8t-3 -11q-3 -6 -4.5 -12t-1.5 -8v-8zM1628 604h94v21h-71v47h59v18h-59v45h71v23 h-94v-154zM1714 66v4l8 12q7 4 9 4l15 4l9 -8q6 0 6 -6l2 -10q0 -7 -2 -9q0 -4 -6 -10l-24 -4q-4 4 -9 4q0 2 -6 10q-2 2 -2 9zM1724 317v138h19l82 -113v113h14v-138h-12l-82 113v4h-4v-117h-17zM1778 154q0 9 1 14.5t3 13.5q2 17 10 25l9 13.5t9 10.5l25 19l27 10 q5 0 12.5 1t15.5 1h13q4 0 16 -3t16 -5l23 -14q4 -4 7.5 -8.5t6.5 -8.5l-14 -16h-15q-7 0 -14 4q-3 2 -8.5 5t-9.5 5q-9 2 -11 2h-10q-16 0 -28 -6q-16 -2 -23 -14q-7 -7 -14 -25q-2 -4 -4 -10t-2 -14q0 -10 6 -27.5t14 -24.5q10 -10 23 -16q13 -4 28 -4q5 0 10 1t11 1 q3 2 8.5 5t9.5 7q2 0 8 2h13q2 0 8 -2q2 -1 8 -6l6 -8l-6 -8t-8 -8q-6 -3 -11 -6t-12 -7q-5 -3 -16.5 -6.5t-17.5 -3.5h-11q-12 0 -23.5 2t-21.5 4q-21 10 -35 27q-16 15 -22 35q-4 10 -7 20t-3 23zM1810 679q0 -5 2.5 -13.5t6.5 -14.5q5 -16 16 -26q9 -15 25 -15 q12 -6 30 -6h21q3 2 8.5 4t9.5 4q4 3 8.5 6t5.5 7q10 5 15 16l8 18v43q-2 5 -3.5 9.5t-4.5 9.5q-5 6 -15 14q-1 4 -5.5 7t-8.5 8q-2 1 -4.5 2t-5.5 2l-8 4h-41q-5 -2 -10.5 -4t-10.5 -4q-3 -5 -6.5 -8t-7.5 -7q-3 -4 -6.5 -7t-5.5 -7q-2 -6 -5 -10t-3 -9q-5 -11 -5 -23z M1833 679q0 12 6 23q0 5 3 11t7 8q9 9 19.5 12.5t21.5 3.5q13 0 23 -4l18 -12q2 -2 6.5 -8t5.5 -11q4 -7 5 -23q0 -13 -5 -22q-1 -4 -6 -10l-6 -6q-5 -4 -9.5 -7t-8.5 -7q-9 -4 -23 -4q-15 0 -22 4q-5 4 -10 7t-9 7q-3 2 -6.5 7t-3.5 9q-4 6 -5 11.5t-1 10.5zM1942 317v138 h83v-17h-67v-49h55v-12h-55v-60h-16zM1989 154q0 9 1 14.5t1 13.5q3 7 6.5 14t7.5 11q2 9 6 13.5t10 10.5q3 4 10 8.5t13 10.5q4 2 11 4t13 6q11 0 17 1t12 1q10 0 17.5 -1t13.5 -1q6 -4 13 -6t13 -4q14 -11 25 -19q2 -6 8 -10.5t8 -13.5q3 -4 6 -10.5t5 -14.5q4 -7 4 -15 v-30q0 -7 -4 -12q-2 -7 -5 -15t-6 -14q-4 -7 -16 -20l-12 -10t-13 -9q-5 -5 -12.5 -7.5l-13.5 -4.5q-9 -2 -14 -2h-17q-20 0 -43 6q-9 6 -16.5 12.5t-16.5 14.5q-9 6 -14.5 14t-7.5 21q-6 10 -8 20t-2 23zM1997 604h22v121l90 -121h17v154h-21v-119l-2.5 5t-3.5 5l-74 103 l-4 6h-24v-154zM2030 154q0 -9 1 -15t1 -12q9 -17 16 -25q6 -4 11 -8t12 -8q7 -2 14.5 -3t11.5 -1q21 0 29 4q29 11 39 41q5 13 6 27q0 16 -6 24q-3 14 -14 24.5t-25 14.5q-4 4 -11.5 5t-17.5 1q-11 0 -26 -6q-7 -1 -12 -4.5t-11 -9.5q-9 -6 -16 -25q0 -4 -1 -10t-1 -14z M2042 317v138h57q3 0 10 -2q2 -2 5.5 -4.5t4.5 -4.5q4 -2 5.5 -6t7.5 -8v-27q-4 -4 -5 -8t-3 -6l-10 -8q-4 -1 -7.5 -2t-5.5 -2l45 -60h-12q-7 2 -8.5 3.5t-1.5 5.5l-39 51h-27v-60h-16zM2058 389h35q4 1 8 4q4 4 8 4q5 7 5 9q2 4 2 12q0 3 -2 8q0 1 -5 8q-3 0 -8 4h-43v-49 zM2161 387q0 2 1 7t1 9q2 4 3 9.5t5 9.5q2 3 5 6.5t5 7.5q7 5 17 10q3 5 8.5 6t7.5 3q5 0 8.5 2t11.5 2q2 0 7.5 -2t11.5 -2q4 -2 8 -3t6 -6q4 -2 9 -5t8 -5q1 -2 2 -3.5t2 -3.5l4 -7q6 -11 8 -19q2 -4 3 -9t1 -7q0 -6 -1 -14t-5 -17q0 -6 -6 -11l-8 -9q-6 -4 -12.5 -8 t-12.5 -9q-9 -2 -13 -2h-29q-4 0 -13 2q-12 4 -23 17q-7 7 -14 20q-2 9 -4 17t-2 14zM2163 604h90v21h-68v133h-22v-154zM2179 373q0 -4 1 -9t5 -8l4 -4q3 -3 4 -6l6 -4q7 -5 11.5 -6.5t7.5 -3.5h31l6 3q5 4 9.5 6t8.5 5l3 6q3 6 6.5 11.5t3.5 9.5v34q-2 6 -6.5 10.5 t-6.5 8.5q-6 2 -10 5t-8 7h-43q-6 -4 -10 -7t-9 -5q-7 -5 -12 -19q-2 -9 -2 -12v-22zM2228 758l58 -76v-3l4 -3v-72h21v70l5 5v3l58 76h-19q-5 0 -9.5 -4t-4.5 -9l-37 -47h-4l-39 47q-3 14 -16 13h-17zM2236 43v219h39q5 0 7 -1t4 -1q2 -2 3 -2t3 -2l8 -4q0 -2 2 -4t2 -4 q4 -17 11 -32t16 -34q6 -16 12 -32.5t12 -30.5v-13l6 13l9 14l45 115l4 8l6 4q2 2 4 2t4 2l1 1l44 1v-219h-37v160l-6 -10v-6q-9 -19 -15.5 -38.5t-15.5 -33.5q-6 -19 -12 -35.5t-14 -36.5h-37l-55 139q-5 3 -5 11l-4 6v-156h-41zM2333 317v138h14l8 -4v-5l49 -106l3 -2v4 q0 1 8 6l40 98q2 5 3.5 5t1.5 2l18 2v-138h-12v113l-2 -2v-2q-4 -7 -7 -17t-8 -14q-4 -7 -6 -13.5t-8 -14.5q-2 -9 -3 -15t-5 -10q-3 -9 -6.5 -13.5t-5.5 -11.5h-15q-10 13 -15 26t-11 28q-4 12 -11.5 26.5t-11.5 28.5v2h-4v-111h-14z" />
<glyph unicode="2" d="M66 43v14q0 10 2 11q0 2 6 8v4l2 4l4 4t2 6l94 129h-102v39h159v-24l-8 -15l-106 -143h2l2 2h108v-39h-165zM66 387q0 6 4 16q1 4 2.5 9.5t5.5 9.5l9 14q2 2 6.5 5t6.5 5q5 5 10 6t9 3q3 0 8.5 2t11.5 2q16 0 27 -8q14 -4 22 -15l-5 -6h-13q-3 2 -6.5 5t-7.5 3h-37 l-21 -12q-4 -3 -7.5 -7.5t-4.5 -11.5q-2 -6 -3 -12t-1 -8q0 -10 4 -14q0 -4 0.5 -9t0.5 -8l5 -4q5 -1 6 -6l8 -5q2 -1 7 -1q2 -4 5 -5t7 -3h33q2 2 7 3t9 5v29h-14v2l-6 4h-3l-1 8h38v-51q-2 -5 -4 -6.5t-6 -6.5h-12q-9 -2 -12 -2h-35q-5 0 -19 9q-7 0 -13 10l-9 14 q-4 4 -5.5 8t-2.5 9q-2 6 -3 10t-1 10zM74 506v586h911q0 30 5 59t20 53q12 29 26.5 52.5t36.5 41.5q38 42 92 62q27 12 54.5 17t56.5 5q33 0 61.5 -6t53.5 -16q59 -29 94.5 -64.5t62.5 -95.5q19 -52 19 -108h911v-586h-2404zM199 604h18v58h35q4 0 10 0.5t8 3.5q11 4 15 10 q4 2 7 6t3 8q5 13 6 19q0 10 -6 20q0 2 -4 6l-6 6q-2 3 -5.5 7t-9.5 4q-2 4 -8 5t-10 1h-53v-154zM217 682v53h35q4 0 10 -2l8 -4q2 -1 3 -4.5t3 -5.5q3 -4 3 -10v-4q0 -2 -3 -7q-2 -2 -3 -5t-3 -3q-1 -2 -3 -4t-5 -4h-45zM223 317v138h84v-17h-67v-43h55v-16h-55v-47h67 v-15h-84zM260 43v219h139v-39h-100v-49h82v-41h-82v-51h100v-39h-139zM315 604h97v21h-74v47h59v18h-59v45h74v23h-97v-154zM324 438v17h106v-17h-47v-121h-12v121h-47zM406 223v39h165v-39h-59v-180h-43v180h-63zM442 604h23v64h24l39 -56q1 -4 7 -6l24 -2l-47 68q4 0 12 4 q7 3 8 10q9 6 9 12v25q-6 15 -13 20q-5 9 -14 9q-2 4 -7 5t-9 1h-56v-154zM465 688v47h33q3 0 10 -2l6 -4l2 -4l2 -4q3 -1 4 -10q-1 -6 -4 -9l-4 -8q-2 0 -3 -2t-3 -2q-2 -2 -10 -2h-33zM516 317v138h86v-17h-70v-49h60v-12h-60v-60h-16zM541 43l96 219h35l94 -219h-25 q-9 0 -16 4q-2 2 -4 7t-6 9l-13 27h-100l-10 -27q0 -6 -4 -6l-8 -10q-2 0 -3.5 -1t-5.5 -1zM565 633l10 -18h3q7 -7 16.5 -9t19.5 -2h9q5 0 12 2q4 2 9 4t7 5q4 2 7.5 6t4.5 10q2 5 3.5 8.5t1.5 9.5q0 11 -5.5 19t-11.5 14q-2 0 -4 2t-6 4l-4 2h-4q-4 3 -6.5 3.5t-3.5 1.5 q-7 2 -9 3.5t-6 3.5q-6 3 -9 3l-3 22q9 7 12 8l15 2q11 -3 12 -6l6 -2q10 0 14 4l4 2l-6 8q-2 1 -5 4t-7 5q-2 0 -4 2t-6 4h-29q-5 -2 -7.5 -4t-6.5 -4q-2 -5 -6 -8t-7 -7q0 -4 -2 -7t-2 -9q0 -7 4 -17l5 -8l6 -4q2 -2 6 -5t7 -3l8 -5q2 -1 7 -1q1 -2 6 -2t7 -2l6 -2 q5 -4 5.5 -5.5t2.5 -5.5l2 -16q-4 -5 -4 -7.5t-2 -4.5q-1 -3 -7 -5l-3 -1q-4 0 -8 -1t-5 -1q-5 0 -11.5 1.5t-6.5 6.5l-4 2q-4 4 -12 4h-5zM623 129h61l-29 74h-2zM627 371v84h14v-84q0 -6 2 -9.5t6 -5.5q0 -6 3 -9.5t5 -4.5q0 -2 4.5 -4t6.5 -4q6 -2 8 -2h16q9 4 13 6l8 4 q4 1 8 14q4 3 4 15v84h14v-84q0 -10 -3.5 -22t-12.5 -17q-5 -13 -16 -13q-6 -1 -12 -1.5t-11 -0.5t-11 0.5t-14 1.5q-3 0 -16 13l-10 16q-1 6 -3.5 11.5t-2.5 11.5zM684 679q0 -16 6.5 -29t16.5 -25q12 -15 26 -15q12 -6 29 -6h20q6 2 11 4t8 4q12 5 16 13q7 7 12 16 q2 4 5.5 9t3.5 9q1 6 2.5 10.5t1.5 9.5q0 13 -4 23q0 5 -3.5 9t-5.5 10q-2 3 -5 6.5t-7 7.5l-7 6q-2 3 -9 9l-8 4q-2 1 -5 2l-6 2h-41q-11 -4 -18 -8q-4 -5 -8 -8t-8 -7q-12 -9 -13 -14q-4 -6 -5 -10t-3 -9q-1 -5 -1.5 -10.5t-0.5 -12.5zM705 679q0 21 9 32.5t25 21.5 q5 2 12 3t11 1q14 0 22 -4q13 -5 17 -12q6 -2 9 -8t5 -11q4 -7 4 -23q0 -11 -4 -22q-2 -4 -5 -9t-9 -7q-5 -10 -17 -14t-22 -4q-11 0 -23 4q-4 4 -9 7t-9 7q-2 2 -6 7t-6 9q-4 12 -4 22zM768 317v138h16v-123h64v-15h-80zM774 43v219h139v-39h-100v-56h82v-38h-82v-86h-39z M862 317v138h17v-123h63v-15h-80zM870 604h21v125h2l2 -2v-4l86 -119h16v154h-18v-119l-78 113q-4 0 -6 6h-25v-154zM928 154v13q0 4 2 15q5 18 12 25q4 9 8 13.5t8 10.5q7 4 12 8.5t11 10.5l29 10q4 0 11 1t15 1q9 0 16 -1t15 -1q6 -4 13 -6l14 -4l22 -19q4 -6 9 -10.5 t10 -13.5q2 -4 4 -10.5t6 -14.5q2 -11 2 -15v-30q0 -5 -2 -12q-3 -7 -5.5 -15t-4.5 -14q-5 -4 -10 -10t-9 -10q-15 -15 -23 -19.5t-26 -11.5q-4 -1 -7.5 -1.5t-7.5 -0.5h-16q-10 0 -20 2t-23 4q-12 6 -19 12.5t-16 14.5q-16 15 -23 35.5t-7 42.5zM967 139q0 -4 6 -12 q5 -15 13.5 -24t23.5 -17q10 -4 26 -4q19 0 29 4q15 7 20 16q14 5 18.5 22t4.5 30q0 15 -4 24q-4 18 -19 25q-2 6 -8 9t-12 5q-11 6 -29 6q-14 0 -26 -6q-11 -1 -23 -14q-9 -5 -14 -25q-5 -5 -6 -11v-28zM1010 455h5q11 0 15 -9l43 -104v-2h2l2 2q5 14 13 27.5t12 25.5 q4 15 10 27l12 24q0 5 1.5 5t1.5 2l18 2q-7 -17 -15 -34.5t-16 -33.5q-4 -9 -7.5 -18.5t-6.5 -18.5l-15 -33h-16zM1010 1092q0 -61 18.5 -103t56.5 -88q38 -37 87 -58.5t104 -21.5q53 0 102 19t85 59q21 19 35.5 40.5t25.5 43.5q21 54 22 109q0 46 -14.5 87.5t-44.5 77.5 q-14 19 -29.5 32.5t-34.5 25.5q-18 7 -37.5 17.5t-39.5 17.5l-32.5 6.5t-37.5 3.5q-59 0 -107 -25q-49 -17 -84 -57q-36 -36 -55.5 -85.5t-19.5 -100.5zM1014 604h12q7 0 10 2q0 2 6 6l11 27h77l11 -27q1 -4 6 -6q2 -2 8 -2h14l-67 154h-21zM1036 1092q0 19 3 40t12 42 q4 19 14 36t25 33h319l-315 -315q-28 36 -43 76q-9 18 -12 40.5t-3 47.5zM1061 659l29 64v6l2 -2v-4l28 -64h-59zM1114 1271q36 30 74 44q39 18 88 18q47 0 90 -18q17 -9 36 -21t36 -23h-324zM1116 909h322q-17 -14 -36 -26t-36 -19q-23 -6 -45.5 -11t-44.5 -5q-25 0 -46 5 t-42 11q-19 7 -37 19t-35 26zM1141 935l315 318q62 -78 62 -161q0 -23 -3.5 -44.5t-11.5 -41.5q-14 -37 -41 -71h-321zM1155 317v138h84v-17h-68v-43h60v-16h-60v-47h68v-15h-84zM1175 43v219h35q4 0 8.5 -1t4.5 -3q3 -2 5.5 -2t4.5 -2l22 -33q5 -9 10 -17.5t11 -17.5 q14 -14 24.5 -29.5t24.5 -29.5q0 -2 1 -5t1 -7l2 -5v152h38v-219h-36l-100 147l-4 3v2q-5 10 -7.5 12t-5.5 2v-166h-39zM1184 604h86v21h-66v133h-20v-154zM1274 317v138h56q10 -2 14.5 -4.5t9.5 -6.5q0 -2 3 -6t3 -8l2 -20q-3 -17 -6 -21l-6 -4q-2 -2 -7 -4q-3 -3 -12 -4 l47 -60h-15q-10 3 -9 9l-39 51h-28v-60h-13zM1287 389h38q5 0 6 4q4 4 10 4l2 4q5 11 5 17q0 2 -1 3t-1 5q-3 2 -4 3t-1 5q-5 0 -10 4h-44v-49zM1358 666q0 -7 1.5 -17.5t6.5 -15.5q2 -6 10 -12q2 -3 4.5 -6t8.5 -5q2 -2 6 -3t8 -3q4 0 7 -1t9 -1q4 0 7.5 1t11.5 1q2 2 5 3 t7 3q9 6 12 11q3 2 5.5 5t5.5 7q0 4 3 7t3 7v111h-21v-103q0 -3 -2 -8q-1 -7 -10 -12q0 -2 -4 -4t-6 -6l-9 -2h-8q-7 0 -14 2q-5 4 -8.5 6t-5.5 4l-11 12q0 3 -1 7.5t-1 11.5v92h-20v-92zM1389 223v39h165v-39h-65v-180h-39v180h-61zM1389 340l4 2h6q1 0 3.5 -1t4.5 -1 q4 -4 7 -5t5 -3h21q8 0 12 4q1 2 2 3.5t2 3.5q2 2 3 6.5t1 6.5q0 18 -16 23q-3 0 -13 4t-12 6q-10 0 -14 8q-2 0 -4 3l-4 6v23q0 1 2 7q0 9 8 10l6 5l4 2l4 2q4 0 6.5 2t8.5 2l10 -4q3 0 4.5 -1t5.5 -3q6 0 6 -7q5 0 7 -3l1 -3l-2 -2q-6 -2 -10 -2h-6l-25 4q-9 0 -8 -2 q-5 -7 -6 -8q-4 0 -4 -8q0 -5 4 -6q0 -4 4 -7l6 -4q4 -4 7.5 -4t7.5 -2l6 -2q3 0 8 -6h4l6 -2q5 -4 8 -7l5 -5q1 -5 1.5 -9.5t0.5 -9.5v-10q-5 -9 -7.5 -13t-7.5 -7q-2 -2 -6 -4.5t-6 -2.5q-4 -2 -10 -2h-10q-10 0 -17.5 1t-13.5 8q-2 0 -3 3t-5 5v4zM1501 633l8 -10v-2 q7 -5 9 -6q6 -7 14 -9t18 -2h12q3 0 11 2q2 2 6 4t8 5l6 8q3 3 4 8q7 7 7 18t-4.5 19t-12.5 14q-6 5 -6 6h-4l-39 17l-6 6q0 1 -1 3.5t-1 4.5q0 4 4 8q5 4 6.5 6t5.5 2q2 2 10 2l3 -1q5 -2 8 -3l6 -2q6 -2 8 -2q7 0 8 4l6 2q0 2 -3 4t-5 4q0 1 -3 4l-5 5q-3 0 -5.5 2t-6.5 4 h-6l-5 1q-6 0 -10 -0.5t-8 -0.5l-14 -8l-11 -15q-1 -4 -3.5 -7t-2.5 -9q0 -4 2 -8t4 -9q2 -4 4.5 -7t4.5 -5q4 -2 7 -5t7 -3q9 -5 14 -6q4 -2 6.5 -2t6.5 -2q5 0 10.5 -3.5t5.5 -9.5l2 -15q-2 -7 -4 -9l-4 -4q-12 -9 -23 -8q-2 0 -6 1t-6 1q-3 1 -8 6l-3 2q-4 4 -9 4h-7z M1507 317v138h17v-138h-17zM1556 90l7 4l8 2l2 2h10q13 -3 14 -4q5 -4 9 -6t6 -4q2 0 6 -1t10 -1h5q9 2 13 3.5t7 4.5q2 2 4.5 4t3.5 4q2 4 4 7.5t2 7.5q0 6 -6 10q-4 6 -8 6q-2 4 -6.5 5t-7.5 3q-5 0 -13 6q-5 0 -9.5 1t-10.5 6q-10 3 -13.5 6.5l-7.5 7.5q-12 4 -12 14 q-6 12 -6 25q0 19 6 26q1 4 6 11l8 10q4 2 9.5 4t13.5 6q6 0 11 1t13 1q4 0 8.5 -1t10.5 -1l16 -6q3 -4 6.5 -7t7.5 -7q3 -2 7 -5.5t4 -7.5l-14 -8l-21 -4l-6 2q-3 1 -6 4q-2 0 -3.5 1t-4.5 1h-17q-2 0 -3 -1t-5 -3l-7 -6q-1 -3 -1 -10q3 -6 4.5 -9.5t3.5 -7.5h6q9 -2 14 -5 t11 -5l8 -2q5 -4 9.5 -5.5t10.5 -4.5q6 -2 16.5 -13.5t10.5 -17.5q5 -9 6 -20q0 -15 -8 -29l-8 -13q-3 -5 -9 -8q-6 -6 -11 -10t-13 -6q-5 -2 -14 -3t-15 -1q-12 0 -33 4q-10 4 -22 19q-4 1 -6 5l-4 9q-6 2 -7 10zM1556 387v16l11 19q2 2 4.5 6t7.5 8q6 9 12 10q3 5 9 6 t10 3q4 0 8 2t10 2q4 0 10.5 -2t10.5 -2q4 -2 8 -3t8 -6l12 -10l13 -14q2 -4 4 -8.5t4 -10.5q0 -4 1 -9t1 -7q0 -6 -1 -14t-5 -17q-4 -13 -17 -20q-4 -4 -9 -8t-13 -9q-11 -2 -27 -2h-15q-4 0 -11 2q-16 4 -23 17q-12 9 -16 20q-6 15 -7 31zM1573 379q3 -15 8 -23q0 -2 2 -4 t4 -6l6 -4q2 -2 9 -2q2 -4 6 -5t6 -3h28q5 2 8 3t7 5l10 6q2 4 5 6t3 4q2 3 3 8t3 9q0 2 1 6t1 8q0 2 -1 8t-5 12q0 6 -4 10.5t-6 8.5q-3 1 -8 6l-10 6h-43q-4 -4 -9.5 -7t-9.5 -5q-2 -3 -5 -8t-3 -11q-3 -6 -4.5 -12t-1.5 -8v-8zM1628 604h94v21h-71v47h59v18h-59v45h71v23 h-94v-154zM1714 66v4l8 12q7 4 9 4l15 4l9 -8q6 0 6 -6l2 -10q0 -7 -2 -9q0 -4 -6 -10l-24 -4q-4 4 -9 4q0 2 -6 10q-2 2 -2 9zM1724 317v138h19l82 -113v113h14v-138h-12l-82 113v4h-4v-117h-17zM1778 154q0 9 1 14.5t3 13.5q2 17 10 25l9 13.5t9 10.5l25 19l27 10 q5 0 12.5 1t15.5 1h13q4 0 16 -3t16 -5l23 -14q4 -4 7.5 -8.5t6.5 -8.5l-14 -16h-15q-7 0 -14 4q-3 2 -8.5 5t-9.5 5q-9 2 -11 2h-10q-16 0 -28 -6q-16 -2 -23 -14q-7 -7 -14 -25q-2 -4 -4 -10t-2 -14q0 -10 6 -27.5t14 -24.5q10 -10 23 -16q13 -4 28 -4q5 0 10 1t11 1 q3 2 8.5 5t9.5 7q2 0 8 2h13q2 0 8 -2q2 -1 8 -6l6 -8l-6 -8t-8 -8q-6 -3 -11 -6t-12 -7q-5 -3 -16.5 -6.5t-17.5 -3.5h-11q-12 0 -23.5 2t-21.5 4q-21 10 -35 27q-16 15 -22 35q-4 10 -7 20t-3 23zM1810 679q0 -5 2.5 -13.5t6.5 -14.5q5 -16 16 -26q9 -15 25 -15 q12 -6 30 -6h21q3 2 8.5 4t9.5 4q4 3 8.5 6t5.5 7q10 5 15 16l8 18v43q-2 5 -3.5 9.5t-4.5 9.5q-5 6 -15 14q-1 4 -5.5 7t-8.5 8q-2 1 -4.5 2t-5.5 2l-8 4h-41q-5 -2 -10.5 -4t-10.5 -4q-3 -5 -6.5 -8t-7.5 -7q-3 -4 -6.5 -7t-5.5 -7q-2 -6 -5 -10t-3 -9q-5 -11 -5 -23z M1833 679q0 12 6 23q0 5 3 11t7 8q9 9 19.5 12.5t21.5 3.5q13 0 23 -4l18 -12q2 -2 6.5 -8t5.5 -11q4 -7 5 -23q0 -13 -5 -22q-1 -4 -6 -10l-6 -6q-5 -4 -9.5 -7t-8.5 -7q-9 -4 -23 -4q-15 0 -22 4q-5 4 -10 7t-9 7q-3 2 -6.5 7t-3.5 9q-4 6 -5 11.5t-1 10.5zM1942 317v138 h83v-17h-67v-49h55v-12h-55v-60h-16zM1989 154q0 9 1 14.5t1 13.5q3 7 6.5 14t7.5 11q2 9 6 13.5t10 10.5q3 4 10 8.5t13 10.5q4 2 11 4t13 6q11 0 17 1t12 1q10 0 17.5 -1t13.5 -1q6 -4 13 -6t13 -4q14 -11 25 -19q2 -6 8 -10.5t8 -13.5q3 -4 6 -10.5t5 -14.5q4 -7 4 -15 v-30q0 -7 -4 -12q-2 -7 -5 -15t-6 -14q-4 -7 -16 -20l-12 -10t-13 -9q-5 -5 -12.5 -7.5l-13.5 -4.5q-9 -2 -14 -2h-17q-20 0 -43 6q-9 6 -16.5 12.5t-16.5 14.5q-9 6 -14.5 14t-7.5 21q-6 10 -8 20t-2 23zM1997 604h22v121l90 -121h17v154h-21v-119l-2.5 5t-3.5 5l-74 103 l-4 6h-24v-154zM2030 154q0 -9 1 -15t1 -12q9 -17 16 -25q6 -4 11 -8t12 -8q7 -2 14.5 -3t11.5 -1q21 0 29 4q29 11 39 41q5 13 6 27q0 16 -6 24q-3 14 -14 24.5t-25 14.5q-4 4 -11.5 5t-17.5 1q-11 0 -26 -6q-7 -1 -12 -4.5t-11 -9.5q-9 -6 -16 -25q0 -4 -1 -10t-1 -14z M2042 317v138h57q3 0 10 -2q2 -2 5.5 -4.5t4.5 -4.5q4 -2 5.5 -6t7.5 -8v-27q-4 -4 -5 -8t-3 -6l-10 -8q-4 -1 -7.5 -2t-5.5 -2l45 -60h-12q-7 2 -8.5 3.5t-1.5 5.5l-39 51h-27v-60h-16zM2058 389h35q4 1 8 4q4 4 8 4q5 7 5 9q2 4 2 12q0 3 -2 8q0 1 -5 8q-3 0 -8 4h-43v-49 zM2161 387q0 2 1 7t1 9q2 4 3 9.5t5 9.5q2 3 5 6.5t5 7.5q7 5 17 10q3 5 8.5 6t7.5 3q5 0 8.5 2t11.5 2q2 0 7.5 -2t11.5 -2q4 -2 8 -3t6 -6q4 -2 9 -5t8 -5q1 -2 2 -3.5t2 -3.5l4 -7q6 -11 8 -19q2 -4 3 -9t1 -7q0 -6 -1 -14t-5 -17q0 -6 -6 -11l-8 -9q-6 -4 -12.5 -8 t-12.5 -9q-9 -2 -13 -2h-29q-4 0 -13 2q-12 4 -23 17q-7 7 -14 20q-2 9 -4 17t-2 14zM2163 604h90v21h-68v133h-22v-154zM2179 373q0 -4 1 -9t5 -8l4 -4q3 -3 4 -6l6 -4q7 -5 11.5 -6.5t7.5 -3.5h31l6 3q5 4 9.5 6t8.5 5l3 6q3 6 6.5 11.5t3.5 9.5v34q-2 6 -6.5 10.5 t-6.5 8.5q-6 2 -10 5t-8 7h-43q-6 -4 -10 -7t-9 -5q-7 -5 -12 -19q-2 -9 -2 -12v-22zM2228 758l58 -76v-3l4 -3v-72h21v70l5 5v3l58 76h-19q-5 0 -9.5 -4t-4.5 -9l-37 -47h-4l-39 47q-3 14 -16 13h-17zM2236 43v219h39q5 0 7 -1t4 -1q2 -2 3 -2t3 -2l8 -4q0 -2 2 -4t2 -4 q4 -17 11 -32t16 -34q6 -16 12 -32.5t12 -30.5v-13l6 13l9 14l45 115l4 8l6 4q2 2 4 2t4 2l1 1l44 1v-219h-37v160l-6 -10v-6q-9 -19 -15.5 -38.5t-15.5 -33.5q-6 -19 -12 -35.5t-14 -36.5h-37l-55 139q-5 3 -5 11l-4 6v-156h-41zM2333 317v138h14l8 -4v-5l49 -106l3 -2v4 q0 1 8 6l40 98q2 5 3.5 5t1.5 2l18 2v-138h-12v113l-2 -2v-2q-4 -7 -7 -17t-8 -14q-4 -7 -6 -13.5t-8 -14.5q-2 -9 -3 -15t-5 -10q-3 -9 -6.5 -13.5t-5.5 -11.5h-15q-10 13 -15 26t-11 28q-4 12 -11.5 26.5t-11.5 28.5v2h-4v-111h-14z" />
<glyph unicode="3" d="M66 43v14q0 10 2 11q0 2 6 8v4l2 4l4 4t2 6l94 129h-102v39h159v-24l-8 -15l-106 -143h2l2 2h108v-39h-165zM66 387q0 6 4 16q1 4 2.5 9.5t5.5 9.5l9 14q2 2 6.5 5t6.5 5q5 5 10 6t9 3q3 0 8.5 2t11.5 2q16 0 27 -8q14 -4 22 -15l-5 -6h-13q-3 2 -6.5 5t-7.5 3h-37 l-21 -12q-4 -3 -7.5 -7.5t-4.5 -11.5q-2 -6 -3 -12t-1 -8q0 -10 4 -14q0 -4 0.5 -9t0.5 -8l5 -4q5 -1 6 -6l8 -5q2 -1 7 -1q2 -4 5 -5t7 -3h33q2 2 7 3t9 5v29h-14v2l-6 4h-3l-1 8h38v-51q-2 -5 -4 -6.5t-6 -6.5h-12q-9 -2 -12 -2h-35q-5 0 -19 9q-7 0 -13 10l-9 14 q-4 4 -5.5 8t-2.5 9q-2 6 -3 10t-1 10zM74 506v586h911q0 30 5 59t20 53q12 29 26.5 52.5t36.5 41.5q38 42 92 62q27 12 54.5 17t56.5 5q33 0 61.5 -6t53.5 -16q59 -29 94.5 -64.5t62.5 -95.5q19 -52 19 -108h911v-586h-2404zM199 604h18v58h35q4 0 10 0.5t8 3.5q11 4 15 10 q4 2 7 6t3 8q5 13 6 19q0 10 -6 20q0 2 -4 6l-6 6q-2 3 -5.5 7t-9.5 4q-2 4 -8 5t-10 1h-53v-154zM217 682v53h35q4 0 10 -2l8 -4q2 -1 3 -4.5t3 -5.5q3 -4 3 -10v-4q0 -2 -3 -7q-2 -2 -3 -5t-3 -3q-1 -2 -3 -4t-5 -4h-45zM223 317v138h84v-17h-67v-43h55v-16h-55v-47h67 v-15h-84zM260 43v219h139v-39h-100v-49h82v-41h-82v-51h100v-39h-139zM315 604h97v21h-74v47h59v18h-59v45h74v23h-97v-154zM324 438v17h106v-17h-47v-121h-12v121h-47zM406 223v39h165v-39h-59v-180h-43v180h-63zM442 604h23v64h24l39 -56q1 -4 7 -6l24 -2l-47 68q4 0 12 4 q7 3 8 10q9 6 9 12v25q-6 15 -13 20q-5 9 -14 9q-2 4 -7 5t-9 1h-56v-154zM465 688v47h33q3 0 10 -2l6 -4l2 -4l2 -4q3 -1 4 -10q-1 -6 -4 -9l-4 -8q-2 0 -3 -2t-3 -2q-2 -2 -10 -2h-33zM516 317v138h86v-17h-70v-49h60v-12h-60v-60h-16zM541 43l96 219h35l94 -219h-25 q-9 0 -16 4q-2 2 -4 7t-6 9l-13 27h-100l-10 -27q0 -6 -4 -6l-8 -10q-2 0 -3.5 -1t-5.5 -1zM565 633l10 -18h3q7 -7 16.5 -9t19.5 -2h9q5 0 12 2q4 2 9 4t7 5q4 2 7.5 6t4.5 10q2 5 3.5 8.5t1.5 9.5q0 11 -5.5 19t-11.5 14q-2 0 -4 2t-6 4l-4 2h-4q-4 3 -6.5 3.5t-3.5 1.5 q-7 2 -9 3.5t-6 3.5q-6 3 -9 3l-3 22q9 7 12 8l15 2q11 -3 12 -6l6 -2q10 0 14 4l4 2l-6 8q-2 1 -5 4t-7 5q-2 0 -4 2t-6 4h-29q-5 -2 -7.5 -4t-6.5 -4q-2 -5 -6 -8t-7 -7q0 -4 -2 -7t-2 -9q0 -7 4 -17l5 -8l6 -4q2 -2 6 -5t7 -3l8 -5q2 -1 7 -1q1 -2 6 -2t7 -2l6 -2 q5 -4 5.5 -5.5t2.5 -5.5l2 -16q-4 -5 -4 -7.5t-2 -4.5q-1 -3 -7 -5l-3 -1q-4 0 -8 -1t-5 -1q-5 0 -11.5 1.5t-6.5 6.5l-4 2q-4 4 -12 4h-5zM623 129h61l-29 74h-2zM627 371v84h14v-84q0 -6 2 -9.5t6 -5.5q0 -6 3 -9.5t5 -4.5q0 -2 4.5 -4t6.5 -4q6 -2 8 -2h16q9 4 13 6l8 4 q4 1 8 14q4 3 4 15v84h14v-84q0 -10 -3.5 -22t-12.5 -17q-5 -13 -16 -13q-6 -1 -12 -1.5t-11 -0.5t-11 0.5t-14 1.5q-3 0 -16 13l-10 16q-1 6 -3.5 11.5t-2.5 11.5zM684 679q0 -16 6.5 -29t16.5 -25q12 -15 26 -15q12 -6 29 -6h20q6 2 11 4t8 4q12 5 16 13q7 7 12 16 q2 4 5.5 9t3.5 9q1 6 2.5 10.5t1.5 9.5q0 13 -4 23q0 5 -3.5 9t-5.5 10q-2 3 -5 6.5t-7 7.5l-7 6q-2 3 -9 9l-8 4q-2 1 -5 2l-6 2h-41q-11 -4 -18 -8q-4 -5 -8 -8t-8 -7q-12 -9 -13 -14q-4 -6 -5 -10t-3 -9q-1 -5 -1.5 -10.5t-0.5 -12.5zM705 679q0 21 9 32.5t25 21.5 q5 2 12 3t11 1q14 0 22 -4q13 -5 17 -12q6 -2 9 -8t5 -11q4 -7 4 -23q0 -11 -4 -22q-2 -4 -5 -9t-9 -7q-5 -10 -17 -14t-22 -4q-11 0 -23 4q-4 4 -9 7t-9 7q-2 2 -6 7t-6 9q-4 12 -4 22zM768 317v138h16v-123h64v-15h-80zM774 43v219h139v-39h-100v-56h82v-38h-82v-86h-39z M862 317v138h17v-123h63v-15h-80zM870 604h21v125h2l2 -2v-4l86 -119h16v154h-18v-119l-78 113q-4 0 -6 6h-25v-154zM928 154v13q0 4 2 15q5 18 12 25q4 9 8 13.5t8 10.5q7 4 12 8.5t11 10.5l29 10q4 0 11 1t15 1q9 0 16 -1t15 -1q6 -4 13 -6l14 -4l22 -19q4 -6 9 -10.5 t10 -13.5q2 -4 4 -10.5t6 -14.5q2 -11 2 -15v-30q0 -5 -2 -12q-3 -7 -5.5 -15t-4.5 -14q-5 -4 -10 -10t-9 -10q-15 -15 -23 -19.5t-26 -11.5q-4 -1 -7.5 -1.5t-7.5 -0.5h-16q-10 0 -20 2t-23 4q-12 6 -19 12.5t-16 14.5q-16 15 -23 35.5t-7 42.5zM967 139q0 -4 6 -12 q5 -15 13.5 -24t23.5 -17q10 -4 26 -4q19 0 29 4q15 7 20 16q14 5 18.5 22t4.5 30q0 15 -4 24q-4 18 -19 25q-2 6 -8 9t-12 5q-11 6 -29 6q-14 0 -26 -6q-11 -1 -23 -14q-9 -5 -14 -25q-5 -5 -6 -11v-28zM1010 455h5q11 0 15 -9l43 -104v-2h2l2 2q5 14 13 27.5t12 25.5 q4 15 10 27l12 24q0 5 1.5 5t1.5 2l18 2q-7 -17 -15 -34.5t-16 -33.5q-4 -9 -7.5 -18.5t-6.5 -18.5l-15 -33h-16zM1010 1092q0 -61 18.5 -103t56.5 -88q38 -37 87 -58.5t104 -21.5q53 0 102 19t85 59q21 19 35.5 40.5t25.5 43.5q21 54 22 109q0 46 -14.5 87.5t-44.5 77.5 q-14 19 -29.5 32.5t-34.5 25.5q-18 7 -37.5 17.5t-39.5 17.5l-32.5 6.5t-37.5 3.5q-59 0 -107 -25q-49 -17 -84 -57q-36 -36 -55.5 -85.5t-19.5 -100.5zM1014 604h12q7 0 10 2q0 2 6 6l11 27h77l11 -27q1 -4 6 -6q2 -2 8 -2h14l-67 154h-21zM1036 1092q0 19 3 40t12 42 q4 19 14 36t25 33h319l-315 -315q-28 36 -43 76q-9 18 -12 40.5t-3 47.5zM1061 659l29 64v6l2 -2v-4l28 -64h-59zM1114 1271q36 30 74 44q39 18 88 18q47 0 90 -18q17 -9 36 -21t36 -23h-324zM1116 909h322q-17 -14 -36 -26t-36 -19q-23 -6 -45.5 -11t-44.5 -5q-25 0 -46 5 t-42 11q-19 7 -37 19t-35 26zM1141 935l315 318q62 -78 62 -161q0 -23 -3.5 -44.5t-11.5 -41.5q-14 -37 -41 -71h-321zM1155 317v138h84v-17h-68v-43h60v-16h-60v-47h68v-15h-84zM1175 43v219h35q4 0 8.5 -1t4.5 -3q3 -2 5.5 -2t4.5 -2l22 -33q5 -9 10 -17.5t11 -17.5 q14 -14 24.5 -29.5t24.5 -29.5q0 -2 1 -5t1 -7l2 -5v152h38v-219h-36l-100 147l-4 3v2q-5 10 -7.5 12t-5.5 2v-166h-39zM1184 604h86v21h-66v133h-20v-154zM1274 317v138h56q10 -2 14.5 -4.5t9.5 -6.5q0 -2 3 -6t3 -8l2 -20q-3 -17 -6 -21l-6 -4q-2 -2 -7 -4q-3 -3 -12 -4 l47 -60h-15q-10 3 -9 9l-39 51h-28v-60h-13zM1287 389h38q5 0 6 4q4 4 10 4l2 4q5 11 5 17q0 2 -1 3t-1 5q-3 2 -4 3t-1 5q-5 0 -10 4h-44v-49zM1358 666q0 -7 1.5 -17.5t6.5 -15.5q2 -6 10 -12q2 -3 4.5 -6t8.5 -5q2 -2 6 -3t8 -3q4 0 7 -1t9 -1q4 0 7.5 1t11.5 1q2 2 5 3 t7 3q9 6 12 11q3 2 5.5 5t5.5 7q0 4 3 7t3 7v111h-21v-103q0 -3 -2 -8q-1 -7 -10 -12q0 -2 -4 -4t-6 -6l-9 -2h-8q-7 0 -14 2q-5 4 -8.5 6t-5.5 4l-11 12q0 3 -1 7.5t-1 11.5v92h-20v-92zM1389 223v39h165v-39h-65v-180h-39v180h-61zM1389 340l4 2h6q1 0 3.5 -1t4.5 -1 q4 -4 7 -5t5 -3h21q8 0 12 4q1 2 2 3.5t2 3.5q2 2 3 6.5t1 6.5q0 18 -16 23q-3 0 -13 4t-12 6q-10 0 -14 8q-2 0 -4 3l-4 6v23q0 1 2 7q0 9 8 10l6 5l4 2l4 2q4 0 6.5 2t8.5 2l10 -4q3 0 4.5 -1t5.5 -3q6 0 6 -7q5 0 7 -3l1 -3l-2 -2q-6 -2 -10 -2h-6l-25 4q-9 0 -8 -2 q-5 -7 -6 -8q-4 0 -4 -8q0 -5 4 -6q0 -4 4 -7l6 -4q4 -4 7.5 -4t7.5 -2l6 -2q3 0 8 -6h4l6 -2q5 -4 8 -7l5 -5q1 -5 1.5 -9.5t0.5 -9.5v-10q-5 -9 -7.5 -13t-7.5 -7q-2 -2 -6 -4.5t-6 -2.5q-4 -2 -10 -2h-10q-10 0 -17.5 1t-13.5 8q-2 0 -3 3t-5 5v4zM1501 633l8 -10v-2 q7 -5 9 -6q6 -7 14 -9t18 -2h12q3 0 11 2q2 2 6 4t8 5l6 8q3 3 4 8q7 7 7 18t-4.5 19t-12.5 14q-6 5 -6 6h-4l-39 17l-6 6q0 1 -1 3.5t-1 4.5q0 4 4 8q5 4 6.5 6t5.5 2q2 2 10 2l3 -1q5 -2 8 -3l6 -2q6 -2 8 -2q7 0 8 4l6 2q0 2 -3 4t-5 4q0 1 -3 4l-5 5q-3 0 -5.5 2t-6.5 4 h-6l-5 1q-6 0 -10 -0.5t-8 -0.5l-14 -8l-11 -15q-1 -4 -3.5 -7t-2.5 -9q0 -4 2 -8t4 -9q2 -4 4.5 -7t4.5 -5q4 -2 7 -5t7 -3q9 -5 14 -6q4 -2 6.5 -2t6.5 -2q5 0 10.5 -3.5t5.5 -9.5l2 -15q-2 -7 -4 -9l-4 -4q-12 -9 -23 -8q-2 0 -6 1t-6 1q-3 1 -8 6l-3 2q-4 4 -9 4h-7z M1507 317v138h17v-138h-17zM1556 90l7 4l8 2l2 2h10q13 -3 14 -4q5 -4 9 -6t6 -4q2 0 6 -1t10 -1h5q9 2 13 3.5t7 4.5q2 2 4.5 4t3.5 4q2 4 4 7.5t2 7.5q0 6 -6 10q-4 6 -8 6q-2 4 -6.5 5t-7.5 3q-5 0 -13 6q-5 0 -9.5 1t-10.5 6q-10 3 -13.5 6.5l-7.5 7.5q-12 4 -12 14 q-6 12 -6 25q0 19 6 26q1 4 6 11l8 10q4 2 9.5 4t13.5 6q6 0 11 1t13 1q4 0 8.5 -1t10.5 -1l16 -6q3 -4 6.5 -7t7.5 -7q3 -2 7 -5.5t4 -7.5l-14 -8l-21 -4l-6 2q-3 1 -6 4q-2 0 -3.5 1t-4.5 1h-17q-2 0 -3 -1t-5 -3l-7 -6q-1 -3 -1 -10q3 -6 4.5 -9.5t3.5 -7.5h6q9 -2 14 -5 t11 -5l8 -2q5 -4 9.5 -5.5t10.5 -4.5q6 -2 16.5 -13.5t10.5 -17.5q5 -9 6 -20q0 -15 -8 -29l-8 -13q-3 -5 -9 -8q-6 -6 -11 -10t-13 -6q-5 -2 -14 -3t-15 -1q-12 0 -33 4q-10 4 -22 19q-4 1 -6 5l-4 9q-6 2 -7 10zM1556 387v16l11 19q2 2 4.5 6t7.5 8q6 9 12 10q3 5 9 6 t10 3q4 0 8 2t10 2q4 0 10.5 -2t10.5 -2q4 -2 8 -3t8 -6l12 -10l13 -14q2 -4 4 -8.5t4 -10.5q0 -4 1 -9t1 -7q0 -6 -1 -14t-5 -17q-4 -13 -17 -20q-4 -4 -9 -8t-13 -9q-11 -2 -27 -2h-15q-4 0 -11 2q-16 4 -23 17q-12 9 -16 20q-6 15 -7 31zM1573 379q3 -15 8 -23q0 -2 2 -4 t4 -6l6 -4q2 -2 9 -2q2 -4 6 -5t6 -3h28q5 2 8 3t7 5l10 6q2 4 5 6t3 4q2 3 3 8t3 9q0 2 1 6t1 8q0 2 -1 8t-5 12q0 6 -4 10.5t-6 8.5q-3 1 -8 6l-10 6h-43q-4 -4 -9.5 -7t-9.5 -5q-2 -3 -5 -8t-3 -11q-3 -6 -4.5 -12t-1.5 -8v-8zM1628 604h94v21h-71v47h59v18h-59v45h71v23 h-94v-154zM1714 66v4l8 12q7 4 9 4l15 4l9 -8q6 0 6 -6l2 -10q0 -7 -2 -9q0 -4 -6 -10l-24 -4q-4 4 -9 4q0 2 -6 10q-2 2 -2 9zM1724 317v138h19l82 -113v113h14v-138h-12l-82 113v4h-4v-117h-17zM1778 154q0 9 1 14.5t3 13.5q2 17 10 25l9 13.5t9 10.5l25 19l27 10 q5 0 12.5 1t15.5 1h13q4 0 16 -3t16 -5l23 -14q4 -4 7.5 -8.5t6.5 -8.5l-14 -16h-15q-7 0 -14 4q-3 2 -8.5 5t-9.5 5q-9 2 -11 2h-10q-16 0 -28 -6q-16 -2 -23 -14q-7 -7 -14 -25q-2 -4 -4 -10t-2 -14q0 -10 6 -27.5t14 -24.5q10 -10 23 -16q13 -4 28 -4q5 0 10 1t11 1 q3 2 8.5 5t9.5 7q2 0 8 2h13q2 0 8 -2q2 -1 8 -6l6 -8l-6 -8t-8 -8q-6 -3 -11 -6t-12 -7q-5 -3 -16.5 -6.5t-17.5 -3.5h-11q-12 0 -23.5 2t-21.5 4q-21 10 -35 27q-16 15 -22 35q-4 10 -7 20t-3 23zM1810 679q0 -5 2.5 -13.5t6.5 -14.5q5 -16 16 -26q9 -15 25 -15 q12 -6 30 -6h21q3 2 8.5 4t9.5 4q4 3 8.5 6t5.5 7q10 5 15 16l8 18v43q-2 5 -3.5 9.5t-4.5 9.5q-5 6 -15 14q-1 4 -5.5 7t-8.5 8q-2 1 -4.5 2t-5.5 2l-8 4h-41q-5 -2 -10.5 -4t-10.5 -4q-3 -5 -6.5 -8t-7.5 -7q-3 -4 -6.5 -7t-5.5 -7q-2 -6 -5 -10t-3 -9q-5 -11 -5 -23z M1833 679q0 12 6 23q0 5 3 11t7 8q9 9 19.5 12.5t21.5 3.5q13 0 23 -4l18 -12q2 -2 6.5 -8t5.5 -11q4 -7 5 -23q0 -13 -5 -22q-1 -4 -6 -10l-6 -6q-5 -4 -9.5 -7t-8.5 -7q-9 -4 -23 -4q-15 0 -22 4q-5 4 -10 7t-9 7q-3 2 -6.5 7t-3.5 9q-4 6 -5 11.5t-1 10.5zM1942 317v138 h83v-17h-67v-49h55v-12h-55v-60h-16zM1989 154q0 9 1 14.5t1 13.5q3 7 6.5 14t7.5 11q2 9 6 13.5t10 10.5q3 4 10 8.5t13 10.5q4 2 11 4t13 6q11 0 17 1t12 1q10 0 17.5 -1t13.5 -1q6 -4 13 -6t13 -4q14 -11 25 -19q2 -6 8 -10.5t8 -13.5q3 -4 6 -10.5t5 -14.5q4 -7 4 -15 v-30q0 -7 -4 -12q-2 -7 -5 -15t-6 -14q-4 -7 -16 -20l-12 -10t-13 -9q-5 -5 -12.5 -7.5l-13.5 -4.5q-9 -2 -14 -2h-17q-20 0 -43 6q-9 6 -16.5 12.5t-16.5 14.5q-9 6 -14.5 14t-7.5 21q-6 10 -8 20t-2 23zM1997 604h22v121l90 -121h17v154h-21v-119l-2.5 5t-3.5 5l-74 103 l-4 6h-24v-154zM2030 154q0 -9 1 -15t1 -12q9 -17 16 -25q6 -4 11 -8t12 -8q7 -2 14.5 -3t11.5 -1q21 0 29 4q29 11 39 41q5 13 6 27q0 16 -6 24q-3 14 -14 24.5t-25 14.5q-4 4 -11.5 5t-17.5 1q-11 0 -26 -6q-7 -1 -12 -4.5t-11 -9.5q-9 -6 -16 -25q0 -4 -1 -10t-1 -14z M2042 317v138h57q3 0 10 -2q2 -2 5.5 -4.5t4.5 -4.5q4 -2 5.5 -6t7.5 -8v-27q-4 -4 -5 -8t-3 -6l-10 -8q-4 -1 -7.5 -2t-5.5 -2l45 -60h-12q-7 2 -8.5 3.5t-1.5 5.5l-39 51h-27v-60h-16zM2058 389h35q4 1 8 4q4 4 8 4q5 7 5 9q2 4 2 12q0 3 -2 8q0 1 -5 8q-3 0 -8 4h-43v-49 zM2161 387q0 2 1 7t1 9q2 4 3 9.5t5 9.5q2 3 5 6.5t5 7.5q7 5 17 10q3 5 8.5 6t7.5 3q5 0 8.5 2t11.5 2q2 0 7.5 -2t11.5 -2q4 -2 8 -3t6 -6q4 -2 9 -5t8 -5q1 -2 2 -3.5t2 -3.5l4 -7q6 -11 8 -19q2 -4 3 -9t1 -7q0 -6 -1 -14t-5 -17q0 -6 -6 -11l-8 -9q-6 -4 -12.5 -8 t-12.5 -9q-9 -2 -13 -2h-29q-4 0 -13 2q-12 4 -23 17q-7 7 -14 20q-2 9 -4 17t-2 14zM2163 604h90v21h-68v133h-22v-154zM2179 373q0 -4 1 -9t5 -8l4 -4q3 -3 4 -6l6 -4q7 -5 11.5 -6.5t7.5 -3.5h31l6 3q5 4 9.5 6t8.5 5l3 6q3 6 6.5 11.5t3.5 9.5v34q-2 6 -6.5 10.5 t-6.5 8.5q-6 2 -10 5t-8 7h-43q-6 -4 -10 -7t-9 -5q-7 -5 -12 -19q-2 -9 -2 -12v-22zM2228 758l58 -76v-3l4 -3v-72h21v70l5 5v3l58 76h-19q-5 0 -9.5 -4t-4.5 -9l-37 -47h-4l-39 47q-3 14 -16 13h-17zM2236 43v219h39q5 0 7 -1t4 -1q2 -2 3 -2t3 -2l8 -4q0 -2 2 -4t2 -4 q4 -17 11 -32t16 -34q6 -16 12 -32.5t12 -30.5v-13l6 13l9 14l45 115l4 8l6 4q2 2 4 2t4 2l1 1l44 1v-219h-37v160l-6 -10v-6q-9 -19 -15.5 -38.5t-15.5 -33.5q-6 -19 -12 -35.5t-14 -36.5h-37l-55 139q-5 3 -5 11l-4 6v-156h-41zM2333 317v138h14l8 -4v-5l49 -106l3 -2v4 q0 1 8 6l40 98q2 5 3.5 5t1.5 2l18 2v-138h-12v113l-2 -2v-2q-4 -7 -7 -17t-8 -14q-4 -7 -6 -13.5t-8 -14.5q-2 -9 -3 -15t-5 -10q-3 -9 -6.5 -13.5t-5.5 -11.5h-15q-10 13 -15 26t-11 28q-4 12 -11.5 26.5t-11.5 28.5v2h-4v-111h-14z" />
<glyph unicode="4" d="M66 43v14q0 10 2 11q0 2 6 8v4l2 4l4 4t2 6l94 129h-102v39h159v-24l-8 -15l-106 -143h2l2 2h108v-39h-165zM66 387q0 6 4 16q1 4 2.5 9.5t5.5 9.5l9 14q2 2 6.5 5t6.5 5q5 5 10 6t9 3q3 0 8.5 2t11.5 2q16 0 27 -8q14 -4 22 -15l-5 -6h-13q-3 2 -6.5 5t-7.5 3h-37 l-21 -12q-4 -3 -7.5 -7.5t-4.5 -11.5q-2 -6 -3 -12t-1 -8q0 -10 4 -14q0 -4 0.5 -9t0.5 -8l5 -4q5 -1 6 -6l8 -5q2 -1 7 -1q2 -4 5 -5t7 -3h33q2 2 7 3t9 5v29h-14v2l-6 4h-3l-1 8h38v-51q-2 -5 -4 -6.5t-6 -6.5h-12q-9 -2 -12 -2h-35q-5 0 -19 9q-7 0 -13 10l-9 14 q-4 4 -5.5 8t-2.5 9q-2 6 -3 10t-1 10zM74 506v586h911q0 30 5 59t20 53q12 29 26.5 52.5t36.5 41.5q38 42 92 62q27 12 54.5 17t56.5 5q33 0 61.5 -6t53.5 -16q59 -29 94.5 -64.5t62.5 -95.5q19 -52 19 -108h911v-586h-2404zM199 604h18v58h35q4 0 10 0.5t8 3.5q11 4 15 10 q4 2 7 6t3 8q5 13 6 19q0 10 -6 20q0 2 -4 6l-6 6q-2 3 -5.5 7t-9.5 4q-2 4 -8 5t-10 1h-53v-154zM217 682v53h35q4 0 10 -2l8 -4q2 -1 3 -4.5t3 -5.5q3 -4 3 -10v-4q0 -2 -3 -7q-2 -2 -3 -5t-3 -3q-1 -2 -3 -4t-5 -4h-45zM223 317v138h84v-17h-67v-43h55v-16h-55v-47h67 v-15h-84zM260 43v219h139v-39h-100v-49h82v-41h-82v-51h100v-39h-139zM315 604h97v21h-74v47h59v18h-59v45h74v23h-97v-154zM324 438v17h106v-17h-47v-121h-12v121h-47zM406 223v39h165v-39h-59v-180h-43v180h-63zM442 604h23v64h24l39 -56q1 -4 7 -6l24 -2l-47 68q4 0 12 4 q7 3 8 10q9 6 9 12v25q-6 15 -13 20q-5 9 -14 9q-2 4 -7 5t-9 1h-56v-154zM465 688v47h33q3 0 10 -2l6 -4l2 -4l2 -4q3 -1 4 -10q-1 -6 -4 -9l-4 -8q-2 0 -3 -2t-3 -2q-2 -2 -10 -2h-33zM516 317v138h86v-17h-70v-49h60v-12h-60v-60h-16zM541 43l96 219h35l94 -219h-25 q-9 0 -16 4q-2 2 -4 7t-6 9l-13 27h-100l-10 -27q0 -6 -4 -6l-8 -10q-2 0 -3.5 -1t-5.5 -1zM565 633l10 -18h3q7 -7 16.5 -9t19.5 -2h9q5 0 12 2q4 2 9 4t7 5q4 2 7.5 6t4.5 10q2 5 3.5 8.5t1.5 9.5q0 11 -5.5 19t-11.5 14q-2 0 -4 2t-6 4l-4 2h-4q-4 3 -6.5 3.5t-3.5 1.5 q-7 2 -9 3.5t-6 3.5q-6 3 -9 3l-3 22q9 7 12 8l15 2q11 -3 12 -6l6 -2q10 0 14 4l4 2l-6 8q-2 1 -5 4t-7 5q-2 0 -4 2t-6 4h-29q-5 -2 -7.5 -4t-6.5 -4q-2 -5 -6 -8t-7 -7q0 -4 -2 -7t-2 -9q0 -7 4 -17l5 -8l6 -4q2 -2 6 -5t7 -3l8 -5q2 -1 7 -1q1 -2 6 -2t7 -2l6 -2 q5 -4 5.5 -5.5t2.5 -5.5l2 -16q-4 -5 -4 -7.5t-2 -4.5q-1 -3 -7 -5l-3 -1q-4 0 -8 -1t-5 -1q-5 0 -11.5 1.5t-6.5 6.5l-4 2q-4 4 -12 4h-5zM623 129h61l-29 74h-2zM627 371v84h14v-84q0 -6 2 -9.5t6 -5.5q0 -6 3 -9.5t5 -4.5q0 -2 4.5 -4t6.5 -4q6 -2 8 -2h16q9 4 13 6l8 4 q4 1 8 14q4 3 4 15v84h14v-84q0 -10 -3.5 -22t-12.5 -17q-5 -13 -16 -13q-6 -1 -12 -1.5t-11 -0.5t-11 0.5t-14 1.5q-3 0 -16 13l-10 16q-1 6 -3.5 11.5t-2.5 11.5zM684 679q0 -16 6.5 -29t16.5 -25q12 -15 26 -15q12 -6 29 -6h20q6 2 11 4t8 4q12 5 16 13q7 7 12 16 q2 4 5.5 9t3.5 9q1 6 2.5 10.5t1.5 9.5q0 13 -4 23q0 5 -3.5 9t-5.5 10q-2 3 -5 6.5t-7 7.5l-7 6q-2 3 -9 9l-8 4q-2 1 -5 2l-6 2h-41q-11 -4 -18 -8q-4 -5 -8 -8t-8 -7q-12 -9 -13 -14q-4 -6 -5 -10t-3 -9q-1 -5 -1.5 -10.5t-0.5 -12.5zM705 679q0 21 9 32.5t25 21.5 q5 2 12 3t11 1q14 0 22 -4q13 -5 17 -12q6 -2 9 -8t5 -11q4 -7 4 -23q0 -11 -4 -22q-2 -4 -5 -9t-9 -7q-5 -10 -17 -14t-22 -4q-11 0 -23 4q-4 4 -9 7t-9 7q-2 2 -6 7t-6 9q-4 12 -4 22zM768 317v138h16v-123h64v-15h-80zM774 43v219h139v-39h-100v-56h82v-38h-82v-86h-39z M862 317v138h17v-123h63v-15h-80zM870 604h21v125h2l2 -2v-4l86 -119h16v154h-18v-119l-78 113q-4 0 -6 6h-25v-154zM928 154v13q0 4 2 15q5 18 12 25q4 9 8 13.5t8 10.5q7 4 12 8.5t11 10.5l29 10q4 0 11 1t15 1q9 0 16 -1t15 -1q6 -4 13 -6l14 -4l22 -19q4 -6 9 -10.5 t10 -13.5q2 -4 4 -10.5t6 -14.5q2 -11 2 -15v-30q0 -5 -2 -12q-3 -7 -5.5 -15t-4.5 -14q-5 -4 -10 -10t-9 -10q-15 -15 -23 -19.5t-26 -11.5q-4 -1 -7.5 -1.5t-7.5 -0.5h-16q-10 0 -20 2t-23 4q-12 6 -19 12.5t-16 14.5q-16 15 -23 35.5t-7 42.5zM967 139q0 -4 6 -12 q5 -15 13.5 -24t23.5 -17q10 -4 26 -4q19 0 29 4q15 7 20 16q14 5 18.5 22t4.5 30q0 15 -4 24q-4 18 -19 25q-2 6 -8 9t-12 5q-11 6 -29 6q-14 0 -26 -6q-11 -1 -23 -14q-9 -5 -14 -25q-5 -5 -6 -11v-28zM1010 455h5q11 0 15 -9l43 -104v-2h2l2 2q5 14 13 27.5t12 25.5 q4 15 10 27l12 24q0 5 1.5 5t1.5 2l18 2q-7 -17 -15 -34.5t-16 -33.5q-4 -9 -7.5 -18.5t-6.5 -18.5l-15 -33h-16zM1010 1092q0 -61 18.5 -103t56.5 -88q38 -37 87 -58.5t104 -21.5q53 0 102 19t85 59q21 19 35.5 40.5t25.5 43.5q21 54 22 109q0 46 -14.5 87.5t-44.5 77.5 q-14 19 -29.5 32.5t-34.5 25.5q-18 7 -37.5 17.5t-39.5 17.5l-32.5 6.5t-37.5 3.5q-59 0 -107 -25q-49 -17 -84 -57q-36 -36 -55.5 -85.5t-19.5 -100.5zM1014 604h12q7 0 10 2q0 2 6 6l11 27h77l11 -27q1 -4 6 -6q2 -2 8 -2h14l-67 154h-21zM1036 1092q0 19 3 40t12 42 q4 19 14 36t25 33h319l-315 -315q-28 36 -43 76q-9 18 -12 40.5t-3 47.5zM1061 659l29 64v6l2 -2v-4l28 -64h-59zM1114 1271q36 30 74 44q39 18 88 18q47 0 90 -18q17 -9 36 -21t36 -23h-324zM1116 909h322q-17 -14 -36 -26t-36 -19q-23 -6 -45.5 -11t-44.5 -5q-25 0 -46 5 t-42 11q-19 7 -37 19t-35 26zM1141 935l315 318q62 -78 62 -161q0 -23 -3.5 -44.5t-11.5 -41.5q-14 -37 -41 -71h-321zM1155 317v138h84v-17h-68v-43h60v-16h-60v-47h68v-15h-84zM1175 43v219h35q4 0 8.5 -1t4.5 -3q3 -2 5.5 -2t4.5 -2l22 -33q5 -9 10 -17.5t11 -17.5 q14 -14 24.5 -29.5t24.5 -29.5q0 -2 1 -5t1 -7l2 -5v152h38v-219h-36l-100 147l-4 3v2q-5 10 -7.5 12t-5.5 2v-166h-39zM1184 604h86v21h-66v133h-20v-154zM1274 317v138h56q10 -2 14.5 -4.5t9.5 -6.5q0 -2 3 -6t3 -8l2 -20q-3 -17 -6 -21l-6 -4q-2 -2 -7 -4q-3 -3 -12 -4 l47 -60h-15q-10 3 -9 9l-39 51h-28v-60h-13zM1287 389h38q5 0 6 4q4 4 10 4l2 4q5 11 5 17q0 2 -1 3t-1 5q-3 2 -4 3t-1 5q-5 0 -10 4h-44v-49zM1358 666q0 -7 1.5 -17.5t6.5 -15.5q2 -6 10 -12q2 -3 4.5 -6t8.5 -5q2 -2 6 -3t8 -3q4 0 7 -1t9 -1q4 0 7.5 1t11.5 1q2 2 5 3 t7 3q9 6 12 11q3 2 5.5 5t5.5 7q0 4 3 7t3 7v111h-21v-103q0 -3 -2 -8q-1 -7 -10 -12q0 -2 -4 -4t-6 -6l-9 -2h-8q-7 0 -14 2q-5 4 -8.5 6t-5.5 4l-11 12q0 3 -1 7.5t-1 11.5v92h-20v-92zM1389 223v39h165v-39h-65v-180h-39v180h-61zM1389 340l4 2h6q1 0 3.5 -1t4.5 -1 q4 -4 7 -5t5 -3h21q8 0 12 4q1 2 2 3.5t2 3.5q2 2 3 6.5t1 6.5q0 18 -16 23q-3 0 -13 4t-12 6q-10 0 -14 8q-2 0 -4 3l-4 6v23q0 1 2 7q0 9 8 10l6 5l4 2l4 2q4 0 6.5 2t8.5 2l10 -4q3 0 4.5 -1t5.5 -3q6 0 6 -7q5 0 7 -3l1 -3l-2 -2q-6 -2 -10 -2h-6l-25 4q-9 0 -8 -2 q-5 -7 -6 -8q-4 0 -4 -8q0 -5 4 -6q0 -4 4 -7l6 -4q4 -4 7.5 -4t7.5 -2l6 -2q3 0 8 -6h4l6 -2q5 -4 8 -7l5 -5q1 -5 1.5 -9.5t0.5 -9.5v-10q-5 -9 -7.5 -13t-7.5 -7q-2 -2 -6 -4.5t-6 -2.5q-4 -2 -10 -2h-10q-10 0 -17.5 1t-13.5 8q-2 0 -3 3t-5 5v4zM1501 633l8 -10v-2 q7 -5 9 -6q6 -7 14 -9t18 -2h12q3 0 11 2q2 2 6 4t8 5l6 8q3 3 4 8q7 7 7 18t-4.5 19t-12.5 14q-6 5 -6 6h-4l-39 17l-6 6q0 1 -1 3.5t-1 4.5q0 4 4 8q5 4 6.5 6t5.5 2q2 2 10 2l3 -1q5 -2 8 -3l6 -2q6 -2 8 -2q7 0 8 4l6 2q0 2 -3 4t-5 4q0 1 -3 4l-5 5q-3 0 -5.5 2t-6.5 4 h-6l-5 1q-6 0 -10 -0.5t-8 -0.5l-14 -8l-11 -15q-1 -4 -3.5 -7t-2.5 -9q0 -4 2 -8t4 -9q2 -4 4.5 -7t4.5 -5q4 -2 7 -5t7 -3q9 -5 14 -6q4 -2 6.5 -2t6.5 -2q5 0 10.5 -3.5t5.5 -9.5l2 -15q-2 -7 -4 -9l-4 -4q-12 -9 -23 -8q-2 0 -6 1t-6 1q-3 1 -8 6l-3 2q-4 4 -9 4h-7z M1507 317v138h17v-138h-17zM1556 90l7 4l8 2l2 2h10q13 -3 14 -4q5 -4 9 -6t6 -4q2 0 6 -1t10 -1h5q9 2 13 3.5t7 4.5q2 2 4.5 4t3.5 4q2 4 4 7.5t2 7.5q0 6 -6 10q-4 6 -8 6q-2 4 -6.5 5t-7.5 3q-5 0 -13 6q-5 0 -9.5 1t-10.5 6q-10 3 -13.5 6.5l-7.5 7.5q-12 4 -12 14 q-6 12 -6 25q0 19 6 26q1 4 6 11l8 10q4 2 9.5 4t13.5 6q6 0 11 1t13 1q4 0 8.5 -1t10.5 -1l16 -6q3 -4 6.5 -7t7.5 -7q3 -2 7 -5.5t4 -7.5l-14 -8l-21 -4l-6 2q-3 1 -6 4q-2 0 -3.5 1t-4.5 1h-17q-2 0 -3 -1t-5 -3l-7 -6q-1 -3 -1 -10q3 -6 4.5 -9.5t3.5 -7.5h6q9 -2 14 -5 t11 -5l8 -2q5 -4 9.5 -5.5t10.5 -4.5q6 -2 16.5 -13.5t10.5 -17.5q5 -9 6 -20q0 -15 -8 -29l-8 -13q-3 -5 -9 -8q-6 -6 -11 -10t-13 -6q-5 -2 -14 -3t-15 -1q-12 0 -33 4q-10 4 -22 19q-4 1 -6 5l-4 9q-6 2 -7 10zM1556 387v16l11 19q2 2 4.5 6t7.5 8q6 9 12 10q3 5 9 6 t10 3q4 0 8 2t10 2q4 0 10.5 -2t10.5 -2q4 -2 8 -3t8 -6l12 -10l13 -14q2 -4 4 -8.5t4 -10.5q0 -4 1 -9t1 -7q0 -6 -1 -14t-5 -17q-4 -13 -17 -20q-4 -4 -9 -8t-13 -9q-11 -2 -27 -2h-15q-4 0 -11 2q-16 4 -23 17q-12 9 -16 20q-6 15 -7 31zM1573 379q3 -15 8 -23q0 -2 2 -4 t4 -6l6 -4q2 -2 9 -2q2 -4 6 -5t6 -3h28q5 2 8 3t7 5l10 6q2 4 5 6t3 4q2 3 3 8t3 9q0 2 1 6t1 8q0 2 -1 8t-5 12q0 6 -4 10.5t-6 8.5q-3 1 -8 6l-10 6h-43q-4 -4 -9.5 -7t-9.5 -5q-2 -3 -5 -8t-3 -11q-3 -6 -4.5 -12t-1.5 -8v-8zM1628 604h94v21h-71v47h59v18h-59v45h71v23 h-94v-154zM1714 66v4l8 12q7 4 9 4l15 4l9 -8q6 0 6 -6l2 -10q0 -7 -2 -9q0 -4 -6 -10l-24 -4q-4 4 -9 4q0 2 -6 10q-2 2 -2 9zM1724 317v138h19l82 -113v113h14v-138h-12l-82 113v4h-4v-117h-17zM1778 154q0 9 1 14.5t3 13.5q2 17 10 25l9 13.5t9 10.5l25 19l27 10 q5 0 12.5 1t15.5 1h13q4 0 16 -3t16 -5l23 -14q4 -4 7.5 -8.5t6.5 -8.5l-14 -16h-15q-7 0 -14 4q-3 2 -8.5 5t-9.5 5q-9 2 -11 2h-10q-16 0 -28 -6q-16 -2 -23 -14q-7 -7 -14 -25q-2 -4 -4 -10t-2 -14q0 -10 6 -27.5t14 -24.5q10 -10 23 -16q13 -4 28 -4q5 0 10 1t11 1 q3 2 8.5 5t9.5 7q2 0 8 2h13q2 0 8 -2q2 -1 8 -6l6 -8l-6 -8t-8 -8q-6 -3 -11 -6t-12 -7q-5 -3 -16.5 -6.5t-17.5 -3.5h-11q-12 0 -23.5 2t-21.5 4q-21 10 -35 27q-16 15 -22 35q-4 10 -7 20t-3 23zM1810 679q0 -5 2.5 -13.5t6.5 -14.5q5 -16 16 -26q9 -15 25 -15 q12 -6 30 -6h21q3 2 8.5 4t9.5 4q4 3 8.5 6t5.5 7q10 5 15 16l8 18v43q-2 5 -3.5 9.5t-4.5 9.5q-5 6 -15 14q-1 4 -5.5 7t-8.5 8q-2 1 -4.5 2t-5.5 2l-8 4h-41q-5 -2 -10.5 -4t-10.5 -4q-3 -5 -6.5 -8t-7.5 -7q-3 -4 -6.5 -7t-5.5 -7q-2 -6 -5 -10t-3 -9q-5 -11 -5 -23z M1833 679q0 12 6 23q0 5 3 11t7 8q9 9 19.5 12.5t21.5 3.5q13 0 23 -4l18 -12q2 -2 6.5 -8t5.5 -11q4 -7 5 -23q0 -13 -5 -22q-1 -4 -6 -10l-6 -6q-5 -4 -9.5 -7t-8.5 -7q-9 -4 -23 -4q-15 0 -22 4q-5 4 -10 7t-9 7q-3 2 -6.5 7t-3.5 9q-4 6 -5 11.5t-1 10.5zM1942 317v138 h83v-17h-67v-49h55v-12h-55v-60h-16zM1989 154q0 9 1 14.5t1 13.5q3 7 6.5 14t7.5 11q2 9 6 13.5t10 10.5q3 4 10 8.5t13 10.5q4 2 11 4t13 6q11 0 17 1t12 1q10 0 17.5 -1t13.5 -1q6 -4 13 -6t13 -4q14 -11 25 -19q2 -6 8 -10.5t8 -13.5q3 -4 6 -10.5t5 -14.5q4 -7 4 -15 v-30q0 -7 -4 -12q-2 -7 -5 -15t-6 -14q-4 -7 -16 -20l-12 -10t-13 -9q-5 -5 -12.5 -7.5l-13.5 -4.5q-9 -2 -14 -2h-17q-20 0 -43 6q-9 6 -16.5 12.5t-16.5 14.5q-9 6 -14.5 14t-7.5 21q-6 10 -8 20t-2 23zM1997 604h22v121l90 -121h17v154h-21v-119l-2.5 5t-3.5 5l-74 103 l-4 6h-24v-154zM2030 154q0 -9 1 -15t1 -12q9 -17 16 -25q6 -4 11 -8t12 -8q7 -2 14.5 -3t11.5 -1q21 0 29 4q29 11 39 41q5 13 6 27q0 16 -6 24q-3 14 -14 24.5t-25 14.5q-4 4 -11.5 5t-17.5 1q-11 0 -26 -6q-7 -1 -12 -4.5t-11 -9.5q-9 -6 -16 -25q0 -4 -1 -10t-1 -14z M2042 317v138h57q3 0 10 -2q2 -2 5.5 -4.5t4.5 -4.5q4 -2 5.5 -6t7.5 -8v-27q-4 -4 -5 -8t-3 -6l-10 -8q-4 -1 -7.5 -2t-5.5 -2l45 -60h-12q-7 2 -8.5 3.5t-1.5 5.5l-39 51h-27v-60h-16zM2058 389h35q4 1 8 4q4 4 8 4q5 7 5 9q2 4 2 12q0 3 -2 8q0 1 -5 8q-3 0 -8 4h-43v-49 zM2161 387q0 2 1 7t1 9q2 4 3 9.5t5 9.5q2 3 5 6.5t5 7.5q7 5 17 10q3 5 8.5 6t7.5 3q5 0 8.5 2t11.5 2q2 0 7.5 -2t11.5 -2q4 -2 8 -3t6 -6q4 -2 9 -5t8 -5q1 -2 2 -3.5t2 -3.5l4 -7q6 -11 8 -19q2 -4 3 -9t1 -7q0 -6 -1 -14t-5 -17q0 -6 -6 -11l-8 -9q-6 -4 -12.5 -8 t-12.5 -9q-9 -2 -13 -2h-29q-4 0 -13 2q-12 4 -23 17q-7 7 -14 20q-2 9 -4 17t-2 14zM2163 604h90v21h-68v133h-22v-154zM2179 373q0 -4 1 -9t5 -8l4 -4q3 -3 4 -6l6 -4q7 -5 11.5 -6.5t7.5 -3.5h31l6 3q5 4 9.5 6t8.5 5l3 6q3 6 6.5 11.5t3.5 9.5v34q-2 6 -6.5 10.5 t-6.5 8.5q-6 2 -10 5t-8 7h-43q-6 -4 -10 -7t-9 -5q-7 -5 -12 -19q-2 -9 -2 -12v-22zM2228 758l58 -76v-3l4 -3v-72h21v70l5 5v3l58 76h-19q-5 0 -9.5 -4t-4.5 -9l-37 -47h-4l-39 47q-3 14 -16 13h-17zM2236 43v219h39q5 0 7 -1t4 -1q2 -2 3 -2t3 -2l8 -4q0 -2 2 -4t2 -4 q4 -17 11 -32t16 -34q6 -16 12 -32.5t12 -30.5v-13l6 13l9 14l45 115l4 8l6 4q2 2 4 2t4 2l1 1l44 1v-219h-37v160l-6 -10v-6q-9 -19 -15.5 -38.5t-15.5 -33.5q-6 -19 -12 -35.5t-14 -36.5h-37l-55 139q-5 3 -5 11l-4 6v-156h-41zM2333 317v138h14l8 -4v-5l49 -106l3 -2v4 q0 1 8 6l40 98q2 5 3.5 5t1.5 2l18 2v-138h-12v113l-2 -2v-2q-4 -7 -7 -17t-8 -14q-4 -7 -6 -13.5t-8 -14.5q-2 -9 -3 -15t-5 -10q-3 -9 -6.5 -13.5t-5.5 -11.5h-15q-10 13 -15 26t-11 28q-4 12 -11.5 26.5t-11.5 28.5v2h-4v-111h-14z" />
<glyph unicode="5" d="M66 43v14q0 10 2 11q0 2 6 8v4l2 4l4 4t2 6l94 129h-102v39h159v-24l-8 -15l-106 -143h2l2 2h108v-39h-165zM66 387q0 6 4 16q1 4 2.5 9.5t5.5 9.5l9 14q2 2 6.5 5t6.5 5q5 5 10 6t9 3q3 0 8.5 2t11.5 2q16 0 27 -8q14 -4 22 -15l-5 -6h-13q-3 2 -6.5 5t-7.5 3h-37 l-21 -12q-4 -3 -7.5 -7.5t-4.5 -11.5q-2 -6 -3 -12t-1 -8q0 -10 4 -14q0 -4 0.5 -9t0.5 -8l5 -4q5 -1 6 -6l8 -5q2 -1 7 -1q2 -4 5 -5t7 -3h33q2 2 7 3t9 5v29h-14v2l-6 4h-3l-1 8h38v-51q-2 -5 -4 -6.5t-6 -6.5h-12q-9 -2 -12 -2h-35q-5 0 -19 9q-7 0 -13 10l-9 14 q-4 4 -5.5 8t-2.5 9q-2 6 -3 10t-1 10zM74 506v586h911q0 30 5 59t20 53q12 29 26.5 52.5t36.5 41.5q38 42 92 62q27 12 54.5 17t56.5 5q33 0 61.5 -6t53.5 -16q59 -29 94.5 -64.5t62.5 -95.5q19 -52 19 -108h911v-586h-2404zM199 604h18v58h35q4 0 10 0.5t8 3.5q11 4 15 10 q4 2 7 6t3 8q5 13 6 19q0 10 -6 20q0 2 -4 6l-6 6q-2 3 -5.5 7t-9.5 4q-2 4 -8 5t-10 1h-53v-154zM217 682v53h35q4 0 10 -2l8 -4q2 -1 3 -4.5t3 -5.5q3 -4 3 -10v-4q0 -2 -3 -7q-2 -2 -3 -5t-3 -3q-1 -2 -3 -4t-5 -4h-45zM223 317v138h84v-17h-67v-43h55v-16h-55v-47h67 v-15h-84zM260 43v219h139v-39h-100v-49h82v-41h-82v-51h100v-39h-139zM315 604h97v21h-74v47h59v18h-59v45h74v23h-97v-154zM324 438v17h106v-17h-47v-121h-12v121h-47zM406 223v39h165v-39h-59v-180h-43v180h-63zM442 604h23v64h24l39 -56q1 -4 7 -6l24 -2l-47 68q4 0 12 4 q7 3 8 10q9 6 9 12v25q-6 15 -13 20q-5 9 -14 9q-2 4 -7 5t-9 1h-56v-154zM465 688v47h33q3 0 10 -2l6 -4l2 -4l2 -4q3 -1 4 -10q-1 -6 -4 -9l-4 -8q-2 0 -3 -2t-3 -2q-2 -2 -10 -2h-33zM516 317v138h86v-17h-70v-49h60v-12h-60v-60h-16zM541 43l96 219h35l94 -219h-25 q-9 0 -16 4q-2 2 -4 7t-6 9l-13 27h-100l-10 -27q0 -6 -4 -6l-8 -10q-2 0 -3.5 -1t-5.5 -1zM565 633l10 -18h3q7 -7 16.5 -9t19.5 -2h9q5 0 12 2q4 2 9 4t7 5q4 2 7.5 6t4.5 10q2 5 3.5 8.5t1.5 9.5q0 11 -5.5 19t-11.5 14q-2 0 -4 2t-6 4l-4 2h-4q-4 3 -6.5 3.5t-3.5 1.5 q-7 2 -9 3.5t-6 3.5q-6 3 -9 3l-3 22q9 7 12 8l15 2q11 -3 12 -6l6 -2q10 0 14 4l4 2l-6 8q-2 1 -5 4t-7 5q-2 0 -4 2t-6 4h-29q-5 -2 -7.5 -4t-6.5 -4q-2 -5 -6 -8t-7 -7q0 -4 -2 -7t-2 -9q0 -7 4 -17l5 -8l6 -4q2 -2 6 -5t7 -3l8 -5q2 -1 7 -1q1 -2 6 -2t7 -2l6 -2 q5 -4 5.5 -5.5t2.5 -5.5l2 -16q-4 -5 -4 -7.5t-2 -4.5q-1 -3 -7 -5l-3 -1q-4 0 -8 -1t-5 -1q-5 0 -11.5 1.5t-6.5 6.5l-4 2q-4 4 -12 4h-5zM623 129h61l-29 74h-2zM627 371v84h14v-84q0 -6 2 -9.5t6 -5.5q0 -6 3 -9.5t5 -4.5q0 -2 4.5 -4t6.5 -4q6 -2 8 -2h16q9 4 13 6l8 4 q4 1 8 14q4 3 4 15v84h14v-84q0 -10 -3.5 -22t-12.5 -17q-5 -13 -16 -13q-6 -1 -12 -1.5t-11 -0.5t-11 0.5t-14 1.5q-3 0 -16 13l-10 16q-1 6 -3.5 11.5t-2.5 11.5zM684 679q0 -16 6.5 -29t16.5 -25q12 -15 26 -15q12 -6 29 -6h20q6 2 11 4t8 4q12 5 16 13q7 7 12 16 q2 4 5.5 9t3.5 9q1 6 2.5 10.5t1.5 9.5q0 13 -4 23q0 5 -3.5 9t-5.5 10q-2 3 -5 6.5t-7 7.5l-7 6q-2 3 -9 9l-8 4q-2 1 -5 2l-6 2h-41q-11 -4 -18 -8q-4 -5 -8 -8t-8 -7q-12 -9 -13 -14q-4 -6 -5 -10t-3 -9q-1 -5 -1.5 -10.5t-0.5 -12.5zM705 679q0 21 9 32.5t25 21.5 q5 2 12 3t11 1q14 0 22 -4q13 -5 17 -12q6 -2 9 -8t5 -11q4 -7 4 -23q0 -11 -4 -22q-2 -4 -5 -9t-9 -7q-5 -10 -17 -14t-22 -4q-11 0 -23 4q-4 4 -9 7t-9 7q-2 2 -6 7t-6 9q-4 12 -4 22zM768 317v138h16v-123h64v-15h-80zM774 43v219h139v-39h-100v-56h82v-38h-82v-86h-39z M862 317v138h17v-123h63v-15h-80zM870 604h21v125h2l2 -2v-4l86 -119h16v154h-18v-119l-78 113q-4 0 -6 6h-25v-154zM928 154v13q0 4 2 15q5 18 12 25q4 9 8 13.5t8 10.5q7 4 12 8.5t11 10.5l29 10q4 0 11 1t15 1q9 0 16 -1t15 -1q6 -4 13 -6l14 -4l22 -19q4 -6 9 -10.5 t10 -13.5q2 -4 4 -10.5t6 -14.5q2 -11 2 -15v-30q0 -5 -2 -12q-3 -7 -5.5 -15t-4.5 -14q-5 -4 -10 -10t-9 -10q-15 -15 -23 -19.5t-26 -11.5q-4 -1 -7.5 -1.5t-7.5 -0.5h-16q-10 0 -20 2t-23 4q-12 6 -19 12.5t-16 14.5q-16 15 -23 35.5t-7 42.5zM967 139q0 -4 6 -12 q5 -15 13.5 -24t23.5 -17q10 -4 26 -4q19 0 29 4q15 7 20 16q14 5 18.5 22t4.5 30q0 15 -4 24q-4 18 -19 25q-2 6 -8 9t-12 5q-11 6 -29 6q-14 0 -26 -6q-11 -1 -23 -14q-9 -5 -14 -25q-5 -5 -6 -11v-28zM1010 455h5q11 0 15 -9l43 -104v-2h2l2 2q5 14 13 27.5t12 25.5 q4 15 10 27l12 24q0 5 1.5 5t1.5 2l18 2q-7 -17 -15 -34.5t-16 -33.5q-4 -9 -7.5 -18.5t-6.5 -18.5l-15 -33h-16zM1010 1092q0 -61 18.5 -103t56.5 -88q38 -37 87 -58.5t104 -21.5q53 0 102 19t85 59q21 19 35.5 40.5t25.5 43.5q21 54 22 109q0 46 -14.5 87.5t-44.5 77.5 q-14 19 -29.5 32.5t-34.5 25.5q-18 7 -37.5 17.5t-39.5 17.5l-32.5 6.5t-37.5 3.5q-59 0 -107 -25q-49 -17 -84 -57q-36 -36 -55.5 -85.5t-19.5 -100.5zM1014 604h12q7 0 10 2q0 2 6 6l11 27h77l11 -27q1 -4 6 -6q2 -2 8 -2h14l-67 154h-21zM1036 1092q0 19 3 40t12 42 q4 19 14 36t25 33h319l-315 -315q-28 36 -43 76q-9 18 -12 40.5t-3 47.5zM1061 659l29 64v6l2 -2v-4l28 -64h-59zM1114 1271q36 30 74 44q39 18 88 18q47 0 90 -18q17 -9 36 -21t36 -23h-324zM1116 909h322q-17 -14 -36 -26t-36 -19q-23 -6 -45.5 -11t-44.5 -5q-25 0 -46 5 t-42 11q-19 7 -37 19t-35 26zM1141 935l315 318q62 -78 62 -161q0 -23 -3.5 -44.5t-11.5 -41.5q-14 -37 -41 -71h-321zM1155 317v138h84v-17h-68v-43h60v-16h-60v-47h68v-15h-84zM1175 43v219h35q4 0 8.5 -1t4.5 -3q3 -2 5.5 -2t4.5 -2l22 -33q5 -9 10 -17.5t11 -17.5 q14 -14 24.5 -29.5t24.5 -29.5q0 -2 1 -5t1 -7l2 -5v152h38v-219h-36l-100 147l-4 3v2q-5 10 -7.5 12t-5.5 2v-166h-39zM1184 604h86v21h-66v133h-20v-154zM1274 317v138h56q10 -2 14.5 -4.5t9.5 -6.5q0 -2 3 -6t3 -8l2 -20q-3 -17 -6 -21l-6 -4q-2 -2 -7 -4q-3 -3 -12 -4 l47 -60h-15q-10 3 -9 9l-39 51h-28v-60h-13zM1287 389h38q5 0 6 4q4 4 10 4l2 4q5 11 5 17q0 2 -1 3t-1 5q-3 2 -4 3t-1 5q-5 0 -10 4h-44v-49zM1358 666q0 -7 1.5 -17.5t6.5 -15.5q2 -6 10 -12q2 -3 4.5 -6t8.5 -5q2 -2 6 -3t8 -3q4 0 7 -1t9 -1q4 0 7.5 1t11.5 1q2 2 5 3 t7 3q9 6 12 11q3 2 5.5 5t5.5 7q0 4 3 7t3 7v111h-21v-103q0 -3 -2 -8q-1 -7 -10 -12q0 -2 -4 -4t-6 -6l-9 -2h-8q-7 0 -14 2q-5 4 -8.5 6t-5.5 4l-11 12q0 3 -1 7.5t-1 11.5v92h-20v-92zM1389 223v39h165v-39h-65v-180h-39v180h-61zM1389 340l4 2h6q1 0 3.5 -1t4.5 -1 q4 -4 7 -5t5 -3h21q8 0 12 4q1 2 2 3.5t2 3.5q2 2 3 6.5t1 6.5q0 18 -16 23q-3 0 -13 4t-12 6q-10 0 -14 8q-2 0 -4 3l-4 6v23q0 1 2 7q0 9 8 10l6 5l4 2l4 2q4 0 6.5 2t8.5 2l10 -4q3 0 4.5 -1t5.5 -3q6 0 6 -7q5 0 7 -3l1 -3l-2 -2q-6 -2 -10 -2h-6l-25 4q-9 0 -8 -2 q-5 -7 -6 -8q-4 0 -4 -8q0 -5 4 -6q0 -4 4 -7l6 -4q4 -4 7.5 -4t7.5 -2l6 -2q3 0 8 -6h4l6 -2q5 -4 8 -7l5 -5q1 -5 1.5 -9.5t0.5 -9.5v-10q-5 -9 -7.5 -13t-7.5 -7q-2 -2 -6 -4.5t-6 -2.5q-4 -2 -10 -2h-10q-10 0 -17.5 1t-13.5 8q-2 0 -3 3t-5 5v4zM1501 633l8 -10v-2 q7 -5 9 -6q6 -7 14 -9t18 -2h12q3 0 11 2q2 2 6 4t8 5l6 8q3 3 4 8q7 7 7 18t-4.5 19t-12.5 14q-6 5 -6 6h-4l-39 17l-6 6q0 1 -1 3.5t-1 4.5q0 4 4 8q5 4 6.5 6t5.5 2q2 2 10 2l3 -1q5 -2 8 -3l6 -2q6 -2 8 -2q7 0 8 4l6 2q0 2 -3 4t-5 4q0 1 -3 4l-5 5q-3 0 -5.5 2t-6.5 4 h-6l-5 1q-6 0 -10 -0.5t-8 -0.5l-14 -8l-11 -15q-1 -4 -3.5 -7t-2.5 -9q0 -4 2 -8t4 -9q2 -4 4.5 -7t4.5 -5q4 -2 7 -5t7 -3q9 -5 14 -6q4 -2 6.5 -2t6.5 -2q5 0 10.5 -3.5t5.5 -9.5l2 -15q-2 -7 -4 -9l-4 -4q-12 -9 -23 -8q-2 0 -6 1t-6 1q-3 1 -8 6l-3 2q-4 4 -9 4h-7z M1507 317v138h17v-138h-17zM1556 90l7 4l8 2l2 2h10q13 -3 14 -4q5 -4 9 -6t6 -4q2 0 6 -1t10 -1h5q9 2 13 3.5t7 4.5q2 2 4.5 4t3.5 4q2 4 4 7.5t2 7.5q0 6 -6 10q-4 6 -8 6q-2 4 -6.5 5t-7.5 3q-5 0 -13 6q-5 0 -9.5 1t-10.5 6q-10 3 -13.5 6.5l-7.5 7.5q-12 4 -12 14 q-6 12 -6 25q0 19 6 26q1 4 6 11l8 10q4 2 9.5 4t13.5 6q6 0 11 1t13 1q4 0 8.5 -1t10.5 -1l16 -6q3 -4 6.5 -7t7.5 -7q3 -2 7 -5.5t4 -7.5l-14 -8l-21 -4l-6 2q-3 1 -6 4q-2 0 -3.5 1t-4.5 1h-17q-2 0 -3 -1t-5 -3l-7 -6q-1 -3 -1 -10q3 -6 4.5 -9.5t3.5 -7.5h6q9 -2 14 -5 t11 -5l8 -2q5 -4 9.5 -5.5t10.5 -4.5q6 -2 16.5 -13.5t10.5 -17.5q5 -9 6 -20q0 -15 -8 -29l-8 -13q-3 -5 -9 -8q-6 -6 -11 -10t-13 -6q-5 -2 -14 -3t-15 -1q-12 0 -33 4q-10 4 -22 19q-4 1 -6 5l-4 9q-6 2 -7 10zM1556 387v16l11 19q2 2 4.5 6t7.5 8q6 9 12 10q3 5 9 6 t10 3q4 0 8 2t10 2q4 0 10.5 -2t10.5 -2q4 -2 8 -3t8 -6l12 -10l13 -14q2 -4 4 -8.5t4 -10.5q0 -4 1 -9t1 -7q0 -6 -1 -14t-5 -17q-4 -13 -17 -20q-4 -4 -9 -8t-13 -9q-11 -2 -27 -2h-15q-4 0 -11 2q-16 4 -23 17q-12 9 -16 20q-6 15 -7 31zM1573 379q3 -15 8 -23q0 -2 2 -4 t4 -6l6 -4q2 -2 9 -2q2 -4 6 -5t6 -3h28q5 2 8 3t7 5l10 6q2 4 5 6t3 4q2 3 3 8t3 9q0 2 1 6t1 8q0 2 -1 8t-5 12q0 6 -4 10.5t-6 8.5q-3 1 -8 6l-10 6h-43q-4 -4 -9.5 -7t-9.5 -5q-2 -3 -5 -8t-3 -11q-3 -6 -4.5 -12t-1.5 -8v-8zM1628 604h94v21h-71v47h59v18h-59v45h71v23 h-94v-154zM1714 66v4l8 12q7 4 9 4l15 4l9 -8q6 0 6 -6l2 -10q0 -7 -2 -9q0 -4 -6 -10l-24 -4q-4 4 -9 4q0 2 -6 10q-2 2 -2 9zM1724 317v138h19l82 -113v113h14v-138h-12l-82 113v4h-4v-117h-17zM1778 154q0 9 1 14.5t3 13.5q2 17 10 25l9 13.5t9 10.5l25 19l27 10 q5 0 12.5 1t15.5 1h13q4 0 16 -3t16 -5l23 -14q4 -4 7.5 -8.5t6.5 -8.5l-14 -16h-15q-7 0 -14 4q-3 2 -8.5 5t-9.5 5q-9 2 -11 2h-10q-16 0 -28 -6q-16 -2 -23 -14q-7 -7 -14 -25q-2 -4 -4 -10t-2 -14q0 -10 6 -27.5t14 -24.5q10 -10 23 -16q13 -4 28 -4q5 0 10 1t11 1 q3 2 8.5 5t9.5 7q2 0 8 2h13q2 0 8 -2q2 -1 8 -6l6 -8l-6 -8t-8 -8q-6 -3 -11 -6t-12 -7q-5 -3 -16.5 -6.5t-17.5 -3.5h-11q-12 0 -23.5 2t-21.5 4q-21 10 -35 27q-16 15 -22 35q-4 10 -7 20t-3 23zM1810 679q0 -5 2.5 -13.5t6.5 -14.5q5 -16 16 -26q9 -15 25 -15 q12 -6 30 -6h21q3 2 8.5 4t9.5 4q4 3 8.5 6t5.5 7q10 5 15 16l8 18v43q-2 5 -3.5 9.5t-4.5 9.5q-5 6 -15 14q-1 4 -5.5 7t-8.5 8q-2 1 -4.5 2t-5.5 2l-8 4h-41q-5 -2 -10.5 -4t-10.5 -4q-3 -5 -6.5 -8t-7.5 -7q-3 -4 -6.5 -7t-5.5 -7q-2 -6 -5 -10t-3 -9q-5 -11 -5 -23z M1833 679q0 12 6 23q0 5 3 11t7 8q9 9 19.5 12.5t21.5 3.5q13 0 23 -4l18 -12q2 -2 6.5 -8t5.5 -11q4 -7 5 -23q0 -13 -5 -22q-1 -4 -6 -10l-6 -6q-5 -4 -9.5 -7t-8.5 -7q-9 -4 -23 -4q-15 0 -22 4q-5 4 -10 7t-9 7q-3 2 -6.5 7t-3.5 9q-4 6 -5 11.5t-1 10.5zM1942 317v138 h83v-17h-67v-49h55v-12h-55v-60h-16zM1989 154q0 9 1 14.5t1 13.5q3 7 6.5 14t7.5 11q2 9 6 13.5t10 10.5q3 4 10 8.5t13 10.5q4 2 11 4t13 6q11 0 17 1t12 1q10 0 17.5 -1t13.5 -1q6 -4 13 -6t13 -4q14 -11 25 -19q2 -6 8 -10.5t8 -13.5q3 -4 6 -10.5t5 -14.5q4 -7 4 -15 v-30q0 -7 -4 -12q-2 -7 -5 -15t-6 -14q-4 -7 -16 -20l-12 -10t-13 -9q-5 -5 -12.5 -7.5l-13.5 -4.5q-9 -2 -14 -2h-17q-20 0 -43 6q-9 6 -16.5 12.5t-16.5 14.5q-9 6 -14.5 14t-7.5 21q-6 10 -8 20t-2 23zM1997 604h22v121l90 -121h17v154h-21v-119l-2.5 5t-3.5 5l-74 103 l-4 6h-24v-154zM2030 154q0 -9 1 -15t1 -12q9 -17 16 -25q6 -4 11 -8t12 -8q7 -2 14.5 -3t11.5 -1q21 0 29 4q29 11 39 41q5 13 6 27q0 16 -6 24q-3 14 -14 24.5t-25 14.5q-4 4 -11.5 5t-17.5 1q-11 0 -26 -6q-7 -1 -12 -4.5t-11 -9.5q-9 -6 -16 -25q0 -4 -1 -10t-1 -14z M2042 317v138h57q3 0 10 -2q2 -2 5.5 -4.5t4.5 -4.5q4 -2 5.5 -6t7.5 -8v-27q-4 -4 -5 -8t-3 -6l-10 -8q-4 -1 -7.5 -2t-5.5 -2l45 -60h-12q-7 2 -8.5 3.5t-1.5 5.5l-39 51h-27v-60h-16zM2058 389h35q4 1 8 4q4 4 8 4q5 7 5 9q2 4 2 12q0 3 -2 8q0 1 -5 8q-3 0 -8 4h-43v-49 zM2161 387q0 2 1 7t1 9q2 4 3 9.5t5 9.5q2 3 5 6.5t5 7.5q7 5 17 10q3 5 8.5 6t7.5 3q5 0 8.5 2t11.5 2q2 0 7.5 -2t11.5 -2q4 -2 8 -3t6 -6q4 -2 9 -5t8 -5q1 -2 2 -3.5t2 -3.5l4 -7q6 -11 8 -19q2 -4 3 -9t1 -7q0 -6 -1 -14t-5 -17q0 -6 -6 -11l-8 -9q-6 -4 -12.5 -8 t-12.5 -9q-9 -2 -13 -2h-29q-4 0 -13 2q-12 4 -23 17q-7 7 -14 20q-2 9 -4 17t-2 14zM2163 604h90v21h-68v133h-22v-154zM2179 373q0 -4 1 -9t5 -8l4 -4q3 -3 4 -6l6 -4q7 -5 11.5 -6.5t7.5 -3.5h31l6 3q5 4 9.5 6t8.5 5l3 6q3 6 6.5 11.5t3.5 9.5v34q-2 6 -6.5 10.5 t-6.5 8.5q-6 2 -10 5t-8 7h-43q-6 -4 -10 -7t-9 -5q-7 -5 -12 -19q-2 -9 -2 -12v-22zM2228 758l58 -76v-3l4 -3v-72h21v70l5 5v3l58 76h-19q-5 0 -9.5 -4t-4.5 -9l-37 -47h-4l-39 47q-3 14 -16 13h-17zM2236 43v219h39q5 0 7 -1t4 -1q2 -2 3 -2t3 -2l8 -4q0 -2 2 -4t2 -4 q4 -17 11 -32t16 -34q6 -16 12 -32.5t12 -30.5v-13l6 13l9 14l45 115l4 8l6 4q2 2 4 2t4 2l1 1l44 1v-219h-37v160l-6 -10v-6q-9 -19 -15.5 -38.5t-15.5 -33.5q-6 -19 -12 -35.5t-14 -36.5h-37l-55 139q-5 3 -5 11l-4 6v-156h-41zM2333 317v138h14l8 -4v-5l49 -106l3 -2v4 q0 1 8 6l40 98q2 5 3.5 5t1.5 2l18 2v-138h-12v113l-2 -2v-2q-4 -7 -7 -17t-8 -14q-4 -7 -6 -13.5t-8 -14.5q-2 -9 -3 -15t-5 -10q-3 -9 -6.5 -13.5t-5.5 -11.5h-15q-10 13 -15 26t-11 28q-4 12 -11.5 26.5t-11.5 28.5v2h-4v-111h-14z" />
<glyph unicode="6" d="M66 43v14q0 10 2 11q0 2 6 8v4l2 4l4 4t2 6l94 129h-102v39h159v-24l-8 -15l-106 -143h2l2 2h108v-39h-165zM66 387q0 6 4 16q1 4 2.5 9.5t5.5 9.5l9 14q2 2 6.5 5t6.5 5q5 5 10 6t9 3q3 0 8.5 2t11.5 2q16 0 27 -8q14 -4 22 -15l-5 -6h-13q-3 2 -6.5 5t-7.5 3h-37 l-21 -12q-4 -3 -7.5 -7.5t-4.5 -11.5q-2 -6 -3 -12t-1 -8q0 -10 4 -14q0 -4 0.5 -9t0.5 -8l5 -4q5 -1 6 -6l8 -5q2 -1 7 -1q2 -4 5 -5t7 -3h33q2 2 7 3t9 5v29h-14v2l-6 4h-3l-1 8h38v-51q-2 -5 -4 -6.5t-6 -6.5h-12q-9 -2 -12 -2h-35q-5 0 -19 9q-7 0 -13 10l-9 14 q-4 4 -5.5 8t-2.5 9q-2 6 -3 10t-1 10zM74 506v586h911q0 30 5 59t20 53q12 29 26.5 52.5t36.5 41.5q38 42 92 62q27 12 54.5 17t56.5 5q33 0 61.5 -6t53.5 -16q59 -29 94.5 -64.5t62.5 -95.5q19 -52 19 -108h911v-586h-2404zM199 604h18v58h35q4 0 10 0.5t8 3.5q11 4 15 10 q4 2 7 6t3 8q5 13 6 19q0 10 -6 20q0 2 -4 6l-6 6q-2 3 -5.5 7t-9.5 4q-2 4 -8 5t-10 1h-53v-154zM217 682v53h35q4 0 10 -2l8 -4q2 -1 3 -4.5t3 -5.5q3 -4 3 -10v-4q0 -2 -3 -7q-2 -2 -3 -5t-3 -3q-1 -2 -3 -4t-5 -4h-45zM223 317v138h84v-17h-67v-43h55v-16h-55v-47h67 v-15h-84zM260 43v219h139v-39h-100v-49h82v-41h-82v-51h100v-39h-139zM315 604h97v21h-74v47h59v18h-59v45h74v23h-97v-154zM324 438v17h106v-17h-47v-121h-12v121h-47zM406 223v39h165v-39h-59v-180h-43v180h-63zM442 604h23v64h24l39 -56q1 -4 7 -6l24 -2l-47 68q4 0 12 4 q7 3 8 10q9 6 9 12v25q-6 15 -13 20q-5 9 -14 9q-2 4 -7 5t-9 1h-56v-154zM465 688v47h33q3 0 10 -2l6 -4l2 -4l2 -4q3 -1 4 -10q-1 -6 -4 -9l-4 -8q-2 0 -3 -2t-3 -2q-2 -2 -10 -2h-33zM516 317v138h86v-17h-70v-49h60v-12h-60v-60h-16zM541 43l96 219h35l94 -219h-25 q-9 0 -16 4q-2 2 -4 7t-6 9l-13 27h-100l-10 -27q0 -6 -4 -6l-8 -10q-2 0 -3.5 -1t-5.5 -1zM565 633l10 -18h3q7 -7 16.5 -9t19.5 -2h9q5 0 12 2q4 2 9 4t7 5q4 2 7.5 6t4.5 10q2 5 3.5 8.5t1.5 9.5q0 11 -5.5 19t-11.5 14q-2 0 -4 2t-6 4l-4 2h-4q-4 3 -6.5 3.5t-3.5 1.5 q-7 2 -9 3.5t-6 3.5q-6 3 -9 3l-3 22q9 7 12 8l15 2q11 -3 12 -6l6 -2q10 0 14 4l4 2l-6 8q-2 1 -5 4t-7 5q-2 0 -4 2t-6 4h-29q-5 -2 -7.5 -4t-6.5 -4q-2 -5 -6 -8t-7 -7q0 -4 -2 -7t-2 -9q0 -7 4 -17l5 -8l6 -4q2 -2 6 -5t7 -3l8 -5q2 -1 7 -1q1 -2 6 -2t7 -2l6 -2 q5 -4 5.5 -5.5t2.5 -5.5l2 -16q-4 -5 -4 -7.5t-2 -4.5q-1 -3 -7 -5l-3 -1q-4 0 -8 -1t-5 -1q-5 0 -11.5 1.5t-6.5 6.5l-4 2q-4 4 -12 4h-5zM623 129h61l-29 74h-2zM627 371v84h14v-84q0 -6 2 -9.5t6 -5.5q0 -6 3 -9.5t5 -4.5q0 -2 4.5 -4t6.5 -4q6 -2 8 -2h16q9 4 13 6l8 4 q4 1 8 14q4 3 4 15v84h14v-84q0 -10 -3.5 -22t-12.5 -17q-5 -13 -16 -13q-6 -1 -12 -1.5t-11 -0.5t-11 0.5t-14 1.5q-3 0 -16 13l-10 16q-1 6 -3.5 11.5t-2.5 11.5zM684 679q0 -16 6.5 -29t16.5 -25q12 -15 26 -15q12 -6 29 -6h20q6 2 11 4t8 4q12 5 16 13q7 7 12 16 q2 4 5.5 9t3.5 9q1 6 2.5 10.5t1.5 9.5q0 13 -4 23q0 5 -3.5 9t-5.5 10q-2 3 -5 6.5t-7 7.5l-7 6q-2 3 -9 9l-8 4q-2 1 -5 2l-6 2h-41q-11 -4 -18 -8q-4 -5 -8 -8t-8 -7q-12 -9 -13 -14q-4 -6 -5 -10t-3 -9q-1 -5 -1.5 -10.5t-0.5 -12.5zM705 679q0 21 9 32.5t25 21.5 q5 2 12 3t11 1q14 0 22 -4q13 -5 17 -12q6 -2 9 -8t5 -11q4 -7 4 -23q0 -11 -4 -22q-2 -4 -5 -9t-9 -7q-5 -10 -17 -14t-22 -4q-11 0 -23 4q-4 4 -9 7t-9 7q-2 2 -6 7t-6 9q-4 12 -4 22zM768 317v138h16v-123h64v-15h-80zM774 43v219h139v-39h-100v-56h82v-38h-82v-86h-39z M862 317v138h17v-123h63v-15h-80zM870 604h21v125h2l2 -2v-4l86 -119h16v154h-18v-119l-78 113q-4 0 -6 6h-25v-154zM928 154v13q0 4 2 15q5 18 12 25q4 9 8 13.5t8 10.5q7 4 12 8.5t11 10.5l29 10q4 0 11 1t15 1q9 0 16 -1t15 -1q6 -4 13 -6l14 -4l22 -19q4 -6 9 -10.5 t10 -13.5q2 -4 4 -10.5t6 -14.5q2 -11 2 -15v-30q0 -5 -2 -12q-3 -7 -5.5 -15t-4.5 -14q-5 -4 -10 -10t-9 -10q-15 -15 -23 -19.5t-26 -11.5q-4 -1 -7.5 -1.5t-7.5 -0.5h-16q-10 0 -20 2t-23 4q-12 6 -19 12.5t-16 14.5q-16 15 -23 35.5t-7 42.5zM967 139q0 -4 6 -12 q5 -15 13.5 -24t23.5 -17q10 -4 26 -4q19 0 29 4q15 7 20 16q14 5 18.5 22t4.5 30q0 15 -4 24q-4 18 -19 25q-2 6 -8 9t-12 5q-11 6 -29 6q-14 0 -26 -6q-11 -1 -23 -14q-9 -5 -14 -25q-5 -5 -6 -11v-28zM1010 455h5q11 0 15 -9l43 -104v-2h2l2 2q5 14 13 27.5t12 25.5 q4 15 10 27l12 24q0 5 1.5 5t1.5 2l18 2q-7 -17 -15 -34.5t-16 -33.5q-4 -9 -7.5 -18.5t-6.5 -18.5l-15 -33h-16zM1010 1092q0 -61 18.5 -103t56.5 -88q38 -37 87 -58.5t104 -21.5q53 0 102 19t85 59q21 19 35.5 40.5t25.5 43.5q21 54 22 109q0 46 -14.5 87.5t-44.5 77.5 q-14 19 -29.5 32.5t-34.5 25.5q-18 7 -37.5 17.5t-39.5 17.5l-32.5 6.5t-37.5 3.5q-59 0 -107 -25q-49 -17 -84 -57q-36 -36 -55.5 -85.5t-19.5 -100.5zM1014 604h12q7 0 10 2q0 2 6 6l11 27h77l11 -27q1 -4 6 -6q2 -2 8 -2h14l-67 154h-21zM1036 1092q0 19 3 40t12 42 q4 19 14 36t25 33h319l-315 -315q-28 36 -43 76q-9 18 -12 40.5t-3 47.5zM1061 659l29 64v6l2 -2v-4l28 -64h-59zM1114 1271q36 30 74 44q39 18 88 18q47 0 90 -18q17 -9 36 -21t36 -23h-324zM1116 909h322q-17 -14 -36 -26t-36 -19q-23 -6 -45.5 -11t-44.5 -5q-25 0 -46 5 t-42 11q-19 7 -37 19t-35 26zM1141 935l315 318q62 -78 62 -161q0 -23 -3.5 -44.5t-11.5 -41.5q-14 -37 -41 -71h-321zM1155 317v138h84v-17h-68v-43h60v-16h-60v-47h68v-15h-84zM1175 43v219h35q4 0 8.5 -1t4.5 -3q3 -2 5.5 -2t4.5 -2l22 -33q5 -9 10 -17.5t11 -17.5 q14 -14 24.5 -29.5t24.5 -29.5q0 -2 1 -5t1 -7l2 -5v152h38v-219h-36l-100 147l-4 3v2q-5 10 -7.5 12t-5.5 2v-166h-39zM1184 604h86v21h-66v133h-20v-154zM1274 317v138h56q10 -2 14.5 -4.5t9.5 -6.5q0 -2 3 -6t3 -8l2 -20q-3 -17 -6 -21l-6 -4q-2 -2 -7 -4q-3 -3 -12 -4 l47 -60h-15q-10 3 -9 9l-39 51h-28v-60h-13zM1287 389h38q5 0 6 4q4 4 10 4l2 4q5 11 5 17q0 2 -1 3t-1 5q-3 2 -4 3t-1 5q-5 0 -10 4h-44v-49zM1358 666q0 -7 1.5 -17.5t6.5 -15.5q2 -6 10 -12q2 -3 4.5 -6t8.5 -5q2 -2 6 -3t8 -3q4 0 7 -1t9 -1q4 0 7.5 1t11.5 1q2 2 5 3 t7 3q9 6 12 11q3 2 5.5 5t5.5 7q0 4 3 7t3 7v111h-21v-103q0 -3 -2 -8q-1 -7 -10 -12q0 -2 -4 -4t-6 -6l-9 -2h-8q-7 0 -14 2q-5 4 -8.5 6t-5.5 4l-11 12q0 3 -1 7.5t-1 11.5v92h-20v-92zM1389 223v39h165v-39h-65v-180h-39v180h-61zM1389 340l4 2h6q1 0 3.5 -1t4.5 -1 q4 -4 7 -5t5 -3h21q8 0 12 4q1 2 2 3.5t2 3.5q2 2 3 6.5t1 6.5q0 18 -16 23q-3 0 -13 4t-12 6q-10 0 -14 8q-2 0 -4 3l-4 6v23q0 1 2 7q0 9 8 10l6 5l4 2l4 2q4 0 6.5 2t8.5 2l10 -4q3 0 4.5 -1t5.5 -3q6 0 6 -7q5 0 7 -3l1 -3l-2 -2q-6 -2 -10 -2h-6l-25 4q-9 0 -8 -2 q-5 -7 -6 -8q-4 0 -4 -8q0 -5 4 -6q0 -4 4 -7l6 -4q4 -4 7.5 -4t7.5 -2l6 -2q3 0 8 -6h4l6 -2q5 -4 8 -7l5 -5q1 -5 1.5 -9.5t0.5 -9.5v-10q-5 -9 -7.5 -13t-7.5 -7q-2 -2 -6 -4.5t-6 -2.5q-4 -2 -10 -2h-10q-10 0 -17.5 1t-13.5 8q-2 0 -3 3t-5 5v4zM1501 633l8 -10v-2 q7 -5 9 -6q6 -7 14 -9t18 -2h12q3 0 11 2q2 2 6 4t8 5l6 8q3 3 4 8q7 7 7 18t-4.5 19t-12.5 14q-6 5 -6 6h-4l-39 17l-6 6q0 1 -1 3.5t-1 4.5q0 4 4 8q5 4 6.5 6t5.5 2q2 2 10 2l3 -1q5 -2 8 -3l6 -2q6 -2 8 -2q7 0 8 4l6 2q0 2 -3 4t-5 4q0 1 -3 4l-5 5q-3 0 -5.5 2t-6.5 4 h-6l-5 1q-6 0 -10 -0.5t-8 -0.5l-14 -8l-11 -15q-1 -4 -3.5 -7t-2.5 -9q0 -4 2 -8t4 -9q2 -4 4.5 -7t4.5 -5q4 -2 7 -5t7 -3q9 -5 14 -6q4 -2 6.5 -2t6.5 -2q5 0 10.5 -3.5t5.5 -9.5l2 -15q-2 -7 -4 -9l-4 -4q-12 -9 -23 -8q-2 0 -6 1t-6 1q-3 1 -8 6l-3 2q-4 4 -9 4h-7z M1507 317v138h17v-138h-17zM1556 90l7 4l8 2l2 2h10q13 -3 14 -4q5 -4 9 -6t6 -4q2 0 6 -1t10 -1h5q9 2 13 3.5t7 4.5q2 2 4.5 4t3.5 4q2 4 4 7.5t2 7.5q0 6 -6 10q-4 6 -8 6q-2 4 -6.5 5t-7.5 3q-5 0 -13 6q-5 0 -9.5 1t-10.5 6q-10 3 -13.5 6.5l-7.5 7.5q-12 4 -12 14 q-6 12 -6 25q0 19 6 26q1 4 6 11l8 10q4 2 9.5 4t13.5 6q6 0 11 1t13 1q4 0 8.5 -1t10.5 -1l16 -6q3 -4 6.5 -7t7.5 -7q3 -2 7 -5.5t4 -7.5l-14 -8l-21 -4l-6 2q-3 1 -6 4q-2 0 -3.5 1t-4.5 1h-17q-2 0 -3 -1t-5 -3l-7 -6q-1 -3 -1 -10q3 -6 4.5 -9.5t3.5 -7.5h6q9 -2 14 -5 t11 -5l8 -2q5 -4 9.5 -5.5t10.5 -4.5q6 -2 16.5 -13.5t10.5 -17.5q5 -9 6 -20q0 -15 -8 -29l-8 -13q-3 -5 -9 -8q-6 -6 -11 -10t-13 -6q-5 -2 -14 -3t-15 -1q-12 0 -33 4q-10 4 -22 19q-4 1 -6 5l-4 9q-6 2 -7 10zM1556 387v16l11 19q2 2 4.5 6t7.5 8q6 9 12 10q3 5 9 6 t10 3q4 0 8 2t10 2q4 0 10.5 -2t10.5 -2q4 -2 8 -3t8 -6l12 -10l13 -14q2 -4 4 -8.5t4 -10.5q0 -4 1 -9t1 -7q0 -6 -1 -14t-5 -17q-4 -13 -17 -20q-4 -4 -9 -8t-13 -9q-11 -2 -27 -2h-15q-4 0 -11 2q-16 4 -23 17q-12 9 -16 20q-6 15 -7 31zM1573 379q3 -15 8 -23q0 -2 2 -4 t4 -6l6 -4q2 -2 9 -2q2 -4 6 -5t6 -3h28q5 2 8 3t7 5l10 6q2 4 5 6t3 4q2 3 3 8t3 9q0 2 1 6t1 8q0 2 -1 8t-5 12q0 6 -4 10.5t-6 8.5q-3 1 -8 6l-10 6h-43q-4 -4 -9.5 -7t-9.5 -5q-2 -3 -5 -8t-3 -11q-3 -6 -4.5 -12t-1.5 -8v-8zM1628 604h94v21h-71v47h59v18h-59v45h71v23 h-94v-154zM1714 66v4l8 12q7 4 9 4l15 4l9 -8q6 0 6 -6l2 -10q0 -7 -2 -9q0 -4 -6 -10l-24 -4q-4 4 -9 4q0 2 -6 10q-2 2 -2 9zM1724 317v138h19l82 -113v113h14v-138h-12l-82 113v4h-4v-117h-17zM1778 154q0 9 1 14.5t3 13.5q2 17 10 25l9 13.5t9 10.5l25 19l27 10 q5 0 12.5 1t15.5 1h13q4 0 16 -3t16 -5l23 -14q4 -4 7.5 -8.5t6.5 -8.5l-14 -16h-15q-7 0 -14 4q-3 2 -8.5 5t-9.5 5q-9 2 -11 2h-10q-16 0 -28 -6q-16 -2 -23 -14q-7 -7 -14 -25q-2 -4 -4 -10t-2 -14q0 -10 6 -27.5t14 -24.5q10 -10 23 -16q13 -4 28 -4q5 0 10 1t11 1 q3 2 8.5 5t9.5 7q2 0 8 2h13q2 0 8 -2q2 -1 8 -6l6 -8l-6 -8t-8 -8q-6 -3 -11 -6t-12 -7q-5 -3 -16.5 -6.5t-17.5 -3.5h-11q-12 0 -23.5 2t-21.5 4q-21 10 -35 27q-16 15 -22 35q-4 10 -7 20t-3 23zM1810 679q0 -5 2.5 -13.5t6.5 -14.5q5 -16 16 -26q9 -15 25 -15 q12 -6 30 -6h21q3 2 8.5 4t9.5 4q4 3 8.5 6t5.5 7q10 5 15 16l8 18v43q-2 5 -3.5 9.5t-4.5 9.5q-5 6 -15 14q-1 4 -5.5 7t-8.5 8q-2 1 -4.5 2t-5.5 2l-8 4h-41q-5 -2 -10.5 -4t-10.5 -4q-3 -5 -6.5 -8t-7.5 -7q-3 -4 -6.5 -7t-5.5 -7q-2 -6 -5 -10t-3 -9q-5 -11 -5 -23z M1833 679q0 12 6 23q0 5 3 11t7 8q9 9 19.5 12.5t21.5 3.5q13 0 23 -4l18 -12q2 -2 6.5 -8t5.5 -11q4 -7 5 -23q0 -13 -5 -22q-1 -4 -6 -10l-6 -6q-5 -4 -9.5 -7t-8.5 -7q-9 -4 -23 -4q-15 0 -22 4q-5 4 -10 7t-9 7q-3 2 -6.5 7t-3.5 9q-4 6 -5 11.5t-1 10.5zM1942 317v138 h83v-17h-67v-49h55v-12h-55v-60h-16zM1989 154q0 9 1 14.5t1 13.5q3 7 6.5 14t7.5 11q2 9 6 13.5t10 10.5q3 4 10 8.5t13 10.5q4 2 11 4t13 6q11 0 17 1t12 1q10 0 17.5 -1t13.5 -1q6 -4 13 -6t13 -4q14 -11 25 -19q2 -6 8 -10.5t8 -13.5q3 -4 6 -10.5t5 -14.5q4 -7 4 -15 v-30q0 -7 -4 -12q-2 -7 -5 -15t-6 -14q-4 -7 -16 -20l-12 -10t-13 -9q-5 -5 -12.5 -7.5l-13.5 -4.5q-9 -2 -14 -2h-17q-20 0 -43 6q-9 6 -16.5 12.5t-16.5 14.5q-9 6 -14.5 14t-7.5 21q-6 10 -8 20t-2 23zM1997 604h22v121l90 -121h17v154h-21v-119l-2.5 5t-3.5 5l-74 103 l-4 6h-24v-154zM2030 154q0 -9 1 -15t1 -12q9 -17 16 -25q6 -4 11 -8t12 -8q7 -2 14.5 -3t11.5 -1q21 0 29 4q29 11 39 41q5 13 6 27q0 16 -6 24q-3 14 -14 24.5t-25 14.5q-4 4 -11.5 5t-17.5 1q-11 0 -26 -6q-7 -1 -12 -4.5t-11 -9.5q-9 -6 -16 -25q0 -4 -1 -10t-1 -14z M2042 317v138h57q3 0 10 -2q2 -2 5.5 -4.5t4.5 -4.5q4 -2 5.5 -6t7.5 -8v-27q-4 -4 -5 -8t-3 -6l-10 -8q-4 -1 -7.5 -2t-5.5 -2l45 -60h-12q-7 2 -8.5 3.5t-1.5 5.5l-39 51h-27v-60h-16zM2058 389h35q4 1 8 4q4 4 8 4q5 7 5 9q2 4 2 12q0 3 -2 8q0 1 -5 8q-3 0 -8 4h-43v-49 zM2161 387q0 2 1 7t1 9q2 4 3 9.5t5 9.5q2 3 5 6.5t5 7.5q7 5 17 10q3 5 8.5 6t7.5 3q5 0 8.5 2t11.5 2q2 0 7.5 -2t11.5 -2q4 -2 8 -3t6 -6q4 -2 9 -5t8 -5q1 -2 2 -3.5t2 -3.5l4 -7q6 -11 8 -19q2 -4 3 -9t1 -7q0 -6 -1 -14t-5 -17q0 -6 -6 -11l-8 -9q-6 -4 -12.5 -8 t-12.5 -9q-9 -2 -13 -2h-29q-4 0 -13 2q-12 4 -23 17q-7 7 -14 20q-2 9 -4 17t-2 14zM2163 604h90v21h-68v133h-22v-154zM2179 373q0 -4 1 -9t5 -8l4 -4q3 -3 4 -6l6 -4q7 -5 11.5 -6.5t7.5 -3.5h31l6 3q5 4 9.5 6t8.5 5l3 6q3 6 6.5 11.5t3.5 9.5v34q-2 6 -6.5 10.5 t-6.5 8.5q-6 2 -10 5t-8 7h-43q-6 -4 -10 -7t-9 -5q-7 -5 -12 -19q-2 -9 -2 -12v-22zM2228 758l58 -76v-3l4 -3v-72h21v70l5 5v3l58 76h-19q-5 0 -9.5 -4t-4.5 -9l-37 -47h-4l-39 47q-3 14 -16 13h-17zM2236 43v219h39q5 0 7 -1t4 -1q2 -2 3 -2t3 -2l8 -4q0 -2 2 -4t2 -4 q4 -17 11 -32t16 -34q6 -16 12 -32.5t12 -30.5v-13l6 13l9 14l45 115l4 8l6 4q2 2 4 2t4 2l1 1l44 1v-219h-37v160l-6 -10v-6q-9 -19 -15.5 -38.5t-15.5 -33.5q-6 -19 -12 -35.5t-14 -36.5h-37l-55 139q-5 3 -5 11l-4 6v-156h-41zM2333 317v138h14l8 -4v-5l49 -106l3 -2v4 q0 1 8 6l40 98q2 5 3.5 5t1.5 2l18 2v-138h-12v113l-2 -2v-2q-4 -7 -7 -17t-8 -14q-4 -7 -6 -13.5t-8 -14.5q-2 -9 -3 -15t-5 -10q-3 -9 -6.5 -13.5t-5.5 -11.5h-15q-10 13 -15 26t-11 28q-4 12 -11.5 26.5t-11.5 28.5v2h-4v-111h-14z" />
<glyph unicode="7" d="M66 43v14q0 10 2 11q0 2 6 8v4l2 4l4 4t2 6l94 129h-102v39h159v-24l-8 -15l-106 -143h2l2 2h108v-39h-165zM66 387q0 6 4 16q1 4 2.5 9.5t5.5 9.5l9 14q2 2 6.5 5t6.5 5q5 5 10 6t9 3q3 0 8.5 2t11.5 2q16 0 27 -8q14 -4 22 -15l-5 -6h-13q-3 2 -6.5 5t-7.5 3h-37 l-21 -12q-4 -3 -7.5 -7.5t-4.5 -11.5q-2 -6 -3 -12t-1 -8q0 -10 4 -14q0 -4 0.5 -9t0.5 -8l5 -4q5 -1 6 -6l8 -5q2 -1 7 -1q2 -4 5 -5t7 -3h33q2 2 7 3t9 5v29h-14v2l-6 4h-3l-1 8h38v-51q-2 -5 -4 -6.5t-6 -6.5h-12q-9 -2 -12 -2h-35q-5 0 -19 9q-7 0 -13 10l-9 14 q-4 4 -5.5 8t-2.5 9q-2 6 -3 10t-1 10zM74 506v586h911q0 30 5 59t20 53q12 29 26.5 52.5t36.5 41.5q38 42 92 62q27 12 54.5 17t56.5 5q33 0 61.5 -6t53.5 -16q59 -29 94.5 -64.5t62.5 -95.5q19 -52 19 -108h911v-586h-2404zM199 604h18v58h35q4 0 10 0.5t8 3.5q11 4 15 10 q4 2 7 6t3 8q5 13 6 19q0 10 -6 20q0 2 -4 6l-6 6q-2 3 -5.5 7t-9.5 4q-2 4 -8 5t-10 1h-53v-154zM217 682v53h35q4 0 10 -2l8 -4q2 -1 3 -4.5t3 -5.5q3 -4 3 -10v-4q0 -2 -3 -7q-2 -2 -3 -5t-3 -3q-1 -2 -3 -4t-5 -4h-45zM223 317v138h84v-17h-67v-43h55v-16h-55v-47h67 v-15h-84zM260 43v219h139v-39h-100v-49h82v-41h-82v-51h100v-39h-139zM315 604h97v21h-74v47h59v18h-59v45h74v23h-97v-154zM324 438v17h106v-17h-47v-121h-12v121h-47zM406 223v39h165v-39h-59v-180h-43v180h-63zM442 604h23v64h24l39 -56q1 -4 7 -6l24 -2l-47 68q4 0 12 4 q7 3 8 10q9 6 9 12v25q-6 15 -13 20q-5 9 -14 9q-2 4 -7 5t-9 1h-56v-154zM465 688v47h33q3 0 10 -2l6 -4l2 -4l2 -4q3 -1 4 -10q-1 -6 -4 -9l-4 -8q-2 0 -3 -2t-3 -2q-2 -2 -10 -2h-33zM516 317v138h86v-17h-70v-49h60v-12h-60v-60h-16zM541 43l96 219h35l94 -219h-25 q-9 0 -16 4q-2 2 -4 7t-6 9l-13 27h-100l-10 -27q0 -6 -4 -6l-8 -10q-2 0 -3.5 -1t-5.5 -1zM565 633l10 -18h3q7 -7 16.5 -9t19.5 -2h9q5 0 12 2q4 2 9 4t7 5q4 2 7.5 6t4.5 10q2 5 3.5 8.5t1.5 9.5q0 11 -5.5 19t-11.5 14q-2 0 -4 2t-6 4l-4 2h-4q-4 3 -6.5 3.5t-3.5 1.5 q-7 2 -9 3.5t-6 3.5q-6 3 -9 3l-3 22q9 7 12 8l15 2q11 -3 12 -6l6 -2q10 0 14 4l4 2l-6 8q-2 1 -5 4t-7 5q-2 0 -4 2t-6 4h-29q-5 -2 -7.5 -4t-6.5 -4q-2 -5 -6 -8t-7 -7q0 -4 -2 -7t-2 -9q0 -7 4 -17l5 -8l6 -4q2 -2 6 -5t7 -3l8 -5q2 -1 7 -1q1 -2 6 -2t7 -2l6 -2 q5 -4 5.5 -5.5t2.5 -5.5l2 -16q-4 -5 -4 -7.5t-2 -4.5q-1 -3 -7 -5l-3 -1q-4 0 -8 -1t-5 -1q-5 0 -11.5 1.5t-6.5 6.5l-4 2q-4 4 -12 4h-5zM623 129h61l-29 74h-2zM627 371v84h14v-84q0 -6 2 -9.5t6 -5.5q0 -6 3 -9.5t5 -4.5q0 -2 4.5 -4t6.5 -4q6 -2 8 -2h16q9 4 13 6l8 4 q4 1 8 14q4 3 4 15v84h14v-84q0 -10 -3.5 -22t-12.5 -17q-5 -13 -16 -13q-6 -1 -12 -1.5t-11 -0.5t-11 0.5t-14 1.5q-3 0 -16 13l-10 16q-1 6 -3.5 11.5t-2.5 11.5zM684 679q0 -16 6.5 -29t16.5 -25q12 -15 26 -15q12 -6 29 -6h20q6 2 11 4t8 4q12 5 16 13q7 7 12 16 q2 4 5.5 9t3.5 9q1 6 2.5 10.5t1.5 9.5q0 13 -4 23q0 5 -3.5 9t-5.5 10q-2 3 -5 6.5t-7 7.5l-7 6q-2 3 -9 9l-8 4q-2 1 -5 2l-6 2h-41q-11 -4 -18 -8q-4 -5 -8 -8t-8 -7q-12 -9 -13 -14q-4 -6 -5 -10t-3 -9q-1 -5 -1.5 -10.5t-0.5 -12.5zM705 679q0 21 9 32.5t25 21.5 q5 2 12 3t11 1q14 0 22 -4q13 -5 17 -12q6 -2 9 -8t5 -11q4 -7 4 -23q0 -11 -4 -22q-2 -4 -5 -9t-9 -7q-5 -10 -17 -14t-22 -4q-11 0 -23 4q-4 4 -9 7t-9 7q-2 2 -6 7t-6 9q-4 12 -4 22zM768 317v138h16v-123h64v-15h-80zM774 43v219h139v-39h-100v-56h82v-38h-82v-86h-39z M862 317v138h17v-123h63v-15h-80zM870 604h21v125h2l2 -2v-4l86 -119h16v154h-18v-119l-78 113q-4 0 -6 6h-25v-154zM928 154v13q0 4 2 15q5 18 12 25q4 9 8 13.5t8 10.5q7 4 12 8.5t11 10.5l29 10q4 0 11 1t15 1q9 0 16 -1t15 -1q6 -4 13 -6l14 -4l22 -19q4 -6 9 -10.5 t10 -13.5q2 -4 4 -10.5t6 -14.5q2 -11 2 -15v-30q0 -5 -2 -12q-3 -7 -5.5 -15t-4.5 -14q-5 -4 -10 -10t-9 -10q-15 -15 -23 -19.5t-26 -11.5q-4 -1 -7.5 -1.5t-7.5 -0.5h-16q-10 0 -20 2t-23 4q-12 6 -19 12.5t-16 14.5q-16 15 -23 35.5t-7 42.5zM967 139q0 -4 6 -12 q5 -15 13.5 -24t23.5 -17q10 -4 26 -4q19 0 29 4q15 7 20 16q14 5 18.5 22t4.5 30q0 15 -4 24q-4 18 -19 25q-2 6 -8 9t-12 5q-11 6 -29 6q-14 0 -26 -6q-11 -1 -23 -14q-9 -5 -14 -25q-5 -5 -6 -11v-28zM1010 455h5q11 0 15 -9l43 -104v-2h2l2 2q5 14 13 27.5t12 25.5 q4 15 10 27l12 24q0 5 1.5 5t1.5 2l18 2q-7 -17 -15 -34.5t-16 -33.5q-4 -9 -7.5 -18.5t-6.5 -18.5l-15 -33h-16zM1010 1092q0 -61 18.5 -103t56.5 -88q38 -37 87 -58.5t104 -21.5q53 0 102 19t85 59q21 19 35.5 40.5t25.5 43.5q21 54 22 109q0 46 -14.5 87.5t-44.5 77.5 q-14 19 -29.5 32.5t-34.5 25.5q-18 7 -37.5 17.5t-39.5 17.5l-32.5 6.5t-37.5 3.5q-59 0 -107 -25q-49 -17 -84 -57q-36 -36 -55.5 -85.5t-19.5 -100.5zM1014 604h12q7 0 10 2q0 2 6 6l11 27h77l11 -27q1 -4 6 -6q2 -2 8 -2h14l-67 154h-21zM1036 1092q0 19 3 40t12 42 q4 19 14 36t25 33h319l-315 -315q-28 36 -43 76q-9 18 -12 40.5t-3 47.5zM1061 659l29 64v6l2 -2v-4l28 -64h-59zM1114 1271q36 30 74 44q39 18 88 18q47 0 90 -18q17 -9 36 -21t36 -23h-324zM1116 909h322q-17 -14 -36 -26t-36 -19q-23 -6 -45.5 -11t-44.5 -5q-25 0 -46 5 t-42 11q-19 7 -37 19t-35 26zM1141 935l315 318q62 -78 62 -161q0 -23 -3.5 -44.5t-11.5 -41.5q-14 -37 -41 -71h-321zM1155 317v138h84v-17h-68v-43h60v-16h-60v-47h68v-15h-84zM1175 43v219h35q4 0 8.5 -1t4.5 -3q3 -2 5.5 -2t4.5 -2l22 -33q5 -9 10 -17.5t11 -17.5 q14 -14 24.5 -29.5t24.5 -29.5q0 -2 1 -5t1 -7l2 -5v152h38v-219h-36l-100 147l-4 3v2q-5 10 -7.5 12t-5.5 2v-166h-39zM1184 604h86v21h-66v133h-20v-154zM1274 317v138h56q10 -2 14.5 -4.5t9.5 -6.5q0 -2 3 -6t3 -8l2 -20q-3 -17 -6 -21l-6 -4q-2 -2 -7 -4q-3 -3 -12 -4 l47 -60h-15q-10 3 -9 9l-39 51h-28v-60h-13zM1287 389h38q5 0 6 4q4 4 10 4l2 4q5 11 5 17q0 2 -1 3t-1 5q-3 2 -4 3t-1 5q-5 0 -10 4h-44v-49zM1358 666q0 -7 1.5 -17.5t6.5 -15.5q2 -6 10 -12q2 -3 4.5 -6t8.5 -5q2 -2 6 -3t8 -3q4 0 7 -1t9 -1q4 0 7.5 1t11.5 1q2 2 5 3 t7 3q9 6 12 11q3 2 5.5 5t5.5 7q0 4 3 7t3 7v111h-21v-103q0 -3 -2 -8q-1 -7 -10 -12q0 -2 -4 -4t-6 -6l-9 -2h-8q-7 0 -14 2q-5 4 -8.5 6t-5.5 4l-11 12q0 3 -1 7.5t-1 11.5v92h-20v-92zM1389 223v39h165v-39h-65v-180h-39v180h-61zM1389 340l4 2h6q1 0 3.5 -1t4.5 -1 q4 -4 7 -5t5 -3h21q8 0 12 4q1 2 2 3.5t2 3.5q2 2 3 6.5t1 6.5q0 18 -16 23q-3 0 -13 4t-12 6q-10 0 -14 8q-2 0 -4 3l-4 6v23q0 1 2 7q0 9 8 10l6 5l4 2l4 2q4 0 6.5 2t8.5 2l10 -4q3 0 4.5 -1t5.5 -3q6 0 6 -7q5 0 7 -3l1 -3l-2 -2q-6 -2 -10 -2h-6l-25 4q-9 0 -8 -2 q-5 -7 -6 -8q-4 0 -4 -8q0 -5 4 -6q0 -4 4 -7l6 -4q4 -4 7.5 -4t7.5 -2l6 -2q3 0 8 -6h4l6 -2q5 -4 8 -7l5 -5q1 -5 1.5 -9.5t0.5 -9.5v-10q-5 -9 -7.5 -13t-7.5 -7q-2 -2 -6 -4.5t-6 -2.5q-4 -2 -10 -2h-10q-10 0 -17.5 1t-13.5 8q-2 0 -3 3t-5 5v4zM1501 633l8 -10v-2 q7 -5 9 -6q6 -7 14 -9t18 -2h12q3 0 11 2q2 2 6 4t8 5l6 8q3 3 4 8q7 7 7 18t-4.5 19t-12.5 14q-6 5 -6 6h-4l-39 17l-6 6q0 1 -1 3.5t-1 4.5q0 4 4 8q5 4 6.5 6t5.5 2q2 2 10 2l3 -1q5 -2 8 -3l6 -2q6 -2 8 -2q7 0 8 4l6 2q0 2 -3 4t-5 4q0 1 -3 4l-5 5q-3 0 -5.5 2t-6.5 4 h-6l-5 1q-6 0 -10 -0.5t-8 -0.5l-14 -8l-11 -15q-1 -4 -3.5 -7t-2.5 -9q0 -4 2 -8t4 -9q2 -4 4.5 -7t4.5 -5q4 -2 7 -5t7 -3q9 -5 14 -6q4 -2 6.5 -2t6.5 -2q5 0 10.5 -3.5t5.5 -9.5l2 -15q-2 -7 -4 -9l-4 -4q-12 -9 -23 -8q-2 0 -6 1t-6 1q-3 1 -8 6l-3 2q-4 4 -9 4h-7z M1507 317v138h17v-138h-17zM1556 90l7 4l8 2l2 2h10q13 -3 14 -4q5 -4 9 -6t6 -4q2 0 6 -1t10 -1h5q9 2 13 3.5t7 4.5q2 2 4.5 4t3.5 4q2 4 4 7.5t2 7.5q0 6 -6 10q-4 6 -8 6q-2 4 -6.5 5t-7.5 3q-5 0 -13 6q-5 0 -9.5 1t-10.5 6q-10 3 -13.5 6.5l-7.5 7.5q-12 4 -12 14 q-6 12 -6 25q0 19 6 26q1 4 6 11l8 10q4 2 9.5 4t13.5 6q6 0 11 1t13 1q4 0 8.5 -1t10.5 -1l16 -6q3 -4 6.5 -7t7.5 -7q3 -2 7 -5.5t4 -7.5l-14 -8l-21 -4l-6 2q-3 1 -6 4q-2 0 -3.5 1t-4.5 1h-17q-2 0 -3 -1t-5 -3l-7 -6q-1 -3 -1 -10q3 -6 4.5 -9.5t3.5 -7.5h6q9 -2 14 -5 t11 -5l8 -2q5 -4 9.5 -5.5t10.5 -4.5q6 -2 16.5 -13.5t10.5 -17.5q5 -9 6 -20q0 -15 -8 -29l-8 -13q-3 -5 -9 -8q-6 -6 -11 -10t-13 -6q-5 -2 -14 -3t-15 -1q-12 0 -33 4q-10 4 -22 19q-4 1 -6 5l-4 9q-6 2 -7 10zM1556 387v16l11 19q2 2 4.5 6t7.5 8q6 9 12 10q3 5 9 6 t10 3q4 0 8 2t10 2q4 0 10.5 -2t10.5 -2q4 -2 8 -3t8 -6l12 -10l13 -14q2 -4 4 -8.5t4 -10.5q0 -4 1 -9t1 -7q0 -6 -1 -14t-5 -17q-4 -13 -17 -20q-4 -4 -9 -8t-13 -9q-11 -2 -27 -2h-15q-4 0 -11 2q-16 4 -23 17q-12 9 -16 20q-6 15 -7 31zM1573 379q3 -15 8 -23q0 -2 2 -4 t4 -6l6 -4q2 -2 9 -2q2 -4 6 -5t6 -3h28q5 2 8 3t7 5l10 6q2 4 5 6t3 4q2 3 3 8t3 9q0 2 1 6t1 8q0 2 -1 8t-5 12q0 6 -4 10.5t-6 8.5q-3 1 -8 6l-10 6h-43q-4 -4 -9.5 -7t-9.5 -5q-2 -3 -5 -8t-3 -11q-3 -6 -4.5 -12t-1.5 -8v-8zM1628 604h94v21h-71v47h59v18h-59v45h71v23 h-94v-154zM1714 66v4l8 12q7 4 9 4l15 4l9 -8q6 0 6 -6l2 -10q0 -7 -2 -9q0 -4 -6 -10l-24 -4q-4 4 -9 4q0 2 -6 10q-2 2 -2 9zM1724 317v138h19l82 -113v113h14v-138h-12l-82 113v4h-4v-117h-17zM1778 154q0 9 1 14.5t3 13.5q2 17 10 25l9 13.5t9 10.5l25 19l27 10 q5 0 12.5 1t15.5 1h13q4 0 16 -3t16 -5l23 -14q4 -4 7.5 -8.5t6.5 -8.5l-14 -16h-15q-7 0 -14 4q-3 2 -8.5 5t-9.5 5q-9 2 -11 2h-10q-16 0 -28 -6q-16 -2 -23 -14q-7 -7 -14 -25q-2 -4 -4 -10t-2 -14q0 -10 6 -27.5t14 -24.5q10 -10 23 -16q13 -4 28 -4q5 0 10 1t11 1 q3 2 8.5 5t9.5 7q2 0 8 2h13q2 0 8 -2q2 -1 8 -6l6 -8l-6 -8t-8 -8q-6 -3 -11 -6t-12 -7q-5 -3 -16.5 -6.5t-17.5 -3.5h-11q-12 0 -23.5 2t-21.5 4q-21 10 -35 27q-16 15 -22 35q-4 10 -7 20t-3 23zM1810 679q0 -5 2.5 -13.5t6.5 -14.5q5 -16 16 -26q9 -15 25 -15 q12 -6 30 -6h21q3 2 8.5 4t9.5 4q4 3 8.5 6t5.5 7q10 5 15 16l8 18v43q-2 5 -3.5 9.5t-4.5 9.5q-5 6 -15 14q-1 4 -5.5 7t-8.5 8q-2 1 -4.5 2t-5.5 2l-8 4h-41q-5 -2 -10.5 -4t-10.5 -4q-3 -5 -6.5 -8t-7.5 -7q-3 -4 -6.5 -7t-5.5 -7q-2 -6 -5 -10t-3 -9q-5 -11 -5 -23z M1833 679q0 12 6 23q0 5 3 11t7 8q9 9 19.5 12.5t21.5 3.5q13 0 23 -4l18 -12q2 -2 6.5 -8t5.5 -11q4 -7 5 -23q0 -13 -5 -22q-1 -4 -6 -10l-6 -6q-5 -4 -9.5 -7t-8.5 -7q-9 -4 -23 -4q-15 0 -22 4q-5 4 -10 7t-9 7q-3 2 -6.5 7t-3.5 9q-4 6 -5 11.5t-1 10.5zM1942 317v138 h83v-17h-67v-49h55v-12h-55v-60h-16zM1989 154q0 9 1 14.5t1 13.5q3 7 6.5 14t7.5 11q2 9 6 13.5t10 10.5q3 4 10 8.5t13 10.5q4 2 11 4t13 6q11 0 17 1t12 1q10 0 17.5 -1t13.5 -1q6 -4 13 -6t13 -4q14 -11 25 -19q2 -6 8 -10.5t8 -13.5q3 -4 6 -10.5t5 -14.5q4 -7 4 -15 v-30q0 -7 -4 -12q-2 -7 -5 -15t-6 -14q-4 -7 -16 -20l-12 -10t-13 -9q-5 -5 -12.5 -7.5l-13.5 -4.5q-9 -2 -14 -2h-17q-20 0 -43 6q-9 6 -16.5 12.5t-16.5 14.5q-9 6 -14.5 14t-7.5 21q-6 10 -8 20t-2 23zM1997 604h22v121l90 -121h17v154h-21v-119l-2.5 5t-3.5 5l-74 103 l-4 6h-24v-154zM2030 154q0 -9 1 -15t1 -12q9 -17 16 -25q6 -4 11 -8t12 -8q7 -2 14.5 -3t11.5 -1q21 0 29 4q29 11 39 41q5 13 6 27q0 16 -6 24q-3 14 -14 24.5t-25 14.5q-4 4 -11.5 5t-17.5 1q-11 0 -26 -6q-7 -1 -12 -4.5t-11 -9.5q-9 -6 -16 -25q0 -4 -1 -10t-1 -14z M2042 317v138h57q3 0 10 -2q2 -2 5.5 -4.5t4.5 -4.5q4 -2 5.5 -6t7.5 -8v-27q-4 -4 -5 -8t-3 -6l-10 -8q-4 -1 -7.5 -2t-5.5 -2l45 -60h-12q-7 2 -8.5 3.5t-1.5 5.5l-39 51h-27v-60h-16zM2058 389h35q4 1 8 4q4 4 8 4q5 7 5 9q2 4 2 12q0 3 -2 8q0 1 -5 8q-3 0 -8 4h-43v-49 zM2161 387q0 2 1 7t1 9q2 4 3 9.5t5 9.5q2 3 5 6.5t5 7.5q7 5 17 10q3 5 8.5 6t7.5 3q5 0 8.5 2t11.5 2q2 0 7.5 -2t11.5 -2q4 -2 8 -3t6 -6q4 -2 9 -5t8 -5q1 -2 2 -3.5t2 -3.5l4 -7q6 -11 8 -19q2 -4 3 -9t1 -7q0 -6 -1 -14t-5 -17q0 -6 -6 -11l-8 -9q-6 -4 -12.5 -8 t-12.5 -9q-9 -2 -13 -2h-29q-4 0 -13 2q-12 4 -23 17q-7 7 -14 20q-2 9 -4 17t-2 14zM2163 604h90v21h-68v133h-22v-154zM2179 373q0 -4 1 -9t5 -8l4 -4q3 -3 4 -6l6 -4q7 -5 11.5 -6.5t7.5 -3.5h31l6 3q5 4 9.5 6t8.5 5l3 6q3 6 6.5 11.5t3.5 9.5v34q-2 6 -6.5 10.5 t-6.5 8.5q-6 2 -10 5t-8 7h-43q-6 -4 -10 -7t-9 -5q-7 -5 -12 -19q-2 -9 -2 -12v-22zM2228 758l58 -76v-3l4 -3v-72h21v70l5 5v3l58 76h-19q-5 0 -9.5 -4t-4.5 -9l-37 -47h-4l-39 47q-3 14 -16 13h-17zM2236 43v219h39q5 0 7 -1t4 -1q2 -2 3 -2t3 -2l8 -4q0 -2 2 -4t2 -4 q4 -17 11 -32t16 -34q6 -16 12 -32.5t12 -30.5v-13l6 13l9 14l45 115l4 8l6 4q2 2 4 2t4 2l1 1l44 1v-219h-37v160l-6 -10v-6q-9 -19 -15.5 -38.5t-15.5 -33.5q-6 -19 -12 -35.5t-14 -36.5h-37l-55 139q-5 3 -5 11l-4 6v-156h-41zM2333 317v138h14l8 -4v-5l49 -106l3 -2v4 q0 1 8 6l40 98q2 5 3.5 5t1.5 2l18 2v-138h-12v113l-2 -2v-2q-4 -7 -7 -17t-8 -14q-4 -7 -6 -13.5t-8 -14.5q-2 -9 -3 -15t-5 -10q-3 -9 -6.5 -13.5t-5.5 -11.5h-15q-10 13 -15 26t-11 28q-4 12 -11.5 26.5t-11.5 28.5v2h-4v-111h-14z" />
<glyph unicode="8" d="M66 43v14q0 10 2 11q0 2 6 8v4l2 4l4 4t2 6l94 129h-102v39h159v-24l-8 -15l-106 -143h2l2 2h108v-39h-165zM66 387q0 6 4 16q1 4 2.5 9.5t5.5 9.5l9 14q2 2 6.5 5t6.5 5q5 5 10 6t9 3q3 0 8.5 2t11.5 2q16 0 27 -8q14 -4 22 -15l-5 -6h-13q-3 2 -6.5 5t-7.5 3h-37 l-21 -12q-4 -3 -7.5 -7.5t-4.5 -11.5q-2 -6 -3 -12t-1 -8q0 -10 4 -14q0 -4 0.5 -9t0.5 -8l5 -4q5 -1 6 -6l8 -5q2 -1 7 -1q2 -4 5 -5t7 -3h33q2 2 7 3t9 5v29h-14v2l-6 4h-3l-1 8h38v-51q-2 -5 -4 -6.5t-6 -6.5h-12q-9 -2 -12 -2h-35q-5 0 -19 9q-7 0 -13 10l-9 14 q-4 4 -5.5 8t-2.5 9q-2 6 -3 10t-1 10zM74 506v586h911q0 30 5 59t20 53q12 29 26.5 52.5t36.5 41.5q38 42 92 62q27 12 54.5 17t56.5 5q33 0 61.5 -6t53.5 -16q59 -29 94.5 -64.5t62.5 -95.5q19 -52 19 -108h911v-586h-2404zM199 604h18v58h35q4 0 10 0.5t8 3.5q11 4 15 10 q4 2 7 6t3 8q5 13 6 19q0 10 -6 20q0 2 -4 6l-6 6q-2 3 -5.5 7t-9.5 4q-2 4 -8 5t-10 1h-53v-154zM217 682v53h35q4 0 10 -2l8 -4q2 -1 3 -4.5t3 -5.5q3 -4 3 -10v-4q0 -2 -3 -7q-2 -2 -3 -5t-3 -3q-1 -2 -3 -4t-5 -4h-45zM223 317v138h84v-17h-67v-43h55v-16h-55v-47h67 v-15h-84zM260 43v219h139v-39h-100v-49h82v-41h-82v-51h100v-39h-139zM315 604h97v21h-74v47h59v18h-59v45h74v23h-97v-154zM324 438v17h106v-17h-47v-121h-12v121h-47zM406 223v39h165v-39h-59v-180h-43v180h-63zM442 604h23v64h24l39 -56q1 -4 7 -6l24 -2l-47 68q4 0 12 4 q7 3 8 10q9 6 9 12v25q-6 15 -13 20q-5 9 -14 9q-2 4 -7 5t-9 1h-56v-154zM465 688v47h33q3 0 10 -2l6 -4l2 -4l2 -4q3 -1 4 -10q-1 -6 -4 -9l-4 -8q-2 0 -3 -2t-3 -2q-2 -2 -10 -2h-33zM516 317v138h86v-17h-70v-49h60v-12h-60v-60h-16zM541 43l96 219h35l94 -219h-25 q-9 0 -16 4q-2 2 -4 7t-6 9l-13 27h-100l-10 -27q0 -6 -4 -6l-8 -10q-2 0 -3.5 -1t-5.5 -1zM565 633l10 -18h3q7 -7 16.5 -9t19.5 -2h9q5 0 12 2q4 2 9 4t7 5q4 2 7.5 6t4.5 10q2 5 3.5 8.5t1.5 9.5q0 11 -5.5 19t-11.5 14q-2 0 -4 2t-6 4l-4 2h-4q-4 3 -6.5 3.5t-3.5 1.5 q-7 2 -9 3.5t-6 3.5q-6 3 -9 3l-3 22q9 7 12 8l15 2q11 -3 12 -6l6 -2q10 0 14 4l4 2l-6 8q-2 1 -5 4t-7 5q-2 0 -4 2t-6 4h-29q-5 -2 -7.5 -4t-6.5 -4q-2 -5 -6 -8t-7 -7q0 -4 -2 -7t-2 -9q0 -7 4 -17l5 -8l6 -4q2 -2 6 -5t7 -3l8 -5q2 -1 7 -1q1 -2 6 -2t7 -2l6 -2 q5 -4 5.5 -5.5t2.5 -5.5l2 -16q-4 -5 -4 -7.5t-2 -4.5q-1 -3 -7 -5l-3 -1q-4 0 -8 -1t-5 -1q-5 0 -11.5 1.5t-6.5 6.5l-4 2q-4 4 -12 4h-5zM623 129h61l-29 74h-2zM627 371v84h14v-84q0 -6 2 -9.5t6 -5.5q0 -6 3 -9.5t5 -4.5q0 -2 4.5 -4t6.5 -4q6 -2 8 -2h16q9 4 13 6l8 4 q4 1 8 14q4 3 4 15v84h14v-84q0 -10 -3.5 -22t-12.5 -17q-5 -13 -16 -13q-6 -1 -12 -1.5t-11 -0.5t-11 0.5t-14 1.5q-3 0 -16 13l-10 16q-1 6 -3.5 11.5t-2.5 11.5zM684 679q0 -16 6.5 -29t16.5 -25q12 -15 26 -15q12 -6 29 -6h20q6 2 11 4t8 4q12 5 16 13q7 7 12 16 q2 4 5.5 9t3.5 9q1 6 2.5 10.5t1.5 9.5q0 13 -4 23q0 5 -3.5 9t-5.5 10q-2 3 -5 6.5t-7 7.5l-7 6q-2 3 -9 9l-8 4q-2 1 -5 2l-6 2h-41q-11 -4 -18 -8q-4 -5 -8 -8t-8 -7q-12 -9 -13 -14q-4 -6 -5 -10t-3 -9q-1 -5 -1.5 -10.5t-0.5 -12.5zM705 679q0 21 9 32.5t25 21.5 q5 2 12 3t11 1q14 0 22 -4q13 -5 17 -12q6 -2 9 -8t5 -11q4 -7 4 -23q0 -11 -4 -22q-2 -4 -5 -9t-9 -7q-5 -10 -17 -14t-22 -4q-11 0 -23 4q-4 4 -9 7t-9 7q-2 2 -6 7t-6 9q-4 12 -4 22zM768 317v138h16v-123h64v-15h-80zM774 43v219h139v-39h-100v-56h82v-38h-82v-86h-39z M862 317v138h17v-123h63v-15h-80zM870 604h21v125h2l2 -2v-4l86 -119h16v154h-18v-119l-78 113q-4 0 -6 6h-25v-154zM928 154v13q0 4 2 15q5 18 12 25q4 9 8 13.5t8 10.5q7 4 12 8.5t11 10.5l29 10q4 0 11 1t15 1q9 0 16 -1t15 -1q6 -4 13 -6l14 -4l22 -19q4 -6 9 -10.5 t10 -13.5q2 -4 4 -10.5t6 -14.5q2 -11 2 -15v-30q0 -5 -2 -12q-3 -7 -5.5 -15t-4.5 -14q-5 -4 -10 -10t-9 -10q-15 -15 -23 -19.5t-26 -11.5q-4 -1 -7.5 -1.5t-7.5 -0.5h-16q-10 0 -20 2t-23 4q-12 6 -19 12.5t-16 14.5q-16 15 -23 35.5t-7 42.5zM967 139q0 -4 6 -12 q5 -15 13.5 -24t23.5 -17q10 -4 26 -4q19 0 29 4q15 7 20 16q14 5 18.5 22t4.5 30q0 15 -4 24q-4 18 -19 25q-2 6 -8 9t-12 5q-11 6 -29 6q-14 0 -26 -6q-11 -1 -23 -14q-9 -5 -14 -25q-5 -5 -6 -11v-28zM1010 455h5q11 0 15 -9l43 -104v-2h2l2 2q5 14 13 27.5t12 25.5 q4 15 10 27l12 24q0 5 1.5 5t1.5 2l18 2q-7 -17 -15 -34.5t-16 -33.5q-4 -9 -7.5 -18.5t-6.5 -18.5l-15 -33h-16zM1010 1092q0 -61 18.5 -103t56.5 -88q38 -37 87 -58.5t104 -21.5q53 0 102 19t85 59q21 19 35.5 40.5t25.5 43.5q21 54 22 109q0 46 -14.5 87.5t-44.5 77.5 q-14 19 -29.5 32.5t-34.5 25.5q-18 7 -37.5 17.5t-39.5 17.5l-32.5 6.5t-37.5 3.5q-59 0 -107 -25q-49 -17 -84 -57q-36 -36 -55.5 -85.5t-19.5 -100.5zM1014 604h12q7 0 10 2q0 2 6 6l11 27h77l11 -27q1 -4 6 -6q2 -2 8 -2h14l-67 154h-21zM1036 1092q0 19 3 40t12 42 q4 19 14 36t25 33h319l-315 -315q-28 36 -43 76q-9 18 -12 40.5t-3 47.5zM1061 659l29 64v6l2 -2v-4l28 -64h-59zM1114 1271q36 30 74 44q39 18 88 18q47 0 90 -18q17 -9 36 -21t36 -23h-324zM1116 909h322q-17 -14 -36 -26t-36 -19q-23 -6 -45.5 -11t-44.5 -5q-25 0 -46 5 t-42 11q-19 7 -37 19t-35 26zM1141 935l315 318q62 -78 62 -161q0 -23 -3.5 -44.5t-11.5 -41.5q-14 -37 -41 -71h-321zM1155 317v138h84v-17h-68v-43h60v-16h-60v-47h68v-15h-84zM1175 43v219h35q4 0 8.5 -1t4.5 -3q3 -2 5.5 -2t4.5 -2l22 -33q5 -9 10 -17.5t11 -17.5 q14 -14 24.5 -29.5t24.5 -29.5q0 -2 1 -5t1 -7l2 -5v152h38v-219h-36l-100 147l-4 3v2q-5 10 -7.5 12t-5.5 2v-166h-39zM1184 604h86v21h-66v133h-20v-154zM1274 317v138h56q10 -2 14.5 -4.5t9.5 -6.5q0 -2 3 -6t3 -8l2 -20q-3 -17 -6 -21l-6 -4q-2 -2 -7 -4q-3 -3 -12 -4 l47 -60h-15q-10 3 -9 9l-39 51h-28v-60h-13zM1287 389h38q5 0 6 4q4 4 10 4l2 4q5 11 5 17q0 2 -1 3t-1 5q-3 2 -4 3t-1 5q-5 0 -10 4h-44v-49zM1358 666q0 -7 1.5 -17.5t6.5 -15.5q2 -6 10 -12q2 -3 4.5 -6t8.5 -5q2 -2 6 -3t8 -3q4 0 7 -1t9 -1q4 0 7.5 1t11.5 1q2 2 5 3 t7 3q9 6 12 11q3 2 5.5 5t5.5 7q0 4 3 7t3 7v111h-21v-103q0 -3 -2 -8q-1 -7 -10 -12q0 -2 -4 -4t-6 -6l-9 -2h-8q-7 0 -14 2q-5 4 -8.5 6t-5.5 4l-11 12q0 3 -1 7.5t-1 11.5v92h-20v-92zM1389 223v39h165v-39h-65v-180h-39v180h-61zM1389 340l4 2h6q1 0 3.5 -1t4.5 -1 q4 -4 7 -5t5 -3h21q8 0 12 4q1 2 2 3.5t2 3.5q2 2 3 6.5t1 6.5q0 18 -16 23q-3 0 -13 4t-12 6q-10 0 -14 8q-2 0 -4 3l-4 6v23q0 1 2 7q0 9 8 10l6 5l4 2l4 2q4 0 6.5 2t8.5 2l10 -4q3 0 4.5 -1t5.5 -3q6 0 6 -7q5 0 7 -3l1 -3l-2 -2q-6 -2 -10 -2h-6l-25 4q-9 0 -8 -2 q-5 -7 -6 -8q-4 0 -4 -8q0 -5 4 -6q0 -4 4 -7l6 -4q4 -4 7.5 -4t7.5 -2l6 -2q3 0 8 -6h4l6 -2q5 -4 8 -7l5 -5q1 -5 1.5 -9.5t0.5 -9.5v-10q-5 -9 -7.5 -13t-7.5 -7q-2 -2 -6 -4.5t-6 -2.5q-4 -2 -10 -2h-10q-10 0 -17.5 1t-13.5 8q-2 0 -3 3t-5 5v4zM1501 633l8 -10v-2 q7 -5 9 -6q6 -7 14 -9t18 -2h12q3 0 11 2q2 2 6 4t8 5l6 8q3 3 4 8q7 7 7 18t-4.5 19t-12.5 14q-6 5 -6 6h-4l-39 17l-6 6q0 1 -1 3.5t-1 4.5q0 4 4 8q5 4 6.5 6t5.5 2q2 2 10 2l3 -1q5 -2 8 -3l6 -2q6 -2 8 -2q7 0 8 4l6 2q0 2 -3 4t-5 4q0 1 -3 4l-5 5q-3 0 -5.5 2t-6.5 4 h-6l-5 1q-6 0 -10 -0.5t-8 -0.5l-14 -8l-11 -15q-1 -4 -3.5 -7t-2.5 -9q0 -4 2 -8t4 -9q2 -4 4.5 -7t4.5 -5q4 -2 7 -5t7 -3q9 -5 14 -6q4 -2 6.5 -2t6.5 -2q5 0 10.5 -3.5t5.5 -9.5l2 -15q-2 -7 -4 -9l-4 -4q-12 -9 -23 -8q-2 0 -6 1t-6 1q-3 1 -8 6l-3 2q-4 4 -9 4h-7z M1507 317v138h17v-138h-17zM1556 90l7 4l8 2l2 2h10q13 -3 14 -4q5 -4 9 -6t6 -4q2 0 6 -1t10 -1h5q9 2 13 3.5t7 4.5q2 2 4.5 4t3.5 4q2 4 4 7.5t2 7.5q0 6 -6 10q-4 6 -8 6q-2 4 -6.5 5t-7.5 3q-5 0 -13 6q-5 0 -9.5 1t-10.5 6q-10 3 -13.5 6.5l-7.5 7.5q-12 4 -12 14 q-6 12 -6 25q0 19 6 26q1 4 6 11l8 10q4 2 9.5 4t13.5 6q6 0 11 1t13 1q4 0 8.5 -1t10.5 -1l16 -6q3 -4 6.5 -7t7.5 -7q3 -2 7 -5.5t4 -7.5l-14 -8l-21 -4l-6 2q-3 1 -6 4q-2 0 -3.5 1t-4.5 1h-17q-2 0 -3 -1t-5 -3l-7 -6q-1 -3 -1 -10q3 -6 4.5 -9.5t3.5 -7.5h6q9 -2 14 -5 t11 -5l8 -2q5 -4 9.5 -5.5t10.5 -4.5q6 -2 16.5 -13.5t10.5 -17.5q5 -9 6 -20q0 -15 -8 -29l-8 -13q-3 -5 -9 -8q-6 -6 -11 -10t-13 -6q-5 -2 -14 -3t-15 -1q-12 0 -33 4q-10 4 -22 19q-4 1 -6 5l-4 9q-6 2 -7 10zM1556 387v16l11 19q2 2 4.5 6t7.5 8q6 9 12 10q3 5 9 6 t10 3q4 0 8 2t10 2q4 0 10.5 -2t10.5 -2q4 -2 8 -3t8 -6l12 -10l13 -14q2 -4 4 -8.5t4 -10.5q0 -4 1 -9t1 -7q0 -6 -1 -14t-5 -17q-4 -13 -17 -20q-4 -4 -9 -8t-13 -9q-11 -2 -27 -2h-15q-4 0 -11 2q-16 4 -23 17q-12 9 -16 20q-6 15 -7 31zM1573 379q3 -15 8 -23q0 -2 2 -4 t4 -6l6 -4q2 -2 9 -2q2 -4 6 -5t6 -3h28q5 2 8 3t7 5l10 6q2 4 5 6t3 4q2 3 3 8t3 9q0 2 1 6t1 8q0 2 -1 8t-5 12q0 6 -4 10.5t-6 8.5q-3 1 -8 6l-10 6h-43q-4 -4 -9.5 -7t-9.5 -5q-2 -3 -5 -8t-3 -11q-3 -6 -4.5 -12t-1.5 -8v-8zM1628 604h94v21h-71v47h59v18h-59v45h71v23 h-94v-154zM1714 66v4l8 12q7 4 9 4l15 4l9 -8q6 0 6 -6l2 -10q0 -7 -2 -9q0 -4 -6 -10l-24 -4q-4 4 -9 4q0 2 -6 10q-2 2 -2 9zM1724 317v138h19l82 -113v113h14v-138h-12l-82 113v4h-4v-117h-17zM1778 154q0 9 1 14.5t3 13.5q2 17 10 25l9 13.5t9 10.5l25 19l27 10 q5 0 12.5 1t15.5 1h13q4 0 16 -3t16 -5l23 -14q4 -4 7.5 -8.5t6.5 -8.5l-14 -16h-15q-7 0 -14 4q-3 2 -8.5 5t-9.5 5q-9 2 -11 2h-10q-16 0 -28 -6q-16 -2 -23 -14q-7 -7 -14 -25q-2 -4 -4 -10t-2 -14q0 -10 6 -27.5t14 -24.5q10 -10 23 -16q13 -4 28 -4q5 0 10 1t11 1 q3 2 8.5 5t9.5 7q2 0 8 2h13q2 0 8 -2q2 -1 8 -6l6 -8l-6 -8t-8 -8q-6 -3 -11 -6t-12 -7q-5 -3 -16.5 -6.5t-17.5 -3.5h-11q-12 0 -23.5 2t-21.5 4q-21 10 -35 27q-16 15 -22 35q-4 10 -7 20t-3 23zM1810 679q0 -5 2.5 -13.5t6.5 -14.5q5 -16 16 -26q9 -15 25 -15 q12 -6 30 -6h21q3 2 8.5 4t9.5 4q4 3 8.5 6t5.5 7q10 5 15 16l8 18v43q-2 5 -3.5 9.5t-4.5 9.5q-5 6 -15 14q-1 4 -5.5 7t-8.5 8q-2 1 -4.5 2t-5.5 2l-8 4h-41q-5 -2 -10.5 -4t-10.5 -4q-3 -5 -6.5 -8t-7.5 -7q-3 -4 -6.5 -7t-5.5 -7q-2 -6 -5 -10t-3 -9q-5 -11 -5 -23z M1833 679q0 12 6 23q0 5 3 11t7 8q9 9 19.5 12.5t21.5 3.5q13 0 23 -4l18 -12q2 -2 6.5 -8t5.5 -11q4 -7 5 -23q0 -13 -5 -22q-1 -4 -6 -10l-6 -6q-5 -4 -9.5 -7t-8.5 -7q-9 -4 -23 -4q-15 0 -22 4q-5 4 -10 7t-9 7q-3 2 -6.5 7t-3.5 9q-4 6 -5 11.5t-1 10.5zM1942 317v138 h83v-17h-67v-49h55v-12h-55v-60h-16zM1989 154q0 9 1 14.5t1 13.5q3 7 6.5 14t7.5 11q2 9 6 13.5t10 10.5q3 4 10 8.5t13 10.5q4 2 11 4t13 6q11 0 17 1t12 1q10 0 17.5 -1t13.5 -1q6 -4 13 -6t13 -4q14 -11 25 -19q2 -6 8 -10.5t8 -13.5q3 -4 6 -10.5t5 -14.5q4 -7 4 -15 v-30q0 -7 -4 -12q-2 -7 -5 -15t-6 -14q-4 -7 -16 -20l-12 -10t-13 -9q-5 -5 -12.5 -7.5l-13.5 -4.5q-9 -2 -14 -2h-17q-20 0 -43 6q-9 6 -16.5 12.5t-16.5 14.5q-9 6 -14.5 14t-7.5 21q-6 10 -8 20t-2 23zM1997 604h22v121l90 -121h17v154h-21v-119l-2.5 5t-3.5 5l-74 103 l-4 6h-24v-154zM2030 154q0 -9 1 -15t1 -12q9 -17 16 -25q6 -4 11 -8t12 -8q7 -2 14.5 -3t11.5 -1q21 0 29 4q29 11 39 41q5 13 6 27q0 16 -6 24q-3 14 -14 24.5t-25 14.5q-4 4 -11.5 5t-17.5 1q-11 0 -26 -6q-7 -1 -12 -4.5t-11 -9.5q-9 -6 -16 -25q0 -4 -1 -10t-1 -14z M2042 317v138h57q3 0 10 -2q2 -2 5.5 -4.5t4.5 -4.5q4 -2 5.5 -6t7.5 -8v-27q-4 -4 -5 -8t-3 -6l-10 -8q-4 -1 -7.5 -2t-5.5 -2l45 -60h-12q-7 2 -8.5 3.5t-1.5 5.5l-39 51h-27v-60h-16zM2058 389h35q4 1 8 4q4 4 8 4q5 7 5 9q2 4 2 12q0 3 -2 8q0 1 -5 8q-3 0 -8 4h-43v-49 zM2161 387q0 2 1 7t1 9q2 4 3 9.5t5 9.5q2 3 5 6.5t5 7.5q7 5 17 10q3 5 8.5 6t7.5 3q5 0 8.5 2t11.5 2q2 0 7.5 -2t11.5 -2q4 -2 8 -3t6 -6q4 -2 9 -5t8 -5q1 -2 2 -3.5t2 -3.5l4 -7q6 -11 8 -19q2 -4 3 -9t1 -7q0 -6 -1 -14t-5 -17q0 -6 -6 -11l-8 -9q-6 -4 -12.5 -8 t-12.5 -9q-9 -2 -13 -2h-29q-4 0 -13 2q-12 4 -23 17q-7 7 -14 20q-2 9 -4 17t-2 14zM2163 604h90v21h-68v133h-22v-154zM2179 373q0 -4 1 -9t5 -8l4 -4q3 -3 4 -6l6 -4q7 -5 11.5 -6.5t7.5 -3.5h31l6 3q5 4 9.5 6t8.5 5l3 6q3 6 6.5 11.5t3.5 9.5v34q-2 6 -6.5 10.5 t-6.5 8.5q-6 2 -10 5t-8 7h-43q-6 -4 -10 -7t-9 -5q-7 -5 -12 -19q-2 -9 -2 -12v-22zM2228 758l58 -76v-3l4 -3v-72h21v70l5 5v3l58 76h-19q-5 0 -9.5 -4t-4.5 -9l-37 -47h-4l-39 47q-3 14 -16 13h-17zM2236 43v219h39q5 0 7 -1t4 -1q2 -2 3 -2t3 -2l8 -4q0 -2 2 -4t2 -4 q4 -17 11 -32t16 -34q6 -16 12 -32.5t12 -30.5v-13l6 13l9 14l45 115l4 8l6 4q2 2 4 2t4 2l1 1l44 1v-219h-37v160l-6 -10v-6q-9 -19 -15.5 -38.5t-15.5 -33.5q-6 -19 -12 -35.5t-14 -36.5h-37l-55 139q-5 3 -5 11l-4 6v-156h-41zM2333 317v138h14l8 -4v-5l49 -106l3 -2v4 q0 1 8 6l40 98q2 5 3.5 5t1.5 2l18 2v-138h-12v113l-2 -2v-2q-4 -7 -7 -17t-8 -14q-4 -7 -6 -13.5t-8 -14.5q-2 -9 -3 -15t-5 -10q-3 -9 -6.5 -13.5t-5.5 -11.5h-15q-10 13 -15 26t-11 28q-4 12 -11.5 26.5t-11.5 28.5v2h-4v-111h-14z" />
<glyph unicode="9" d="M66 43v14q0 10 2 11q0 2 6 8v4l2 4l4 4t2 6l94 129h-102v39h159v-24l-8 -15l-106 -143h2l2 2h108v-39h-165zM66 387q0 6 4 16q1 4 2.5 9.5t5.5 9.5l9 14q2 2 6.5 5t6.5 5q5 5 10 6t9 3q3 0 8.5 2t11.5 2q16 0 27 -8q14 -4 22 -15l-5 -6h-13q-3 2 -6.5 5t-7.5 3h-37 l-21 -12q-4 -3 -7.5 -7.5t-4.5 -11.5q-2 -6 -3 -12t-1 -8q0 -10 4 -14q0 -4 0.5 -9t0.5 -8l5 -4q5 -1 6 -6l8 -5q2 -1 7 -1q2 -4 5 -5t7 -3h33q2 2 7 3t9 5v29h-14v2l-6 4h-3l-1 8h38v-51q-2 -5 -4 -6.5t-6 -6.5h-12q-9 -2 -12 -2h-35q-5 0 -19 9q-7 0 -13 10l-9 14 q-4 4 -5.5 8t-2.5 9q-2 6 -3 10t-1 10zM74 506v586h911q0 30 5 59t20 53q12 29 26.5 52.5t36.5 41.5q38 42 92 62q27 12 54.5 17t56.5 5q33 0 61.5 -6t53.5 -16q59 -29 94.5 -64.5t62.5 -95.5q19 -52 19 -108h911v-586h-2404zM199 604h18v58h35q4 0 10 0.5t8 3.5q11 4 15 10 q4 2 7 6t3 8q5 13 6 19q0 10 -6 20q0 2 -4 6l-6 6q-2 3 -5.5 7t-9.5 4q-2 4 -8 5t-10 1h-53v-154zM217 682v53h35q4 0 10 -2l8 -4q2 -1 3 -4.5t3 -5.5q3 -4 3 -10v-4q0 -2 -3 -7q-2 -2 -3 -5t-3 -3q-1 -2 -3 -4t-5 -4h-45zM223 317v138h84v-17h-67v-43h55v-16h-55v-47h67 v-15h-84zM260 43v219h139v-39h-100v-49h82v-41h-82v-51h100v-39h-139zM315 604h97v21h-74v47h59v18h-59v45h74v23h-97v-154zM324 438v17h106v-17h-47v-121h-12v121h-47zM406 223v39h165v-39h-59v-180h-43v180h-63zM442 604h23v64h24l39 -56q1 -4 7 -6l24 -2l-47 68q4 0 12 4 q7 3 8 10q9 6 9 12v25q-6 15 -13 20q-5 9 -14 9q-2 4 -7 5t-9 1h-56v-154zM465 688v47h33q3 0 10 -2l6 -4l2 -4l2 -4q3 -1 4 -10q-1 -6 -4 -9l-4 -8q-2 0 -3 -2t-3 -2q-2 -2 -10 -2h-33zM516 317v138h86v-17h-70v-49h60v-12h-60v-60h-16zM541 43l96 219h35l94 -219h-25 q-9 0 -16 4q-2 2 -4 7t-6 9l-13 27h-100l-10 -27q0 -6 -4 -6l-8 -10q-2 0 -3.5 -1t-5.5 -1zM565 633l10 -18h3q7 -7 16.5 -9t19.5 -2h9q5 0 12 2q4 2 9 4t7 5q4 2 7.5 6t4.5 10q2 5 3.5 8.5t1.5 9.5q0 11 -5.5 19t-11.5 14q-2 0 -4 2t-6 4l-4 2h-4q-4 3 -6.5 3.5t-3.5 1.5 q-7 2 -9 3.5t-6 3.5q-6 3 -9 3l-3 22q9 7 12 8l15 2q11 -3 12 -6l6 -2q10 0 14 4l4 2l-6 8q-2 1 -5 4t-7 5q-2 0 -4 2t-6 4h-29q-5 -2 -7.5 -4t-6.5 -4q-2 -5 -6 -8t-7 -7q0 -4 -2 -7t-2 -9q0 -7 4 -17l5 -8l6 -4q2 -2 6 -5t7 -3l8 -5q2 -1 7 -1q1 -2 6 -2t7 -2l6 -2 q5 -4 5.5 -5.5t2.5 -5.5l2 -16q-4 -5 -4 -7.5t-2 -4.5q-1 -3 -7 -5l-3 -1q-4 0 -8 -1t-5 -1q-5 0 -11.5 1.5t-6.5 6.5l-4 2q-4 4 -12 4h-5zM623 129h61l-29 74h-2zM627 371v84h14v-84q0 -6 2 -9.5t6 -5.5q0 -6 3 -9.5t5 -4.5q0 -2 4.5 -4t6.5 -4q6 -2 8 -2h16q9 4 13 6l8 4 q4 1 8 14q4 3 4 15v84h14v-84q0 -10 -3.5 -22t-12.5 -17q-5 -13 -16 -13q-6 -1 -12 -1.5t-11 -0.5t-11 0.5t-14 1.5q-3 0 -16 13l-10 16q-1 6 -3.5 11.5t-2.5 11.5zM684 679q0 -16 6.5 -29t16.5 -25q12 -15 26 -15q12 -6 29 -6h20q6 2 11 4t8 4q12 5 16 13q7 7 12 16 q2 4 5.5 9t3.5 9q1 6 2.5 10.5t1.5 9.5q0 13 -4 23q0 5 -3.5 9t-5.5 10q-2 3 -5 6.5t-7 7.5l-7 6q-2 3 -9 9l-8 4q-2 1 -5 2l-6 2h-41q-11 -4 -18 -8q-4 -5 -8 -8t-8 -7q-12 -9 -13 -14q-4 -6 -5 -10t-3 -9q-1 -5 -1.5 -10.5t-0.5 -12.5zM705 679q0 21 9 32.5t25 21.5 q5 2 12 3t11 1q14 0 22 -4q13 -5 17 -12q6 -2 9 -8t5 -11q4 -7 4 -23q0 -11 -4 -22q-2 -4 -5 -9t-9 -7q-5 -10 -17 -14t-22 -4q-11 0 -23 4q-4 4 -9 7t-9 7q-2 2 -6 7t-6 9q-4 12 -4 22zM768 317v138h16v-123h64v-15h-80zM774 43v219h139v-39h-100v-56h82v-38h-82v-86h-39z M862 317v138h17v-123h63v-15h-80zM870 604h21v125h2l2 -2v-4l86 -119h16v154h-18v-119l-78 113q-4 0 -6 6h-25v-154zM928 154v13q0 4 2 15q5 18 12 25q4 9 8 13.5t8 10.5q7 4 12 8.5t11 10.5l29 10q4 0 11 1t15 1q9 0 16 -1t15 -1q6 -4 13 -6l14 -4l22 -19q4 -6 9 -10.5 t10 -13.5q2 -4 4 -10.5t6 -14.5q2 -11 2 -15v-30q0 -5 -2 -12q-3 -7 -5.5 -15t-4.5 -14q-5 -4 -10 -10t-9 -10q-15 -15 -23 -19.5t-26 -11.5q-4 -1 -7.5 -1.5t-7.5 -0.5h-16q-10 0 -20 2t-23 4q-12 6 -19 12.5t-16 14.5q-16 15 -23 35.5t-7 42.5zM967 139q0 -4 6 -12 q5 -15 13.5 -24t23.5 -17q10 -4 26 -4q19 0 29 4q15 7 20 16q14 5 18.5 22t4.5 30q0 15 -4 24q-4 18 -19 25q-2 6 -8 9t-12 5q-11 6 -29 6q-14 0 -26 -6q-11 -1 -23 -14q-9 -5 -14 -25q-5 -5 -6 -11v-28zM1010 455h5q11 0 15 -9l43 -104v-2h2l2 2q5 14 13 27.5t12 25.5 q4 15 10 27l12 24q0 5 1.5 5t1.5 2l18 2q-7 -17 -15 -34.5t-16 -33.5q-4 -9 -7.5 -18.5t-6.5 -18.5l-15 -33h-16zM1010 1092q0 -61 18.5 -103t56.5 -88q38 -37 87 -58.5t104 -21.5q53 0 102 19t85 59q21 19 35.5 40.5t25.5 43.5q21 54 22 109q0 46 -14.5 87.5t-44.5 77.5 q-14 19 -29.5 32.5t-34.5 25.5q-18 7 -37.5 17.5t-39.5 17.5l-32.5 6.5t-37.5 3.5q-59 0 -107 -25q-49 -17 -84 -57q-36 -36 -55.5 -85.5t-19.5 -100.5zM1014 604h12q7 0 10 2q0 2 6 6l11 27h77l11 -27q1 -4 6 -6q2 -2 8 -2h14l-67 154h-21zM1036 1092q0 19 3 40t12 42 q4 19 14 36t25 33h319l-315 -315q-28 36 -43 76q-9 18 -12 40.5t-3 47.5zM1061 659l29 64v6l2 -2v-4l28 -64h-59zM1114 1271q36 30 74 44q39 18 88 18q47 0 90 -18q17 -9 36 -21t36 -23h-324zM1116 909h322q-17 -14 -36 -26t-36 -19q-23 -6 -45.5 -11t-44.5 -5q-25 0 -46 5 t-42 11q-19 7 -37 19t-35 26zM1141 935l315 318q62 -78 62 -161q0 -23 -3.5 -44.5t-11.5 -41.5q-14 -37 -41 -71h-321zM1155 317v138h84v-17h-68v-43h60v-16h-60v-47h68v-15h-84zM1175 43v219h35q4 0 8.5 -1t4.5 -3q3 -2 5.5 -2t4.5 -2l22 -33q5 -9 10 -17.5t11 -17.5 q14 -14 24.5 -29.5t24.5 -29.5q0 -2 1 -5t1 -7l2 -5v152h38v-219h-36l-100 147l-4 3v2q-5 10 -7.5 12t-5.5 2v-166h-39zM1184 604h86v21h-66v133h-20v-154zM1274 317v138h56q10 -2 14.5 -4.5t9.5 -6.5q0 -2 3 -6t3 -8l2 -20q-3 -17 -6 -21l-6 -4q-2 -2 -7 -4q-3 -3 -12 -4 l47 -60h-15q-10 3 -9 9l-39 51h-28v-60h-13zM1287 389h38q5 0 6 4q4 4 10 4l2 4q5 11 5 17q0 2 -1 3t-1 5q-3 2 -4 3t-1 5q-5 0 -10 4h-44v-49zM1358 666q0 -7 1.5 -17.5t6.5 -15.5q2 -6 10 -12q2 -3 4.5 -6t8.5 -5q2 -2 6 -3t8 -3q4 0 7 -1t9 -1q4 0 7.5 1t11.5 1q2 2 5 3 t7 3q9 6 12 11q3 2 5.5 5t5.5 7q0 4 3 7t3 7v111h-21v-103q0 -3 -2 -8q-1 -7 -10 -12q0 -2 -4 -4t-6 -6l-9 -2h-8q-7 0 -14 2q-5 4 -8.5 6t-5.5 4l-11 12q0 3 -1 7.5t-1 11.5v92h-20v-92zM1389 223v39h165v-39h-65v-180h-39v180h-61zM1389 340l4 2h6q1 0 3.5 -1t4.5 -1 q4 -4 7 -5t5 -3h21q8 0 12 4q1 2 2 3.5t2 3.5q2 2 3 6.5t1 6.5q0 18 -16 23q-3 0 -13 4t-12 6q-10 0 -14 8q-2 0 -4 3l-4 6v23q0 1 2 7q0 9 8 10l6 5l4 2l4 2q4 0 6.5 2t8.5 2l10 -4q3 0 4.5 -1t5.5 -3q6 0 6 -7q5 0 7 -3l1 -3l-2 -2q-6 -2 -10 -2h-6l-25 4q-9 0 -8 -2 q-5 -7 -6 -8q-4 0 -4 -8q0 -5 4 -6q0 -4 4 -7l6 -4q4 -4 7.5 -4t7.5 -2l6 -2q3 0 8 -6h4l6 -2q5 -4 8 -7l5 -5q1 -5 1.5 -9.5t0.5 -9.5v-10q-5 -9 -7.5 -13t-7.5 -7q-2 -2 -6 -4.5t-6 -2.5q-4 -2 -10 -2h-10q-10 0 -17.5 1t-13.5 8q-2 0 -3 3t-5 5v4zM1501 633l8 -10v-2 q7 -5 9 -6q6 -7 14 -9t18 -2h12q3 0 11 2q2 2 6 4t8 5l6 8q3 3 4 8q7 7 7 18t-4.5 19t-12.5 14q-6 5 -6 6h-4l-39 17l-6 6q0 1 -1 3.5t-1 4.5q0 4 4 8q5 4 6.5 6t5.5 2q2 2 10 2l3 -1q5 -2 8 -3l6 -2q6 -2 8 -2q7 0 8 4l6 2q0 2 -3 4t-5 4q0 1 -3 4l-5 5q-3 0 -5.5 2t-6.5 4 h-6l-5 1q-6 0 -10 -0.5t-8 -0.5l-14 -8l-11 -15q-1 -4 -3.5 -7t-2.5 -9q0 -4 2 -8t4 -9q2 -4 4.5 -7t4.5 -5q4 -2 7 -5t7 -3q9 -5 14 -6q4 -2 6.5 -2t6.5 -2q5 0 10.5 -3.5t5.5 -9.5l2 -15q-2 -7 -4 -9l-4 -4q-12 -9 -23 -8q-2 0 -6 1t-6 1q-3 1 -8 6l-3 2q-4 4 -9 4h-7z M1507 317v138h17v-138h-17zM1556 90l7 4l8 2l2 2h10q13 -3 14 -4q5 -4 9 -6t6 -4q2 0 6 -1t10 -1h5q9 2 13 3.5t7 4.5q2 2 4.5 4t3.5 4q2 4 4 7.5t2 7.5q0 6 -6 10q-4 6 -8 6q-2 4 -6.5 5t-7.5 3q-5 0 -13 6q-5 0 -9.5 1t-10.5 6q-10 3 -13.5 6.5l-7.5 7.5q-12 4 -12 14 q-6 12 -6 25q0 19 6 26q1 4 6 11l8 10q4 2 9.5 4t13.5 6q6 0 11 1t13 1q4 0 8.5 -1t10.5 -1l16 -6q3 -4 6.5 -7t7.5 -7q3 -2 7 -5.5t4 -7.5l-14 -8l-21 -4l-6 2q-3 1 -6 4q-2 0 -3.5 1t-4.5 1h-17q-2 0 -3 -1t-5 -3l-7 -6q-1 -3 -1 -10q3 -6 4.5 -9.5t3.5 -7.5h6q9 -2 14 -5 t11 -5l8 -2q5 -4 9.5 -5.5t10.5 -4.5q6 -2 16.5 -13.5t10.5 -17.5q5 -9 6 -20q0 -15 -8 -29l-8 -13q-3 -5 -9 -8q-6 -6 -11 -10t-13 -6q-5 -2 -14 -3t-15 -1q-12 0 -33 4q-10 4 -22 19q-4 1 -6 5l-4 9q-6 2 -7 10zM1556 387v16l11 19q2 2 4.5 6t7.5 8q6 9 12 10q3 5 9 6 t10 3q4 0 8 2t10 2q4 0 10.5 -2t10.5 -2q4 -2 8 -3t8 -6l12 -10l13 -14q2 -4 4 -8.5t4 -10.5q0 -4 1 -9t1 -7q0 -6 -1 -14t-5 -17q-4 -13 -17 -20q-4 -4 -9 -8t-13 -9q-11 -2 -27 -2h-15q-4 0 -11 2q-16 4 -23 17q-12 9 -16 20q-6 15 -7 31zM1573 379q3 -15 8 -23q0 -2 2 -4 t4 -6l6 -4q2 -2 9 -2q2 -4 6 -5t6 -3h28q5 2 8 3t7 5l10 6q2 4 5 6t3 4q2 3 3 8t3 9q0 2 1 6t1 8q0 2 -1 8t-5 12q0 6 -4 10.5t-6 8.5q-3 1 -8 6l-10 6h-43q-4 -4 -9.5 -7t-9.5 -5q-2 -3 -5 -8t-3 -11q-3 -6 -4.5 -12t-1.5 -8v-8zM1628 604h94v21h-71v47h59v18h-59v45h71v23 h-94v-154zM1714 66v4l8 12q7 4 9 4l15 4l9 -8q6 0 6 -6l2 -10q0 -7 -2 -9q0 -4 -6 -10l-24 -4q-4 4 -9 4q0 2 -6 10q-2 2 -2 9zM1724 317v138h19l82 -113v113h14v-138h-12l-82 113v4h-4v-117h-17zM1778 154q0 9 1 14.5t3 13.5q2 17 10 25l9 13.5t9 10.5l25 19l27 10 q5 0 12.5 1t15.5 1h13q4 0 16 -3t16 -5l23 -14q4 -4 7.5 -8.5t6.5 -8.5l-14 -16h-15q-7 0 -14 4q-3 2 -8.5 5t-9.5 5q-9 2 -11 2h-10q-16 0 -28 -6q-16 -2 -23 -14q-7 -7 -14 -25q-2 -4 -4 -10t-2 -14q0 -10 6 -27.5t14 -24.5q10 -10 23 -16q13 -4 28 -4q5 0 10 1t11 1 q3 2 8.5 5t9.5 7q2 0 8 2h13q2 0 8 -2q2 -1 8 -6l6 -8l-6 -8t-8 -8q-6 -3 -11 -6t-12 -7q-5 -3 -16.5 -6.5t-17.5 -3.5h-11q-12 0 -23.5 2t-21.5 4q-21 10 -35 27q-16 15 -22 35q-4 10 -7 20t-3 23zM1810 679q0 -5 2.5 -13.5t6.5 -14.5q5 -16 16 -26q9 -15 25 -15 q12 -6 30 -6h21q3 2 8.5 4t9.5 4q4 3 8.5 6t5.5 7q10 5 15 16l8 18v43q-2 5 -3.5 9.5t-4.5 9.5q-5 6 -15 14q-1 4 -5.5 7t-8.5 8q-2 1 -4.5 2t-5.5 2l-8 4h-41q-5 -2 -10.5 -4t-10.5 -4q-3 -5 -6.5 -8t-7.5 -7q-3 -4 -6.5 -7t-5.5 -7q-2 -6 -5 -10t-3 -9q-5 -11 -5 -23z M1833 679q0 12 6 23q0 5 3 11t7 8q9 9 19.5 12.5t21.5 3.5q13 0 23 -4l18 -12q2 -2 6.5 -8t5.5 -11q4 -7 5 -23q0 -13 -5 -22q-1 -4 -6 -10l-6 -6q-5 -4 -9.5 -7t-8.5 -7q-9 -4 -23 -4q-15 0 -22 4q-5 4 -10 7t-9 7q-3 2 -6.5 7t-3.5 9q-4 6 -5 11.5t-1 10.5zM1942 317v138 h83v-17h-67v-49h55v-12h-55v-60h-16zM1989 154q0 9 1 14.5t1 13.5q3 7 6.5 14t7.5 11q2 9 6 13.5t10 10.5q3 4 10 8.5t13 10.5q4 2 11 4t13 6q11 0 17 1t12 1q10 0 17.5 -1t13.5 -1q6 -4 13 -6t13 -4q14 -11 25 -19q2 -6 8 -10.5t8 -13.5q3 -4 6 -10.5t5 -14.5q4 -7 4 -15 v-30q0 -7 -4 -12q-2 -7 -5 -15t-6 -14q-4 -7 -16 -20l-12 -10t-13 -9q-5 -5 -12.5 -7.5l-13.5 -4.5q-9 -2 -14 -2h-17q-20 0 -43 6q-9 6 -16.5 12.5t-16.5 14.5q-9 6 -14.5 14t-7.5 21q-6 10 -8 20t-2 23zM1997 604h22v121l90 -121h17v154h-21v-119l-2.5 5t-3.5 5l-74 103 l-4 6h-24v-154zM2030 154q0 -9 1 -15t1 -12q9 -17 16 -25q6 -4 11 -8t12 -8q7 -2 14.5 -3t11.5 -1q21 0 29 4q29 11 39 41q5 13 6 27q0 16 -6 24q-3 14 -14 24.5t-25 14.5q-4 4 -11.5 5t-17.5 1q-11 0 -26 -6q-7 -1 -12 -4.5t-11 -9.5q-9 -6 -16 -25q0 -4 -1 -10t-1 -14z M2042 317v138h57q3 0 10 -2q2 -2 5.5 -4.5t4.5 -4.5q4 -2 5.5 -6t7.5 -8v-27q-4 -4 -5 -8t-3 -6l-10 -8q-4 -1 -7.5 -2t-5.5 -2l45 -60h-12q-7 2 -8.5 3.5t-1.5 5.5l-39 51h-27v-60h-16zM2058 389h35q4 1 8 4q4 4 8 4q5 7 5 9q2 4 2 12q0 3 -2 8q0 1 -5 8q-3 0 -8 4h-43v-49 zM2161 387q0 2 1 7t1 9q2 4 3 9.5t5 9.5q2 3 5 6.5t5 7.5q7 5 17 10q3 5 8.5 6t7.5 3q5 0 8.5 2t11.5 2q2 0 7.5 -2t11.5 -2q4 -2 8 -3t6 -6q4 -2 9 -5t8 -5q1 -2 2 -3.5t2 -3.5l4 -7q6 -11 8 -19q2 -4 3 -9t1 -7q0 -6 -1 -14t-5 -17q0 -6 -6 -11l-8 -9q-6 -4 -12.5 -8 t-12.5 -9q-9 -2 -13 -2h-29q-4 0 -13 2q-12 4 -23 17q-7 7 -14 20q-2 9 -4 17t-2 14zM2163 604h90v21h-68v133h-22v-154zM2179 373q0 -4 1 -9t5 -8l4 -4q3 -3 4 -6l6 -4q7 -5 11.5 -6.5t7.5 -3.5h31l6 3q5 4 9.5 6t8.5 5l3 6q3 6 6.5 11.5t3.5 9.5v34q-2 6 -6.5 10.5 t-6.5 8.5q-6 2 -10 5t-8 7h-43q-6 -4 -10 -7t-9 -5q-7 -5 -12 -19q-2 -9 -2 -12v-22zM2228 758l58 -76v-3l4 -3v-72h21v70l5 5v3l58 76h-19q-5 0 -9.5 -4t-4.5 -9l-37 -47h-4l-39 47q-3 14 -16 13h-17zM2236 43v219h39q5 0 7 -1t4 -1q2 -2 3 -2t3 -2l8 -4q0 -2 2 -4t2 -4 q4 -17 11 -32t16 -34q6 -16 12 -32.5t12 -30.5v-13l6 13l9 14l45 115l4 8l6 4q2 2 4 2t4 2l1 1l44 1v-219h-37v160l-6 -10v-6q-9 -19 -15.5 -38.5t-15.5 -33.5q-6 -19 -12 -35.5t-14 -36.5h-37l-55 139q-5 3 -5 11l-4 6v-156h-41zM2333 317v138h14l8 -4v-5l49 -106l3 -2v4 q0 1 8 6l40 98q2 5 3.5 5t1.5 2l18 2v-138h-12v113l-2 -2v-2q-4 -7 -7 -17t-8 -14q-4 -7 -6 -13.5t-8 -14.5q-2 -9 -3 -15t-5 -10q-3 -9 -6.5 -13.5t-5.5 -11.5h-15q-10 13 -15 26t-11 28q-4 12 -11.5 26.5t-11.5 28.5v2h-4v-111h-14z" />
<glyph unicode=":" horiz-adv-x="625" d="M140 41q0 -13 4.5 -21t11.5 -12.5t14 -6t10 -1.5h252q3 0 10 1.5t14 6t12.5 12.5t5.5 21v251q0 4 -2 11t-6 14t-12.5 12t-21.5 5h-252q-15 0 -27.5 -10t-12.5 -33v-250zM140 1013q0 -13 4.5 -20.5t11.5 -12t14 -6t10 -1.5h252q3 0 10 1.5t14 6t12.5 12.5t5.5 20v252 q0 4 -2 11t-6 14t-12.5 12t-21.5 5h-252q-15 0 -27.5 -10.5t-12.5 -32.5v-251z" />
<glyph unicode=";" horiz-adv-x="625" d="M134 1014q0 -13 4.5 -21t11.5 -12.5t14 -6t10 -1.5h284q3 0 10 1.5t14 6t12.5 12.5t5.5 21v262q0 4 -2 11t-6 14t-12.5 12t-21.5 5h-284q-15 0 -27.5 -10.5t-12.5 -32.5v-261zM146 56q0 -28 13.5 -41t35.5 -13h65q12 0 14.5 -9t2.5 -13q0 -48 -19.5 -83t-49.5 -63 q-4 -4 -11 -10t-10 -14t-2 -16.5t12 -17.5l93 -91q14 -11 23 -11t16 5.5t14 11.5q22 19 51.5 50t55 79t43 115.5t17.5 158.5v182q0 59 -56 58h-255q-21 0 -37 -12t-16 -50v-216z" />
<glyph unicode="&#x3c;" horiz-adv-x="910" d="M56.5 627q3.5 -15 14.5 -26l565 -564q5 -5 13 -9.5t18 -4.5q13 0 23 11l156 153q12 12 14 30.5t-12 32.5l-386 380l386 381q14 14 12 32.5t-14 30.5l-156 153q-11 11 -23 10q-10 0 -18 -4t-13 -10l-565 -563q-18 -18 -14.5 -33z" />
<glyph unicode="=" horiz-adv-x="1126" d="M170 316q0 -22 11.5 -33t32.5 -11h682q23 0 34 15.5t11 32.5v176q0 21 -13.5 33t-31.5 12h-682q-4 0 -12 -1t-15 -6.5t-12 -15.5t-5 -28v-174zM170 738q0 -22 11.5 -33t32.5 -11h682q23 0 34 15.5t11 32.5v176q0 21 -13.5 33t-31.5 12h-682q-4 0 -12 -1t-15 -6.5 t-12 -15.5t-5 -28v-174z" />
<glyph unicode="&#x3e;" horiz-adv-x="910" d="M80 217.5q-2 18.5 12 32.5l386 380l-386 381q-14 14 -12 32.5t14 30.5l156 153q11 11 23 10q10 0 18 -4t13 -10l565 -563q18 -18 14.5 -33t-14.5 -26l-565 -564q-5 -5 -13 -9.5t-18 -4.5q-13 0 -23 11l-156 153q-12 12 -14 30.5z" />
<glyph unicode="?" horiz-adv-x="1163" d="M69 1183q0 -18 10.5 -30t30.5 -12h249q29 0 40.5 10t11.5 49q0 21 10 51t31.5 58.5t54 48t76.5 19.5q43 0 76 -14.5t56 -38t35 -51.5t12 -56q0 -41 -8 -67.5t-24 -46t-40.5 -36.5t-58.5 -40q-106 -71 -167 -136t-61 -141v-140q0 -25 6.5 -44t37.5 -19l253 2 q33 1 42.5 16.5t10.5 46.5v73q0 28 12 48t30 36t39 29.5t40 26.5q45 32 86 62t73 73.5t50.5 106t18.5 158.5q0 106 -45 193.5t-117 151t-162.5 99.5t-181.5 36q-112 0 -208 -35.5t-167 -102.5t-111.5 -164t-40.5 -220zM394 50q0 -14 5.5 -23.5t13.5 -14.5t15.5 -7t12.5 -2 h268q5 0 13.5 1.5t16.5 7t13.5 14.5t5.5 24v239q0 5 -2 13t-7.5 15.5t-15 13.5t-24.5 6h-268q-16 0 -31.5 -11.5t-15.5 -39.5v-236z" />
<glyph unicode="@" d="M66 43v14q0 10 2 11q0 2 6 8v4l2 4l4 4t2 6l94 129h-102v39h159v-24l-8 -15l-106 -143h2l2 2h108v-39h-165zM66 387q0 6 4 16q1 4 2.5 9.5t5.5 9.5l9 14q2 2 6.5 5t6.5 5q5 5 10 6t9 3q3 0 8.5 2t11.5 2q16 0 27 -8q14 -4 22 -15l-5 -6h-13q-3 2 -6.5 5t-7.5 3h-37 l-21 -12q-4 -3 -7.5 -7.5t-4.5 -11.5q-2 -6 -3 -12t-1 -8q0 -10 4 -14q0 -4 0.5 -9t0.5 -8l5 -4q5 -1 6 -6l8 -5q2 -1 7 -1q2 -4 5 -5t7 -3h33q2 2 7 3t9 5v29h-14v2l-6 4h-3l-1 8h38v-51q-2 -5 -4 -6.5t-6 -6.5h-12q-9 -2 -12 -2h-35q-5 0 -19 9q-7 0 -13 10l-9 14 q-4 4 -5.5 8t-2.5 9q-2 6 -3 10t-1 10zM74 506v586h911q0 30 5 59t20 53q12 29 26.5 52.5t36.5 41.5q38 42 92 62q27 12 54.5 17t56.5 5q33 0 61.5 -6t53.5 -16q59 -29 94.5 -64.5t62.5 -95.5q19 -52 19 -108h911v-586h-2404zM199 604h18v58h35q4 0 10 0.5t8 3.5q11 4 15 10 q4 2 7 6t3 8q5 13 6 19q0 10 -6 20q0 2 -4 6l-6 6q-2 3 -5.5 7t-9.5 4q-2 4 -8 5t-10 1h-53v-154zM217 682v53h35q4 0 10 -2l8 -4q2 -1 3 -4.5t3 -5.5q3 -4 3 -10v-4q0 -2 -3 -7q-2 -2 -3 -5t-3 -3q-1 -2 -3 -4t-5 -4h-45zM223 317v138h84v-17h-67v-43h55v-16h-55v-47h67 v-15h-84zM260 43v219h139v-39h-100v-49h82v-41h-82v-51h100v-39h-139zM315 604h97v21h-74v47h59v18h-59v45h74v23h-97v-154zM324 438v17h106v-17h-47v-121h-12v121h-47zM406 223v39h165v-39h-59v-180h-43v180h-63zM442 604h23v64h24l39 -56q1 -4 7 -6l24 -2l-47 68q4 0 12 4 q7 3 8 10q9 6 9 12v25q-6 15 -13 20q-5 9 -14 9q-2 4 -7 5t-9 1h-56v-154zM465 688v47h33q3 0 10 -2l6 -4l2 -4l2 -4q3 -1 4 -10q-1 -6 -4 -9l-4 -8q-2 0 -3 -2t-3 -2q-2 -2 -10 -2h-33zM516 317v138h86v-17h-70v-49h60v-12h-60v-60h-16zM541 43l96 219h35l94 -219h-25 q-9 0 -16 4q-2 2 -4 7t-6 9l-13 27h-100l-10 -27q0 -6 -4 -6l-8 -10q-2 0 -3.5 -1t-5.5 -1zM565 633l10 -18h3q7 -7 16.5 -9t19.5 -2h9q5 0 12 2q4 2 9 4t7 5q4 2 7.5 6t4.5 10q2 5 3.5 8.5t1.5 9.5q0 11 -5.5 19t-11.5 14q-2 0 -4 2t-6 4l-4 2h-4q-4 3 -6.5 3.5t-3.5 1.5 q-7 2 -9 3.5t-6 3.5q-6 3 -9 3l-3 22q9 7 12 8l15 2q11 -3 12 -6l6 -2q10 0 14 4l4 2l-6 8q-2 1 -5 4t-7 5q-2 0 -4 2t-6 4h-29q-5 -2 -7.5 -4t-6.5 -4q-2 -5 -6 -8t-7 -7q0 -4 -2 -7t-2 -9q0 -7 4 -17l5 -8l6 -4q2 -2 6 -5t7 -3l8 -5q2 -1 7 -1q1 -2 6 -2t7 -2l6 -2 q5 -4 5.5 -5.5t2.5 -5.5l2 -16q-4 -5 -4 -7.5t-2 -4.5q-1 -3 -7 -5l-3 -1q-4 0 -8 -1t-5 -1q-5 0 -11.5 1.5t-6.5 6.5l-4 2q-4 4 -12 4h-5zM623 129h61l-29 74h-2zM627 371v84h14v-84q0 -6 2 -9.5t6 -5.5q0 -6 3 -9.5t5 -4.5q0 -2 4.5 -4t6.5 -4q6 -2 8 -2h16q9 4 13 6l8 4 q4 1 8 14q4 3 4 15v84h14v-84q0 -10 -3.5 -22t-12.5 -17q-5 -13 -16 -13q-6 -1 -12 -1.5t-11 -0.5t-11 0.5t-14 1.5q-3 0 -16 13l-10 16q-1 6 -3.5 11.5t-2.5 11.5zM684 679q0 -16 6.5 -29t16.5 -25q12 -15 26 -15q12 -6 29 -6h20q6 2 11 4t8 4q12 5 16 13q7 7 12 16 q2 4 5.5 9t3.5 9q1 6 2.5 10.5t1.5 9.5q0 13 -4 23q0 5 -3.5 9t-5.5 10q-2 3 -5 6.5t-7 7.5l-7 6q-2 3 -9 9l-8 4q-2 1 -5 2l-6 2h-41q-11 -4 -18 -8q-4 -5 -8 -8t-8 -7q-12 -9 -13 -14q-4 -6 -5 -10t-3 -9q-1 -5 -1.5 -10.5t-0.5 -12.5zM705 679q0 21 9 32.5t25 21.5 q5 2 12 3t11 1q14 0 22 -4q13 -5 17 -12q6 -2 9 -8t5 -11q4 -7 4 -23q0 -11 -4 -22q-2 -4 -5 -9t-9 -7q-5 -10 -17 -14t-22 -4q-11 0 -23 4q-4 4 -9 7t-9 7q-2 2 -6 7t-6 9q-4 12 -4 22zM768 317v138h16v-123h64v-15h-80zM774 43v219h139v-39h-100v-56h82v-38h-82v-86h-39z M862 317v138h17v-123h63v-15h-80zM870 604h21v125h2l2 -2v-4l86 -119h16v154h-18v-119l-78 113q-4 0 -6 6h-25v-154zM928 154v13q0 4 2 15q5 18 12 25q4 9 8 13.5t8 10.5q7 4 12 8.5t11 10.5l29 10q4 0 11 1t15 1q9 0 16 -1t15 -1q6 -4 13 -6l14 -4l22 -19q4 -6 9 -10.5 t10 -13.5q2 -4 4 -10.5t6 -14.5q2 -11 2 -15v-30q0 -5 -2 -12q-3 -7 -5.5 -15t-4.5 -14q-5 -4 -10 -10t-9 -10q-15 -15 -23 -19.5t-26 -11.5q-4 -1 -7.5 -1.5t-7.5 -0.5h-16q-10 0 -20 2t-23 4q-12 6 -19 12.5t-16 14.5q-16 15 -23 35.5t-7 42.5zM967 139q0 -4 6 -12 q5 -15 13.5 -24t23.5 -17q10 -4 26 -4q19 0 29 4q15 7 20 16q14 5 18.5 22t4.5 30q0 15 -4 24q-4 18 -19 25q-2 6 -8 9t-12 5q-11 6 -29 6q-14 0 -26 -6q-11 -1 -23 -14q-9 -5 -14 -25q-5 -5 -6 -11v-28zM1010 455h5q11 0 15 -9l43 -104v-2h2l2 2q5 14 13 27.5t12 25.5 q4 15 10 27l12 24q0 5 1.5 5t1.5 2l18 2q-7 -17 -15 -34.5t-16 -33.5q-4 -9 -7.5 -18.5t-6.5 -18.5l-15 -33h-16zM1010 1092q0 -61 18.5 -103t56.5 -88q38 -37 87 -58.5t104 -21.5q53 0 102 19t85 59q21 19 35.5 40.5t25.5 43.5q21 54 22 109q0 46 -14.5 87.5t-44.5 77.5 q-14 19 -29.5 32.5t-34.5 25.5q-18 7 -37.5 17.5t-39.5 17.5l-32.5 6.5t-37.5 3.5q-59 0 -107 -25q-49 -17 -84 -57q-36 -36 -55.5 -85.5t-19.5 -100.5zM1014 604h12q7 0 10 2q0 2 6 6l11 27h77l11 -27q1 -4 6 -6q2 -2 8 -2h14l-67 154h-21zM1036 1092q0 19 3 40t12 42 q4 19 14 36t25 33h319l-315 -315q-28 36 -43 76q-9 18 -12 40.5t-3 47.5zM1061 659l29 64v6l2 -2v-4l28 -64h-59zM1114 1271q36 30 74 44q39 18 88 18q47 0 90 -18q17 -9 36 -21t36 -23h-324zM1116 909h322q-17 -14 -36 -26t-36 -19q-23 -6 -45.5 -11t-44.5 -5q-25 0 -46 5 t-42 11q-19 7 -37 19t-35 26zM1141 935l315 318q62 -78 62 -161q0 -23 -3.5 -44.5t-11.5 -41.5q-14 -37 -41 -71h-321zM1155 317v138h84v-17h-68v-43h60v-16h-60v-47h68v-15h-84zM1175 43v219h35q4 0 8.5 -1t4.5 -3q3 -2 5.5 -2t4.5 -2l22 -33q5 -9 10 -17.5t11 -17.5 q14 -14 24.5 -29.5t24.5 -29.5q0 -2 1 -5t1 -7l2 -5v152h38v-219h-36l-100 147l-4 3v2q-5 10 -7.5 12t-5.5 2v-166h-39zM1184 604h86v21h-66v133h-20v-154zM1274 317v138h56q10 -2 14.5 -4.5t9.5 -6.5q0 -2 3 -6t3 -8l2 -20q-3 -17 -6 -21l-6 -4q-2 -2 -7 -4q-3 -3 -12 -4 l47 -60h-15q-10 3 -9 9l-39 51h-28v-60h-13zM1287 389h38q5 0 6 4q4 4 10 4l2 4q5 11 5 17q0 2 -1 3t-1 5q-3 2 -4 3t-1 5q-5 0 -10 4h-44v-49zM1358 666q0 -7 1.5 -17.5t6.5 -15.5q2 -6 10 -12q2 -3 4.5 -6t8.5 -5q2 -2 6 -3t8 -3q4 0 7 -1t9 -1q4 0 7.5 1t11.5 1q2 2 5 3 t7 3q9 6 12 11q3 2 5.5 5t5.5 7q0 4 3 7t3 7v111h-21v-103q0 -3 -2 -8q-1 -7 -10 -12q0 -2 -4 -4t-6 -6l-9 -2h-8q-7 0 -14 2q-5 4 -8.5 6t-5.5 4l-11 12q0 3 -1 7.5t-1 11.5v92h-20v-92zM1389 223v39h165v-39h-65v-180h-39v180h-61zM1389 340l4 2h6q1 0 3.5 -1t4.5 -1 q4 -4 7 -5t5 -3h21q8 0 12 4q1 2 2 3.5t2 3.5q2 2 3 6.5t1 6.5q0 18 -16 23q-3 0 -13 4t-12 6q-10 0 -14 8q-2 0 -4 3l-4 6v23q0 1 2 7q0 9 8 10l6 5l4 2l4 2q4 0 6.5 2t8.5 2l10 -4q3 0 4.5 -1t5.5 -3q6 0 6 -7q5 0 7 -3l1 -3l-2 -2q-6 -2 -10 -2h-6l-25 4q-9 0 -8 -2 q-5 -7 -6 -8q-4 0 -4 -8q0 -5 4 -6q0 -4 4 -7l6 -4q4 -4 7.5 -4t7.5 -2l6 -2q3 0 8 -6h4l6 -2q5 -4 8 -7l5 -5q1 -5 1.5 -9.5t0.5 -9.5v-10q-5 -9 -7.5 -13t-7.5 -7q-2 -2 -6 -4.5t-6 -2.5q-4 -2 -10 -2h-10q-10 0 -17.5 1t-13.5 8q-2 0 -3 3t-5 5v4zM1501 633l8 -10v-2 q7 -5 9 -6q6 -7 14 -9t18 -2h12q3 0 11 2q2 2 6 4t8 5l6 8q3 3 4 8q7 7 7 18t-4.5 19t-12.5 14q-6 5 -6 6h-4l-39 17l-6 6q0 1 -1 3.5t-1 4.5q0 4 4 8q5 4 6.5 6t5.5 2q2 2 10 2l3 -1q5 -2 8 -3l6 -2q6 -2 8 -2q7 0 8 4l6 2q0 2 -3 4t-5 4q0 1 -3 4l-5 5q-3 0 -5.5 2t-6.5 4 h-6l-5 1q-6 0 -10 -0.5t-8 -0.5l-14 -8l-11 -15q-1 -4 -3.5 -7t-2.5 -9q0 -4 2 -8t4 -9q2 -4 4.5 -7t4.5 -5q4 -2 7 -5t7 -3q9 -5 14 -6q4 -2 6.5 -2t6.5 -2q5 0 10.5 -3.5t5.5 -9.5l2 -15q-2 -7 -4 -9l-4 -4q-12 -9 -23 -8q-2 0 -6 1t-6 1q-3 1 -8 6l-3 2q-4 4 -9 4h-7z M1507 317v138h17v-138h-17zM1556 90l7 4l8 2l2 2h10q13 -3 14 -4q5 -4 9 -6t6 -4q2 0 6 -1t10 -1h5q9 2 13 3.5t7 4.5q2 2 4.5 4t3.5 4q2 4 4 7.5t2 7.5q0 6 -6 10q-4 6 -8 6q-2 4 -6.5 5t-7.5 3q-5 0 -13 6q-5 0 -9.5 1t-10.5 6q-10 3 -13.5 6.5l-7.5 7.5q-12 4 -12 14 q-6 12 -6 25q0 19 6 26q1 4 6 11l8 10q4 2 9.5 4t13.5 6q6 0 11 1t13 1q4 0 8.5 -1t10.5 -1l16 -6q3 -4 6.5 -7t7.5 -7q3 -2 7 -5.5t4 -7.5l-14 -8l-21 -4l-6 2q-3 1 -6 4q-2 0 -3.5 1t-4.5 1h-17q-2 0 -3 -1t-5 -3l-7 -6q-1 -3 -1 -10q3 -6 4.5 -9.5t3.5 -7.5h6q9 -2 14 -5 t11 -5l8 -2q5 -4 9.5 -5.5t10.5 -4.5q6 -2 16.5 -13.5t10.5 -17.5q5 -9 6 -20q0 -15 -8 -29l-8 -13q-3 -5 -9 -8q-6 -6 -11 -10t-13 -6q-5 -2 -14 -3t-15 -1q-12 0 -33 4q-10 4 -22 19q-4 1 -6 5l-4 9q-6 2 -7 10zM1556 387v16l11 19q2 2 4.5 6t7.5 8q6 9 12 10q3 5 9 6 t10 3q4 0 8 2t10 2q4 0 10.5 -2t10.5 -2q4 -2 8 -3t8 -6l12 -10l13 -14q2 -4 4 -8.5t4 -10.5q0 -4 1 -9t1 -7q0 -6 -1 -14t-5 -17q-4 -13 -17 -20q-4 -4 -9 -8t-13 -9q-11 -2 -27 -2h-15q-4 0 -11 2q-16 4 -23 17q-12 9 -16 20q-6 15 -7 31zM1573 379q3 -15 8 -23q0 -2 2 -4 t4 -6l6 -4q2 -2 9 -2q2 -4 6 -5t6 -3h28q5 2 8 3t7 5l10 6q2 4 5 6t3 4q2 3 3 8t3 9q0 2 1 6t1 8q0 2 -1 8t-5 12q0 6 -4 10.5t-6 8.5q-3 1 -8 6l-10 6h-43q-4 -4 -9.5 -7t-9.5 -5q-2 -3 -5 -8t-3 -11q-3 -6 -4.5 -12t-1.5 -8v-8zM1628 604h94v21h-71v47h59v18h-59v45h71v23 h-94v-154zM1714 66v4l8 12q7 4 9 4l15 4l9 -8q6 0 6 -6l2 -10q0 -7 -2 -9q0 -4 -6 -10l-24 -4q-4 4 -9 4q0 2 -6 10q-2 2 -2 9zM1724 317v138h19l82 -113v113h14v-138h-12l-82 113v4h-4v-117h-17zM1778 154q0 9 1 14.5t3 13.5q2 17 10 25l9 13.5t9 10.5l25 19l27 10 q5 0 12.5 1t15.5 1h13q4 0 16 -3t16 -5l23 -14q4 -4 7.5 -8.5t6.5 -8.5l-14 -16h-15q-7 0 -14 4q-3 2 -8.5 5t-9.5 5q-9 2 -11 2h-10q-16 0 -28 -6q-16 -2 -23 -14q-7 -7 -14 -25q-2 -4 -4 -10t-2 -14q0 -10 6 -27.5t14 -24.5q10 -10 23 -16q13 -4 28 -4q5 0 10 1t11 1 q3 2 8.5 5t9.5 7q2 0 8 2h13q2 0 8 -2q2 -1 8 -6l6 -8l-6 -8t-8 -8q-6 -3 -11 -6t-12 -7q-5 -3 -16.5 -6.5t-17.5 -3.5h-11q-12 0 -23.5 2t-21.5 4q-21 10 -35 27q-16 15 -22 35q-4 10 -7 20t-3 23zM1810 679q0 -5 2.5 -13.5t6.5 -14.5q5 -16 16 -26q9 -15 25 -15 q12 -6 30 -6h21q3 2 8.5 4t9.5 4q4 3 8.5 6t5.5 7q10 5 15 16l8 18v43q-2 5 -3.5 9.5t-4.5 9.5q-5 6 -15 14q-1 4 -5.5 7t-8.5 8q-2 1 -4.5 2t-5.5 2l-8 4h-41q-5 -2 -10.5 -4t-10.5 -4q-3 -5 -6.5 -8t-7.5 -7q-3 -4 -6.5 -7t-5.5 -7q-2 -6 -5 -10t-3 -9q-5 -11 -5 -23z M1833 679q0 12 6 23q0 5 3 11t7 8q9 9 19.5 12.5t21.5 3.5q13 0 23 -4l18 -12q2 -2 6.5 -8t5.5 -11q4 -7 5 -23q0 -13 -5 -22q-1 -4 -6 -10l-6 -6q-5 -4 -9.5 -7t-8.5 -7q-9 -4 -23 -4q-15 0 -22 4q-5 4 -10 7t-9 7q-3 2 -6.5 7t-3.5 9q-4 6 -5 11.5t-1 10.5zM1942 317v138 h83v-17h-67v-49h55v-12h-55v-60h-16zM1989 154q0 9 1 14.5t1 13.5q3 7 6.5 14t7.5 11q2 9 6 13.5t10 10.5q3 4 10 8.5t13 10.5q4 2 11 4t13 6q11 0 17 1t12 1q10 0 17.5 -1t13.5 -1q6 -4 13 -6t13 -4q14 -11 25 -19q2 -6 8 -10.5t8 -13.5q3 -4 6 -10.5t5 -14.5q4 -7 4 -15 v-30q0 -7 -4 -12q-2 -7 -5 -15t-6 -14q-4 -7 -16 -20l-12 -10t-13 -9q-5 -5 -12.5 -7.5l-13.5 -4.5q-9 -2 -14 -2h-17q-20 0 -43 6q-9 6 -16.5 12.5t-16.5 14.5q-9 6 -14.5 14t-7.5 21q-6 10 -8 20t-2 23zM1997 604h22v121l90 -121h17v154h-21v-119l-2.5 5t-3.5 5l-74 103 l-4 6h-24v-154zM2030 154q0 -9 1 -15t1 -12q9 -17 16 -25q6 -4 11 -8t12 -8q7 -2 14.5 -3t11.5 -1q21 0 29 4q29 11 39 41q5 13 6 27q0 16 -6 24q-3 14 -14 24.5t-25 14.5q-4 4 -11.5 5t-17.5 1q-11 0 -26 -6q-7 -1 -12 -4.5t-11 -9.5q-9 -6 -16 -25q0 -4 -1 -10t-1 -14z M2042 317v138h57q3 0 10 -2q2 -2 5.5 -4.5t4.5 -4.5q4 -2 5.5 -6t7.5 -8v-27q-4 -4 -5 -8t-3 -6l-10 -8q-4 -1 -7.5 -2t-5.5 -2l45 -60h-12q-7 2 -8.5 3.5t-1.5 5.5l-39 51h-27v-60h-16zM2058 389h35q4 1 8 4q4 4 8 4q5 7 5 9q2 4 2 12q0 3 -2 8q0 1 -5 8q-3 0 -8 4h-43v-49 zM2161 387q0 2 1 7t1 9q2 4 3 9.5t5 9.5q2 3 5 6.5t5 7.5q7 5 17 10q3 5 8.5 6t7.5 3q5 0 8.5 2t11.5 2q2 0 7.5 -2t11.5 -2q4 -2 8 -3t6 -6q4 -2 9 -5t8 -5q1 -2 2 -3.5t2 -3.5l4 -7q6 -11 8 -19q2 -4 3 -9t1 -7q0 -6 -1 -14t-5 -17q0 -6 -6 -11l-8 -9q-6 -4 -12.5 -8 t-12.5 -9q-9 -2 -13 -2h-29q-4 0 -13 2q-12 4 -23 17q-7 7 -14 20q-2 9 -4 17t-2 14zM2163 604h90v21h-68v133h-22v-154zM2179 373q0 -4 1 -9t5 -8l4 -4q3 -3 4 -6l6 -4q7 -5 11.5 -6.5t7.5 -3.5h31l6 3q5 4 9.5 6t8.5 5l3 6q3 6 6.5 11.5t3.5 9.5v34q-2 6 -6.5 10.5 t-6.5 8.5q-6 2 -10 5t-8 7h-43q-6 -4 -10 -7t-9 -5q-7 -5 -12 -19q-2 -9 -2 -12v-22zM2228 758l58 -76v-3l4 -3v-72h21v70l5 5v3l58 76h-19q-5 0 -9.5 -4t-4.5 -9l-37 -47h-4l-39 47q-3 14 -16 13h-17zM2236 43v219h39q5 0 7 -1t4 -1q2 -2 3 -2t3 -2l8 -4q0 -2 2 -4t2 -4 q4 -17 11 -32t16 -34q6 -16 12 -32.5t12 -30.5v-13l6 13l9 14l45 115l4 8l6 4q2 2 4 2t4 2l1 1l44 1v-219h-37v160l-6 -10v-6q-9 -19 -15.5 -38.5t-15.5 -33.5q-6 -19 -12 -35.5t-14 -36.5h-37l-55 139q-5 3 -5 11l-4 6v-156h-41zM2333 317v138h14l8 -4v-5l49 -106l3 -2v4 q0 1 8 6l40 98q2 5 3.5 5t1.5 2l18 2v-138h-12v113l-2 -2v-2q-4 -7 -7 -17t-8 -14q-4 -7 -6 -13.5t-8 -14.5q-2 -9 -3 -15t-5 -10q-3 -9 -6.5 -13.5t-5.5 -11.5h-15q-10 13 -15 26t-11 28q-4 12 -11.5 26.5t-11.5 28.5v2h-4v-111h-14z" />
<glyph unicode="A" horiz-adv-x="1566" d="M45 45q-5 -12 -5 -21q0 -24 34 -24h305q47 0 62 45l69 200h559l71 -200q15 -45 61 -45h305q34 0 34 24q0 9 -5 21l-559 1430q-18 46 -62 46h-251q-45 0 -62 -46zM625 575l161 465l165 -465h-326z" />
<glyph unicode="B" horiz-adv-x="1444" d="M164 45q0 -45 45 -45h739q91 0 172 37t142.5 100.5t97 146.5t35.5 176q0 103 -43.5 197t-116.5 161q45 52 68.5 118.5t23.5 142.5q0 92 -34.5 172.5t-94.5 140.5t-140 94.5t-169 34.5h-680q-45 0 -45 -46v-1430zM560 304v342h274q34 0 63 -15.5t50.5 -40t33 -54.5 t11.5 -61q0 -34 -13 -65t-34.5 -54.5t-50 -37.5t-60.5 -14h-274zM560 922v296h221q34 0 62 -11.5t49 -32t32 -47t11 -57.5q0 -32 -11.5 -59.5t-32.5 -47t-49.5 -30.5t-63.5 -11h-218z" />
<glyph unicode="C" horiz-adv-x="1442" d="M105 764q0 -163 61.5 -306t168.5 -250t249.5 -168.5t306.5 -61.5q140 0 249.5 40.5t190.5 97.5q23 16 27 30.5t-13 35.5l-167 247q-12 18 -30 18q-10 0 -20.5 -4.5t-22.5 -13.5q-41 -28 -95 -51t-119 -23q-85 0 -158 32t-125.5 87t-82.5 129.5t-30 160.5q0 85 30 158.5 t82.5 128t125 86t158.5 31.5q64 0 115 -18t102 -59q17 -14 35 -14q17 0 28 15l178 255q7 12 4.5 27.5t-18.5 27.5q-42 30 -90.5 56t-104 45t-118 30.5t-131.5 11.5q-163 0 -306 -61t-250 -166.5t-168.5 -248t-61.5 -305.5z" />
<glyph unicode="D" horiz-adv-x="1582" d="M147 45q0 -45 45 -45h531q106 0 202.5 29t180.5 79.5t153.5 121.5t118.5 155t76.5 179.5t27.5 194.5q0 106 -30 203.5t-82.5 182t-124 154.5t-155.5 119t-177.5 76t-189.5 27h-531q-45 0 -45 -46v-1430zM543 363v795h143q85 0 158 -31.5t126.5 -85t84 -126.5t30.5 -156 q0 -82 -30.5 -154t-84 -125.5t-126.5 -85t-158 -31.5h-143z" />
<glyph unicode="E" horiz-adv-x="1382" d="M164 45q0 -45 45 -45h1038q46 0 46 45v261q0 45 -46 45h-687v261h507q50 0 50 45v211q0 25 -13.5 36t-36.5 11h-507v253h668q45 0 45 45v262q0 46 -45 46h-1019q-45 0 -45 -46v-1430z" />
<glyph unicode="F" horiz-adv-x="1326" d="M172 45q0 -45 45 -45h306q45 0 44 45v468h458q45 0 45 45v248q0 46 -45 46h-458v316h624q45 0 45 45v262q0 46 -45 46h-974q-45 0 -45 -46v-1430z" />
<glyph unicode="G" horiz-adv-x="1538" d="M111 765q0 -163 62 -306t169 -250t250 -168.5t306 -61.5q140 0 265.5 33t218.5 93q15 9 20 21t5 27v494q0 29 -15.5 37t-28.5 8h-286q-45 0 -44 -45v-270q-34 -11 -71 -16t-73 -5q-83 0 -153 32.5t-121.5 88t-79.5 130t-28 158.5q0 85 27.5 158.5t79 128t123.5 86 t161 31.5q67 0 122.5 -21t102.5 -55q14 -11 29 -10q20 0 32 18l170 243q11 15 7 30.5t-20 27.5q-94 69 -201 105t-246 36q-163 0 -305.5 -60.5t-248.5 -165.5t-167.5 -247t-61.5 -305z" />
<glyph unicode="H" horiz-adv-x="1640" d="M167 45q0 -45 45 -45h301q49 0 49 45v582h514v-582q0 -45 45 -45h301q49 0 49 45v1432q0 28 -15 36t-28 8h-307q-22 0 -33.5 -14t-11.5 -32v-486h-514v488q0 28 -15 36t-28 8h-307q-22 0 -33.5 -14t-11.5 -32v-1430z" />
<glyph unicode="I" horiz-adv-x="729" d="M167 45q0 -45 45 -45h306q45 0 45 45v1430q0 46 -45 46h-306q-45 0 -45 -46v-1430z" />
<glyph unicode="J" horiz-adv-x="923" d="M-129.5 -184.5q-0.5 -12.5 3.5 -25.5t11 -23.5t13 -17.5q33 -43 78 -75t96 -53.5t102.5 -32.5t97.5 -11q100 0 191 38t159 104t108.5 154.5t40.5 189.5v1405q0 31 -12 42t-43 11h-297q-4 0 -11 -1t-14.5 -5.5t-13 -13.5t-5.5 -24v-1414q0 -23 -10.5 -44.5t-27.5 -37 t-39.5 -24.5t-45.5 -9q-32 0 -55 12t-47 30q-12 10 -23.5 21t-27.5 11q-9 0 -19 -4t-21 -16l-177 -164q-11 -10 -11.5 -22.5z" />
<glyph unicode="K" horiz-adv-x="1564" d="M162 45q0 -45 44 -45h306q45 0 45 45v339l150 182l336 -521q13 -21 27 -33t36 -12h388q21 0 25 13.5t-11 34.5l-549 825l495 600q13 15 13 31.5t-25 16.5h-369q-25 0 -40.5 -5t-35.5 -29l-440 -573v561q0 12 -5.5 20.5t-13.5 14t-16.5 8.5t-13.5 3h-302q-20 0 -32 -12 t-12 -34v-1430z" />
<glyph unicode="L" horiz-adv-x="1206" d="M129 45q0 -45 44 -45h918q45 0 45 45v273q0 45 -45 45h-567v1112q0 46 -45 46h-306q-18 0 -31 -11.5t-13 -34.5v-1430z" />
<glyph unicode="M" horiz-adv-x="1965" d="M106 45q-2 -22 10 -33.5t34 -11.5h292q22 0 32 11t12 34l87 823l236 -821q7 -28 17 -37.5t33 -9.5h254q22 0 31.5 9.5t18.5 37.5l239 801l83 -803q2 -22 12 -33.5t33 -11.5h291q22 0 34.5 11t10.5 34l-153 1430q-2 22 -12 34t-33 12h-358q-22 0 -29.5 -11t-15.5 -35 l-279 -919l-280 919q-7 23 -14.5 34.5t-30.5 11.5h-358q-22 0 -32.5 -11.5t-12.5 -34.5z" />
<glyph unicode="N" horiz-adv-x="1640" d="M167 45q0 -45 45 -45h286q50 0 50 45v886l539 -886q28 -45 74 -45h299q50 0 50 45v1430q0 20 -17 33t-33 13h-285q-23 0 -34 -14t-11 -32v-830l-513 830q-14 21 -32.5 33.5t-40.5 12.5h-332q-22 0 -33.5 -14t-11.5 -32v-1430z" />
<glyph unicode="O" horiz-adv-x="1745" d="M94 761q0 -162 61.5 -304.5t168 -249t249 -167.5t304.5 -61t305 61t249 167.5t167.5 248.5t61.5 305q0 162 -61.5 305t-167.5 249t-249 167t-305 61t-304.5 -61t-249 -167t-168 -249t-61.5 -305zM487 761q0 85 29.5 158.5t81.5 129t123.5 87t155.5 31.5q85 0 156 -31.5 t123.5 -87t81 -129t28.5 -158.5q0 -84 -28.5 -158.5t-81 -129.5t-123.5 -87t-156 -32q-84 0 -155.5 32t-123.5 87t-81.5 129.5t-29.5 158.5z" />
<glyph unicode="P" horiz-adv-x="1373" d="M145 45q0 -45 44 -45h304q47 0 47 45v486h313q105 0 191 42t147 111.5t94.5 157.5t33.5 181q0 94 -34 183.5t-96.5 159.5t-150 112.5t-192.5 42.5h-657q-18 0 -31 -11.5t-13 -34.5v-1430zM540 854v342h221q37 0 65.5 -15t49 -39.5t31 -55t10.5 -61.5q0 -32 -10.5 -63 t-30 -55t-49 -38.5t-66.5 -14.5h-221z" />
<glyph unicode="Q" horiz-adv-x="1745" d="M94 761q0 -135 43.5 -258t121 -222.5t184 -171t231.5 -104.5v-280q0 -45 45 -45h306q45 0 45 45v277q127 32 235 103.5t187 171.5t123.5 223t44.5 261q0 162 -61.5 305t-167.5 249t-249 167t-305 61t-304.5 -61t-249 -167t-168 -249t-61.5 -305zM487 761q0 85 29.5 158.5 t81.5 129t123.5 87t155.5 31.5q85 0 156 -31.5t123.5 -87t81 -129t28.5 -158.5q0 -84 -28.5 -158.5t-81 -129.5t-123.5 -87t-156 -32q-84 0 -155.5 32t-123.5 87t-81.5 129.5t-29.5 158.5z" />
<glyph unicode="R" horiz-adv-x="1440" d="M166 45q0 -45 44 -45h306q45 0 45 45v461h165l243 -463q13 -25 23.5 -34t31.5 -9h369q21 0 27.5 15t-1.5 30l-294 546q55 35 101.5 82.5t79.5 102t51 114t18 120.5q0 96 -35 188.5t-99 164t-153.5 115t-197.5 43.5h-680q-22 0 -33 -14.5t-11 -31.5v-1430zM561 833v371 h227q41 0 74 -16.5t57.5 -43t38 -59.5t13.5 -67q0 -35 -13.5 -68.5t-37.5 -59t-57.5 -41.5t-74.5 -16h-227z" />
<glyph unicode="S" horiz-adv-x="1344" d="M94 283q3 -11 11 -21.5t18 -21.5q51 -53 114.5 -100t135.5 -82.5t150 -56t156 -20.5q126 0 233 35t185 99.5t122.5 156.5t44.5 204q0 107 -35.5 181.5t-100.5 128t-155 93t-199 76.5q-55 18 -99.5 34.5t-75 34t-46.5 38.5t-16 49q0 29 14 49t37 32t52 17t58 5 q76 0 134.5 -30t113.5 -80q14 -12 27 -20t26 -8q17 0 34 16l156 168q25 25 25 47t-21 47q-39 44 -96.5 80.5t-123 63t-136.5 41t-140 14.5q-124 0 -226 -30.5t-175 -85.5t-113.5 -132.5t-40.5 -172.5q0 -90 32.5 -163.5t95.5 -134.5t157.5 -111t216.5 -93q28 -10 64.5 -23.5 t69.5 -32t55 -43.5t22 -57q0 -29 -6.5 -55t-26 -45.5t-52.5 -31t-85 -11.5q-47 0 -92 16t-85.5 40t-76 52t-64.5 52q-12 11 -24 17t-24 6q-16 0 -31 -15l-177 -168q-13 -13 -16.5 -25t-0.5 -23z" />
<glyph unicode="T" horiz-adv-x="1364" d="M82 1216q0 -46 45 -46h362v-1125q0 -45 44 -45h296q46 0 46 45v1125h363q45 0 45 46v259q0 46 -45 46h-1111q-45 0 -45 -46v-259z" />
<glyph unicode="U" horiz-adv-x="1587" d="M160 612q0 -176 53 -297.5t142 -196.5t206 -108t246 -33t246.5 32.5t206.5 106.5t142 195.5t53 300.5v863q0 18 -13 32t-37 14h-299q-21 0 -34 -14t-13 -32v-868q0 -68 -20 -120t-54.5 -87t-80 -53t-97.5 -18q-49 0 -94 15t-80 48.5t-55.5 86.5t-20.5 128v868 q0 19 -8 32.5t-36 13.5h-312q-18 0 -29.5 -14t-11.5 -32v-863z" />
<glyph unicode="V" horiz-adv-x="1512" d="M19 1477l550 -1432q18 -45 61 -45h241q45 0 62 45l549 1430q5 13 5 22q0 24 -34 24h-331q-45 0 -61 -46l-311 -917l-315 917q-15 46 -61 46l-326 2q-34 0 -34 -24q0 -9 5 -22z" />
<glyph unicode="W" horiz-adv-x="2228" d="M27.5 1507.5q-7.5 -13.5 0.5 -32.5l547 -1430q18 -45 62 -45h255q46 0 62 45l144 394l154 -394q18 -45 63 -45h240q46 0 63 45l573 1430q7 18 0.5 32t-29.5 14h-335q-46 0 -62 -46l-328 -927l-146 423l184 504q6 17 -0.5 31.5t-28.5 14.5h-339q-48 0 -62 -46l-284 -922 l-313 922q-16 46 -61 46h-330q-22 0 -29.5 -13.5z" />
<glyph unicode="X" horiz-adv-x="1489" d="M26 12q8 -12 31 -12h345q22 0 34.5 8.5t30.5 36.5l273 406l271 -406q14 -21 28.5 -33t36.5 -12h349q22 0 30 12.5t-5 32.5l-490 733l468 697q12 17 4.5 31.5t-29.5 14.5h-350q-22 0 -36 -12t-29 -34l-247 -369l-246 369q-16 25 -29.5 35.5t-35.5 10.5h-354 q-22 0 -26.5 -14t8.5 -33l464 -696l-490 -733q-14 -21 -6 -33z" />
<glyph unicode="Y" horiz-adv-x="1444" d="M34 1509q-9 -12 2 -34l483 -855v-575q0 -45 45 -45h306q45 0 45 45v577l487 853q12 21 2.5 33.5t-31.5 12.5h-355q-22 0 -35.5 -11t-25.5 -35l-239 -513l-241 513q-12 23 -25.5 34.5t-35.5 11.5h-351q-22 0 -31 -12z" />
<glyph unicode="Z" horiz-adv-x="1466" d="M111 1207q0 -40 38 -40h2h707l-726 -858q-9 -9 -13.5 -18.5t-4.5 -27.5v-225q0 -39 41 -39h1204q39 0 39 39v272q0 39 -39 40h-712l734 876q3 4 7.5 11t5.5 17v227q0 40 -39 40h-2h-1202q-41 0 -40 -40v-274z" />
<glyph unicode="[" horiz-adv-x="857" d="M218 -309q0 -45 44 -45h462q14 0 23.5 8.5t9.5 23.5v277q0 15 -8 23.5t-23 8.5h-144v1356h142q14 0 23.5 8.5t9.5 23.5v277q0 15 -8 23.5t-23 8.5h-464q-45 0 -44 -46v-1947z" />
<glyph unicode="\" horiz-adv-x="1112" d="M39 1475l640 -1430q19 -45 66 -45h308q22 0 27.5 13t-3.5 32l-642 1430q-21 46 -65 46h-305q-45 0 -26 -46z" />
<glyph unicode="]" horiz-adv-x="857" d="M69 -45q0 15 8 23.5t23 8.5h144v1356h-142q-14 0 -23.5 8.5t-9.5 23.5v277q0 15 8 23.5t23 8.5h464q45 0 44 -46v-1947q0 -45 -44 -45h-462q-14 0 -23.5 8.5t-9.5 23.5v277z" />
<glyph unicode="^" horiz-adv-x="999" d="M103 1226q-2 -22 20 -43l112 -107q19 -19 41 -19q21 0 41 19l168 174l172 -172q20 -18 41 -18q23 0 41 18l109 105q21 21 19.5 43t-19.5 40l-317 322q-11 11 -18.5 15t-23.5 4q-15 0 -25.5 -5.5t-17.5 -13.5l-323 -322q-18 -18 -20 -40z" />
<glyph unicode="_" horiz-adv-x="1213" d="M93 -32v-213q0 -17 11 -24.5t20 -7.5h974q14 0 23.5 8.5t9.5 23.5v215q0 15 -8 23.5t-23 8.5h-974q-15 0 -24 -9.5t-9 -24.5z" />
<glyph unicode="`" horiz-adv-x="565" d="M79 1582l100 -223q14 -31 26.5 -38.5t36.5 -7.5h206q15 0 28.5 11t4.5 40l-78 227q-9 26 -22.5 36t-40.5 10h-232q-19 0 -28.5 -17.5t-0.5 -37.5z" />
<glyph unicode="a" horiz-adv-x="1582" d="M84 649q0 -150 54 -274t145 -212t210 -136t248 -48q103 0 193 40.5t160 113.5l14 -36q4 -12 10.5 -28.5t15.5 -32t21.5 -26t28.5 -10.5h234q46 0 45 46v1215q0 46 -45 46h-218q-22 0 -29.5 -11t-16.5 -35l-40 -113q-68 80 -161 126.5t-212 46.5q-139 0 -259 -53 t-208 -144t-139 -214t-51 -261zM453 651q0 73 25 132t67.5 101.5t98 66t115.5 23.5q66 0 123.5 -26t99.5 -70.5t66 -103t24 -123.5t-24 -124.5t-66 -103t-99 -70t-124 -26.5q-65 0 -121.5 25t-97 68t-64 102t-23.5 129z" />
<glyph unicode="b" horiz-adv-x="1556" d="M123 46q0 -22 12.5 -34t35.5 -12h248q16 0 28.5 10.5t21.5 26t15.5 32t10.5 28.5l11 29q64 -69 146.5 -108.5t180.5 -39.5q130 0 245.5 48.5t203 136.5t138 211.5t50.5 274.5q0 139 -46.5 260.5t-130 213t-201 144t-260.5 52.5q-99 0 -178 -33t-140 -91v447q0 45 -44 45 h-2h-297q-22 0 -35 -11t-13 -34v-1596zM484 653q0 51 20.5 107.5t60 104t96 78t128.5 30.5q73 0 131 -24.5t99 -68t63.5 -102t22.5 -125.5t-20 -127t-60 -103.5t-98.5 -69.5t-135.5 -26q-74 0 -130.5 31.5t-96 79.5t-60 106t-20.5 109z" />
<glyph unicode="c" horiz-adv-x="1264" d="M82 652q0 -147 53 -271t144 -213.5t213.5 -139.5t261.5 -51q58 0 117 12.5t115 34.5t104.5 50.5t83.5 59.5q18 16 19.5 30t-11.5 35l-146 215q-7 14 -27 14q-14 0 -28 -10q-19 -14 -44 -30t-55 -29t-63 -21.5t-69 -8.5q-62 0 -116.5 22.5t-94 65.5t-62.5 102t-23 132 t24 132.5t64.5 102.5t94 67t112.5 24q61 0 117.5 -17.5t123.5 -64.5q11 -7 25 -8q17 0 25 12l146 226q9 14 5 25.5t-17 21.5q-45 35 -90 63t-96 46.5t-110 29t-131 10.5q-138 0 -259 -53t-211 -143.5t-142.5 -212.5t-52.5 -260z" />
<glyph unicode="d" horiz-adv-x="1580" d="M82 649q0 -150 50.5 -274t137.5 -212t203 -136t245 -48q99 0 183 40.5t150 110.5l12 -33q4 -12 11 -28.5t16 -32t21 -26t28 -10.5h247q46 0 45 46v1596q0 45 -43 45h-2h-300q-46 0 -46 -45v-448q-63 59 -142.5 92t-179.5 33q-142 0 -259.5 -52.5t-201 -144t-129.5 -213.5 t-46 -260zM449 651q0 65 22 124t61 104t93 71t120 26t125 -25t103.5 -69t70 -103t25.5 -128q0 -68 -25.5 -127.5t-70 -103t-103.5 -68.5t-125 -25q-65 0 -119.5 25.5t-93.5 69t-61 102.5t-22 127z" />
<glyph unicode="e" horiz-adv-x="1449" d="M82 649q0 -139 55 -261t147.5 -213t214 -143.5t253.5 -52.5q60 0 119.5 7.5t120.5 27.5t124 56.5t127 92.5q18 15 18 31.5t-16 38.5l-131 181q-11 15 -29 15q-14 0 -28 -10q-23 -18 -46.5 -38t-57.5 -38t-82 -29.5t-121 -11.5q-51 0 -98 16t-85.5 45.5t-66 71t-42.5 93.5 h738q42 0 70.5 5t47 18t26.5 38.5t8 67.5q0 118 -28 213t-75 169t-109 126.5t-129 86.5t-136 50t-130 16q-146 0 -267.5 -52.5t-208.5 -144t-135 -213t-48 -259.5zM478 820q18 39 42.5 73.5t56.5 60t70.5 40.5t82.5 15q89 0 157 -49t108 -140h-517z" />
<glyph unicode="f" horiz-adv-x="886" d="M62 854q0 -20 11 -30t28 -10h142v-770q0 -44 45 -44h299q44 0 43 44v770h195q39 0 39 40v270q0 41 -39 41h-195v69q0 46 10 75.5t28 46t44 23t59 6.5q30 0 46 11t16 45v237q0 35 -12 47.5t-53 12.5q-125 0 -222.5 -36.5t-164.5 -98.5t-102.5 -143.5t-35.5 -173.5v-121 h-142q-16 0 -27.5 -10t-11.5 -31v-270z" />
<glyph unicode="g" horiz-adv-x="1573" d="M111 656q0 -143 51.5 -261.5t138.5 -203t202.5 -131.5t241.5 -47q98 0 183 40t154 109v-28q0 -65 -27.5 -116t-72 -87t-101 -54.5t-114.5 -18.5q-99 0 -167.5 23.5t-119.5 67.5q-20 17 -41 17q-23 0 -42 -27l-118 -172q-12 -18 -16 -32t16 -34q50 -49 111 -84t128 -57.5 t136.5 -33t138.5 -10.5q126 0 244 41.5t210.5 127t148 217t55.5 310.5v1046q0 28 -13.5 38t-35.5 10h-195q-28 0 -36.5 -14t-20.5 -46l-34 -95q-69 79 -162 126t-209 47q-126 0 -241.5 -53.5t-202.5 -144.5t-138.5 -212t-51.5 -258zM485 650q0 67 20.5 126t59 104t93.5 71 t124 26t128 -25.5t101.5 -70t67 -103.5t24.5 -126q0 -68 -25 -127t-68 -102t-100 -67.5t-121 -24.5q-69 0 -125.5 24.5t-96 67.5t-61 101t-21.5 126z" />
<glyph unicode="h" horiz-adv-x="1437" d="M123 48q0 -48 48 -48h296q23 0 35.5 13.5t12.5 34.5v657q0 63 16.5 110t45 79t67.5 48t83 16q45 0 83.5 -18t66.5 -53.5t43 -86.5t15 -116v-636q0 -48 48 -48h297q23 0 35.5 13.5t12.5 34.5v596q0 143 -20.5 267t-74.5 215t-149.5 143.5t-246.5 52.5q-92 0 -173 -44 t-149 -107v467q0 21 -13 34.5t-35 13.5h-296q-21 0 -34.5 -11.5t-13.5 -36.5v-1590z" />
<glyph unicode="i" horiz-adv-x="636" d="M121 1538q0 -44 23 -58.5t61 -14.5h234q37 0 57 15t20 59v194q0 39 -17.5 62.5t-59.5 23.5h-234q-48 0 -66 -24.5t-18 -61.5v-195zM122 45q0 -45 44 -45h304q45 0 45 45v1217q0 20 -12.5 32.5t-32.5 12.5h-304q-16 0 -30 -11.5t-14 -33.5v-1217z" />
<glyph unicode="j" horiz-adv-x="643" d="M-65 -170v-211q0 -19 21.5 -32t53.5 -13q116 0 210 32.5t160 91.5t101.5 140.5t35.5 179.5v1241q0 48 -47 48h-297q-48 0 -48 -48v-1208q0 -42 -6 -73t-21 -51.5t-40.5 -30.5t-64.5 -10q-21 0 -33 -6t-17.5 -14t-6.5 -18t-1 -18zM119 1538q0 -44 23.5 -58.5t61.5 -14.5 h234q37 0 57 15t20 59v194q0 39 -17.5 62.5t-59.5 23.5h-234q-48 0 -66.5 -24.5t-18.5 -61.5v-195z" />
<glyph unicode="k" horiz-adv-x="1446" d="M123 44q0 -44 43 -44h303q44 0 44 44v356l120 124l343 -479q17 -25 30.5 -35t35.5 -10h339q15 0 26 6.5t16 17.5t3.5 25t-13.5 29l-537 699l433 456q10 10 11.5 22t-4.5 24t-19 20t-32 8h-303q-25 0 -42 -5t-38 -28l-369 -414v784q0 43 -42 43h-2h-303q-44 0 -43 -43 v-1600z" />
<glyph unicode="l" horiz-adv-x="634" d="M123 48q0 -25 13 -36.5t37 -11.5h290q23 0 36 13.5t13 34.5v1590q0 21 -14 34.5t-35 13.5h-290q-21 0 -35.5 -11.5t-14.5 -36.5v-1590z" />
<glyph unicode="m" horiz-adv-x="2181" d="M123 48q0 -48 48 -48h295q23 0 36.5 11.5t12.5 36.5v685q0 51 14 92.5t39.5 71t61.5 45.5t78 16q43 0 79 -16t62.5 -46t41 -71.5t14.5 -91.5v-686q0 -47 46 -47h291q47 0 47 47l-2 685q0 51 15 92t41.5 71t63 46t80.5 16t78.5 -16.5t58.5 -46t36.5 -71t12.5 -91.5v-685 q0 -47 46 -47h290q48 0 48 47v682q0 122 -29.5 229.5t-89 188.5t-149 128t-210.5 47q-113 0 -215 -51t-180 -147q-34 58 -78.5 96.5t-92 60.5t-96 31.5t-91.5 9.5q-110 0 -202.5 -43t-163.5 -144l-29 115q-6 23 -27.5 41t-46.5 18h-186q-48 0 -48 -48v-1213z" />
<glyph unicode="n" horiz-adv-x="1478" d="M123 48q0 -48 49 -48h274q12 0 24 5t22.5 13t17 18.5t6.5 22.5v661q0 50 17 93.5t48 75.5t74.5 50t95.5 18t93 -18t70 -50t44.5 -75.5t15.5 -93.5v-673q0 -47 49 -47h287q47 0 47 47v714q0 109 -24 193t-64 146.5t-91.5 104.5t-105 68t-107 37.5t-96.5 11.5 q-55 0 -110.5 -11t-108 -34t-100 -59t-86.5 -87l-29 117q-6 23 -27.5 41t-45.5 18h-190q-49 0 -49 -48v-1211z" />
<glyph unicode="o" horiz-adv-x="1507" d="M82 650q0 -139 53 -261.5t144.5 -213.5t214.5 -143.5t262 -52.5q140 0 262.5 52.5t214.5 144t145 213.5t53 261t-52.5 260t-144.5 212.5t-215 144t-263 52.5t-262.5 -52t-214 -143t-144.5 -212.5t-53 -261.5zM458 650q0 66 21.5 124.5t61 103t94.5 70.5t122 26t121.5 -26 t93.5 -71t60.5 -103.5t21.5 -123.5t-21.5 -124t-61 -103.5t-94 -71.5t-121.5 -27t-122 26.5t-94 71t-60.5 104t-21.5 124.5z" />
<glyph unicode="p" horiz-adv-x="1562" d="M123 -353q0 -23 12.5 -34.5t35.5 -11.5h297q46 0 46 46v471q61 -58 146 -96t184 -38q143 0 258 53t197 144t126.5 213t44.5 261q0 150 -48 273.5t-132.5 210.5t-197 134.5t-242.5 47.5q-124 0 -218.5 -51.5t-162.5 -134.5l-22 87q-3 12 -7 27t-10.5 28t-16.5 21.5 t-26 8.5h-216q-22 0 -35 -12t-13 -34v-1614zM484 651q0 61 23 119t63.5 103.5t97 74t123.5 28.5q77 0 135.5 -25.5t98.5 -69.5t60 -103.5t20 -126.5t-22.5 -125.5t-63.5 -101.5t-99 -68t-131 -25t-129 27t-95.5 72t-60 102.5t-20.5 118.5z" />
<glyph unicode="q" horiz-adv-x="1562" d="M82 655q0 -139 44.5 -261t126.5 -213t197.5 -144t257.5 -53q99 0 184 38.5t146 95.5v-471q0 -46 46 -46h297q22 0 35 11t13 35v1614q0 22 -12.5 34t-35.5 12h-216q-16 0 -26 -8.5t-16.5 -21.5t-10.5 -28t-7 -27l-22 -87q-67 83 -162 134.5t-219 51.5q-129 0 -242 -47.5 t-197.5 -134.5t-132.5 -210.5t-48 -273.5zM447 651q0 67 20 126.5t60 103.5t98.5 69.5t135.5 25.5q67 0 123.5 -28.5t97 -74t63.5 -103.5t23 -119t-20.5 -118.5t-60 -102.5t-96 -72t-128.5 -27q-73 0 -131 25t-99 68t-63.5 101t-22.5 126z" />
<glyph unicode="r" horiz-adv-x="1177" d="M123 46q0 -46 46 -46h300q47 0 47 46v704q0 57 18.5 100t49.5 71.5t73 43t89 14.5q41 0 73.5 -10.5t59 -26t46 -32.5t33.5 -29q17 -15 33 -15q18 0 32 20l133 189q15 21 15 40t-26 42q-13 12 -48 38.5t-83.5 54.5t-108 48.5t-123.5 20.5q-62 0 -107.5 -14.5t-81 -40 t-66 -58t-62.5 -67.5l-45 114q-16 38 -34.5 46t-42.5 8h-174q-46 0 -46 -47v-1214z" />
<glyph unicode="s" horiz-adv-x="1186" d="M78 235.5q2 -11.5 9 -22.5t14 -21q51 -65 110 -107t122 -67t128 -35t130 -10q96 0 185.5 28.5t159.5 82.5t112 132t42 180q0 59 -12.5 118.5t-48 115t-99.5 103.5t-166 81q-75 25 -126 39t-82.5 26.5t-45 27t-13.5 38.5q0 25 29.5 44t90.5 19q33 0 59 -7t47.5 -18t40 -26 t36.5 -30q20 -17 34 -17t33 16l157 136q26 22 24 40.5t-23 37.5q-31 29 -67.5 61.5t-86 60.5t-114 46t-150.5 18q-116 0 -207.5 -28t-154 -76.5t-95 -115.5t-32.5 -146q0 -87 22.5 -156t69 -122.5t118 -93t169.5 -67.5q63 -18 102 -32t61.5 -27.5t30.5 -29t8 -37.5 q0 -19 -6.5 -36t-22.5 -29t-42.5 -19t-67.5 -7q-35 0 -69 9.5t-66 25.5t-61 37.5t-55 43.5q-22 19 -39 19q-15 0 -28 -12l-144 -141q-14 -14 -18 -26.5t-2 -24z" />
<glyph unicode="t" horiz-adv-x="878" d="M16 985q0 -42 42 -42h143v-898q0 -45 44 -45h306q46 0 46 45v898h172q41 0 41 42v276q0 15 -10.5 27.5t-30.5 12.5h-172v300q0 32 -15.5 48t-38.5 16q-13 0 -25 -4l-267 -89q-31 -11 -40.5 -24.5t-9.5 -36.5v-210h-143q-20 0 -31 -11t-11 -29v-276z" />
<glyph unicode="u" horiz-adv-x="1478" d="M123 540q0 -115 24 -201.5t63 -149t89.5 -103t104.5 -64.5t106.5 -33.5t95.5 -9.5q55 0 110.5 10t108.5 32.5t101.5 59.5t88.5 92l30 -114q6 -23 27.5 -41t46.5 -18h190q48 0 48 48v1211q0 48 -48 48h-297q-23 0 -36.5 -12t-12.5 -36v-689q0 -68 -25 -112t-60 -69.5 t-73 -35.5t-64 -10q-54 0 -97 18.5t-73.5 49.5t-47 71.5t-16.5 84.5v693q0 47 -47 47h-290q-47 0 -47 -47v-720z" />
<glyph unicode="v" horiz-adv-x="1306" d="M26.5 1286.5q-12.5 -20.5 2.5 -58.5l498 -1183q18 -45 62 -45h156q43 0 61 45l504 1192q15 34 9.5 52t-34.5 18h-311q-21 0 -37 -11t-24 -34l-239 -713l-249 710q-17 48 -61 48h-294q-31 0 -43.5 -20.5z" />
<glyph unicode="w" horiz-adv-x="1972" d="M31 1286.5q-13 -20.5 2 -58.5l477 -1183q18 -45 62 -45h155q45 0 62 45l193 486l193 -486q18 -45 62 -45h156q43 0 62 45l482 1192q15 34 9.5 52t-33.5 18h-291q-21 0 -37 -11t-23 -34l-250 -713l-167 390l116 298q15 34 9.5 52t-34.5 18h-290q-21 0 -37 -11t-24 -34 l-228 -713l-228 710q-17 48 -61 48h-293q-31 0 -44 -20.5z" />
<glyph unicode="x" horiz-adv-x="1395" d="M54.5 32q3.5 -14 15.5 -23t36 -9h340q22 0 38.5 12.5t28.5 32.5l179 327l181 -327q12 -20 28 -32.5t39 -12.5h340q23 0 35.5 9t15.5 23t-1.5 31t-15.5 32l-402 563l409 589q17 25 9.5 42.5t-37.5 17.5h-328q-29 0 -41.5 -13.5t-24.5 -31.5l-207 -337l-206 337 q-12 18 -24.5 31.5t-41.5 13.5h-327q-30 0 -37.5 -18t9.5 -42l408 -589l-402 -563q-11 -15 -15.5 -32t-1 -31z" />
<glyph unicode="y" horiz-adv-x="1451" d="M28 1264q-1 -15 7 -36l492 -1224l-168 -427q-9 -24 -9 -41q0 -18 11 -29q21 -20 60 -20h254q46 0 63 43l675 1707q4 12 6.5 24t-1.5 22.5t-14.5 17t-30.5 6.5h-306q-47 0 -61 -45l-287 -834l-292 831q-9 22 -24.5 35t-36.5 13h-286q-13 0 -24.5 -4.5t-19 -14t-8.5 -24.5z " />
<glyph unicode="z" horiz-adv-x="1228" d="M80 37q0 -38 37 -38h992q18 0 28 12t10 26v256q0 12 -10 25t-28 13h-553l554 654q15 18 20.5 27t5.5 31v223q0 18 -9.5 29.5t-27.5 11.5h-950q-18 0 -27.5 -13.5t-9.5 -27.5v-256q0 -12 9.5 -24.5t27.5 -12.5h537l-593 -694q-6 -7 -9.5 -16t-3.5 -27v-199z" />
<glyph unicode="{" horiz-adv-x="907" d="M78 512q0 -16 10 -23.5t19 -8.5h7q65 0 94 -8.5t29 -33.5v-392q0 -127 38 -223.5t107 -162t167 -99.5t220 -34q15 0 23 9t8 23v334q0 15 -9.5 23.5t-23.5 8.5q-9 0 -33 2.5t-49.5 13.5t-45 35.5t-19.5 69.5v495q0 34 -15 64.5t-41 56.5q26 27 41 57.5t15 65.5v495 q0 45 19.5 69.5t45 35.5t49.5 13.5t33 2.5q14 0 23.5 8.5t9.5 23.5v333q0 19 -10 25.5t-27 6.5q-18 0 -64 -3t-105 -18t-121.5 -47t-115 -89.5t-86.5 -145.5t-34 -215v-393q0 -25 -29 -33t-94 -8h-5q-9 0 -20 -7.5t-11 -24.5v-302z" />
<glyph unicode="|" horiz-adv-x="628" d="M166 -352q0 -45 45 -45h201q45 0 45 45v1827q0 46 -45 46h-201q-45 0 -45 -46v-1827z" />
<glyph unicode="}" horiz-adv-x="899" d="M82 -107q0 15 9.5 23.5t23.5 8.5q9 0 33 2.5t49.5 13.5t45 35.5t19.5 69.5v495q0 34 15 64.5t41 56.5q-26 27 -41 57.5t-15 65.5v495q0 45 -19.5 69.5t-45 35.5t-49.5 13.5t-33 2.5q-14 0 -23.5 8.5t-9.5 23.5v333q0 19 10 25.5t27 6.5q18 0 64 -3t105 -18t121.5 -47 t115 -89.5t86.5 -145.5t34 -215v-393q0 -25 29 -33t94 -8h5q9 0 20 -7.5t11 -24.5v-302q0 -16 -10 -23.5t-19 -8.5h-7q-65 0 -94 -8.5t-29 -33.5v-392q0 -127 -38 -223.5t-107 -162t-167 -99.5t-220 -34q-15 0 -23 9t-8 23v334z" />
<glyph unicode="~" horiz-adv-x="1349" d="M133 641.5q-1 -10.5 7.5 -21.5t29.5 -30l88 -85q12 -12 31 -28.5t38 -16.5q16 0 28 15q12 14 23.5 30.5t25.5 30t32.5 23.5t44.5 10q35 0 73.5 -22t82.5 -47.5t92.5 -47.5t103.5 -22q103 0 189.5 54t148.5 147q6 9 8 25t-16 34l-126 127q-22 25 -48 25q-28 0 -52 -32 q-28 -34 -49 -53t-58 -19q-28 0 -67 21.5t-84.5 47t-97 47.5t-103.5 23q-91 0 -171.5 -46.5t-136.5 -129.5q-16 -22 -26 -35.5t-11 -24z" />
<glyph unicode="&#xa1;" horiz-adv-x="625" d="M138 -336v1059q0 45 45 45h275q45 0 44 -45v-1059q0 -45 -44 -45h-275q-46 0 -45 45zM138 989v268q0 15 5.5 24t13.5 13.5t15.5 6.5t12.5 2h268q5 0 13.5 -1.5t16.5 -6.5t13.5 -14.5t5.5 -23.5v-271q0 -4 -2 -13t-7.5 -16.5t-15 -13t-24.5 -5.5h-268q-16 0 -31.5 11.5 t-15.5 39.5z" />
<glyph unicode="&#xa2;" horiz-adv-x="1253" d="M82 652q0 -118 34 -221.5t95.5 -186t146 -142.5t184.5 -92v-195q0 -15 9.5 -24t24.5 -9h330q17 0 24.5 11.5t7.5 19.5v193q70 22 131.5 56.5t104.5 71.5q18 16 20.5 30t-12.5 35l-146 215q-5 7 -12 10t-16 3q-16 0 -27 -9q-19 -14 -44 -30t-55 -29t-63 -21.5t-69 -8.5 q-62 0 -116.5 22.5t-94 65.5t-62.5 102t-23 132t24 132.5t64.5 102.5t94 67t112.5 24q61 0 116.5 -19t124.5 -63q11 -9 24 -9q7 0 14.5 3.5t11.5 9.5l146 226q9 14 5 25.5t-17 21.5q-58 43 -113.5 75t-122.5 50v189q0 14 -8.5 23.5t-23.5 9.5h-332q-15 0 -23.5 -8t-8.5 -23 v-199q-100 -33 -184.5 -95t-146 -145.5t-95.5 -184t-34 -212.5z" />
<glyph unicode="&#xa3;" horiz-adv-x="1148" d="M138 45q0 -45 43 -45h882q45 0 45 45v273q0 45 -45 45h-531v228h291q14 0 24 8.5t10 23.5v220q0 15 -8 23.5t-23 8.5h-294v150q0 28 10.5 58t31 54.5t51 40t72.5 15.5q41 0 79.5 -8t73.5 -28q12 -7 26 -13t29 -6q13 0 26 7t25 25l123 186q9 13 6 25t-12.5 22.5t-20.5 19 t-17 13.5q-51 31 -94.5 51t-87 32t-90.5 16.5t-105 4.5q-118 0 -214 -36t-164.5 -103.5t-105 -163t-36.5 -212.5v-980z" />
<glyph unicode="&#xa4;" horiz-adv-x="1104" d="M93 259.5q1 -13.5 12 -22.5l187 -177q10 -10 23 -10q7 0 13 2.5t9 6.5l99 96q61 -21 127 -22q32 0 63 5.5t61 15.5l99 -95q9 -9 23 -9q13 0 22 10l188 177q11 10 11 23t-10 24l-101 99q21 61 22 125q0 34 -6 66t-17 62l100 105q10 10 11 23t-10 23l-190 178 q-11 11 -23 11t-22 -11l-100 -102q-29 10 -59.5 15t-61.5 5q-33 0 -64 -5t-60 -15l-100 102q-11 11 -22 11q-12 0 -23 -11l-189 -178q-12 -11 -10.5 -23.5t11.5 -22.5l101 -107q-21 -61 -21 -126q0 -66 20 -123l-103 -101q-11 -11 -10 -24.5zM444 516q0 49 31 82t81 33 q25 0 45 -9t34.5 -25t23 -36.5t8.5 -44.5q0 -23 -8.5 -44t-23.5 -37t-35.5 -25t-44.5 -9q-49 0 -80 33.5t-31 81.5z" />
<glyph unicode="&#xa5;" horiz-adv-x="1431" d="M32.5 1509q-9.5 -12 2.5 -34l391 -686h-125q-12 0 -23.5 -10t-11.5 -29v-129q0 -18 11.5 -26.5t23.5 -8.5h222v-88h-222q-12 0 -23.5 -10t-11.5 -29v-129q0 -18 11.5 -27t23.5 -9h222v-249q0 -45 44 -45h307q45 0 44 45v249h230q17 0 28 8.5t11 27.5v132q0 36 -35 36 h-234v88h230q17 0 28 8.5t11 26.5v132q0 36 -35 36h-139l392 686q12 21 2.5 33.5t-31.5 12.5h-355q-22 0 -35.5 -11t-25.5 -35l-240 -503l-240 503q-12 23 -25 34.5t-36 11.5h-355q-22 0 -31.5 -12z" />
<glyph unicode="&#xa6;" horiz-adv-x="612" d="M167 -350q0 -45 45 -45h201q45 0 45 45v761q0 46 -45 46h-201q-45 0 -45 -46v-761zM167 715q0 -45 45 -45h201q45 0 45 45v760q0 46 -45 46h-201q-45 0 -45 -46v-760z" />
<glyph unicode="&#xa7;" horiz-adv-x="1113" d="M121.5 212.5q-4.5 -10.5 8.5 -32.5q42 -69 96.5 -114.5t111.5 -71.5t113 -36t102 -10q79 0 148 19.5t125 56t95 87.5t56 114q25 90 -1.5 167t-95.5 133q109 83 109 226q0 58 -20.5 103.5t-62.5 84t-107.5 70.5t-156.5 61q-49 16 -92.5 27t-76 24t-52 30t-19.5 44 q0 34 17 60t44 43t59.5 25.5t62.5 8.5q26 0 57 -5.5t64 -20t66 -39t63 -61.5q19 -25 38 -24q7 0 11 3l115 80q16 11 19 21.5t-16 39.5q-34 52 -74.5 94t-90 71.5t-110.5 45t-138 15.5q-78 0 -148 -19t-126 -55.5t-95 -87.5t-56 -114q-23 -87 1.5 -167t92.5 -134 q-55 -43 -80 -97.5t-25 -126.5q0 -61 23 -109t72 -87.5t123.5 -72t176.5 -61.5q42 -12 77 -23t60.5 -24t40.5 -29t15 -39q0 -33 -17 -58.5t-44 -43t-59.5 -26t-63.5 -8.5q-41 0 -77.5 12t-68 31.5t-56 42.5t-40.5 46q-9 13 -17.5 17.5t-15.5 4.5q-9 0 -14.5 -3t-10.5 -6 l-125 -87q-6 -5 -10.5 -15.5zM402 755q0 28 14.5 46.5t36.5 30.5t49 16.5t53 4.5q25 0 56 -5t59 -18t47 -33t19 -49q0 -30 -16 -49.5t-39.5 -30.5t-50.5 -15t-48 -4q-63 0 -99 13t-54 30.5t-22.5 35.5t-4.5 27z" />
<glyph unicode="&#xa8;" horiz-adv-x="962" d="M111 1381q0 -31 17 -42t44 -11h170q27 0 41.5 11t14.5 43v172q0 28 -12.5 45t-43.5 17h-170q-34 0 -47.5 -18t-13.5 -44v-173zM557 1381q0 -31 17 -42t44 -11h170q27 0 41.5 11t14.5 43v172q0 28 -12.5 45t-43.5 17h-170q-34 0 -47.5 -18t-13.5 -44v-173z" />
<glyph unicode="&#xa9;" horiz-adv-x="1982" d="M86 764q0 -124 32 -239t91 -215t140.5 -182t180.5 -140t213.5 -90t236.5 -32q125 0 239.5 32t214.5 90.5t181.5 140t139.5 181t90 213t32 235.5q0 125 -32 240t-90.5 214.5t-140 181t-181 139.5t-213 90t-235.5 32q-125 0 -240 -32t-214.5 -90t-181.5 -139.5 t-140.5 -180.5t-90.5 -212.5t-32 -236.5zM346 748q0 118 48 233.5t134 205.5t206.5 146t264.5 56q116 0 228 -44.5t199.5 -125.5t141 -194.5t53.5 -252.5q0 -121 -48.5 -237t-135 -207t-204.5 -147t-257 -56q-125 0 -238.5 47.5t-201 131t-139 198t-51.5 246.5zM503 755 q0 -103 38.5 -192.5t105.5 -156.5t156 -105.5t191 -38.5q79 0 155.5 21.5t140.5 64.5q19 13 23.5 27.5t-8.5 37.5l-92 152q-12 20 -27 21q-10 0 -22 -7q-45 -25 -79 -28.5t-65 -3.5q-42 0 -81 13t-68 38.5t-47 64t-18 89.5q0 41 14.5 77.5t41.5 65.5t65 46t86 17 q45 0 79 -5.5t75 -26.5q15 -7 23 -8q9 0 14 7t12 20l93 165q12 21 2.5 34t-29.5 26q-63 41 -135.5 60t-149.5 19q-101 0 -191 -38.5t-157.5 -105t-106.5 -156.5t-39 -194z" />
<glyph unicode="&#xaa;" horiz-adv-x="1046" d="M105 1151q0 -80 29.5 -149.5t81 -120.5t120.5 -81t149 -30q58 0 95 14t59.5 31t34 33.5t15.5 20.5v-52q0 -2 0.5 -7.5t2.5 -11t8 -10t16 -4.5h170q18 0 22 11t4 18v678q0 20 -11 25t-22 5h-129q-16 0 -22.5 -7.5t-9.5 -22.5l-15 -70q-22 28 -44.5 48.5t-49.5 34t-59.5 21 t-75.5 7.5q-75 1 -142 -29t-118 -81.5t-80 -121t-29 -149.5zM335 1152q0 32 11 58.5t31 47t46.5 31.5t58.5 11q31 0 58 -11.5t47 -31.5t31.5 -47t11.5 -58t-11 -58t-31.5 -47t-47.5 -31.5t-58 -11.5q-32 0 -58.5 11.5t-46.5 31.5t-31 47t-11 58z" />
<glyph unicode="&#xab;" horiz-adv-x="1502" d="M23 627.5q3 -14.5 15 -26.5l548 -533q5 -5 13 -9.5t18 -4.5q13 0 23 11l156 153q12 12 14 30.5t-12 32.5l-369 349l367 366q14 14 11.5 32.5t-13.5 30.5l-156 153q-11 11 -24 10q-10 0 -17.5 -4t-12.5 -9l-546 -549q-18 -18 -15 -32.5zM702 627.5q3 -14.5 15 -26.5 l526 -528q5 -5 13 -9.5t18 -4.5q13 0 23 10l156 153q12 12 14 30.5t-12 32.5l-348 345l360 358q14 14 11.5 32.5t-13.5 30.5l-156 152q-11 11 -24 11q-10 0 -17.5 -4.5t-13.5 -9.5l-537 -540q-18 -18 -15 -32.5z" />
<glyph unicode="&#xac;" horiz-adv-x="1190" d="M98 753l1 -159q0 -18 13 -26.5t31 -8.5h691v-287q0 -19 16.5 -32t39.5 -13l161 1q18 0 27.5 13.5t9.5 30.5v494q0 45 -46 45h-899q-16 0 -24.5 -6t-13.5 -14.5t-6 -18.5t-1 -19z" />
<glyph unicode="&#xad;" horiz-adv-x="1126" d="M182 578q0 -27 18 -39.5t35 -12.5h658q26 0 43 12.5t17 39.5v156q0 54 -54 54h-664q-18 0 -35.5 -15t-17.5 -43v-152z" />
<glyph unicode="&#xae;" horiz-adv-x="1974" d="M94 767q0 -124 32 -238t90 -213t139.5 -180.5t181 -139.5t213.5 -90t237 -32q124 0 238 32t213.5 90t180.5 139.5t139.5 180.5t90.5 213t32 238t-32 238t-90.5 213t-139.5 180t-180.5 139.5t-214 90.5t-237.5 32t-237 -32t-213.5 -90.5t-181 -139.5t-139.5 -180t-90 -213 t-32 -238zM370 757q0 130 45 243.5t124 197t188 132t238 48.5q130 0 244.5 -42.5t199.5 -123t135 -196t50 -259.5q0 -129 -50 -242.5t-135 -198.5t-199.5 -133.5t-244.5 -48.5q-129 0 -238 48.5t-188 133.5t-124 198.5t-45 242.5zM657 363q0 -26 25 -26h205q26 0 26 26v261 h62l138 -262q7 -15 13 -20t17 -5h211q12 0 15.5 8.5t-2.5 17.5l-158 295q36 19 66.5 47t52.5 60.5t34.5 69t12.5 75.5q0 54 -20 106.5t-56 93.5t-86.5 65.5t-112.5 24.5h-418q-13 0 -19 -8t-6 -18v-811zM913 841v164h123q18 0 32.5 -7.5t25 -19.5t16.5 -26.5t6 -29.5 q0 -31 -22.5 -56t-57.5 -25h-123z" />
<glyph unicode="&#xaf;" horiz-adv-x="1037" d="M80 1401q0 -17 11 -24.5t20 -7.5h800q14 0 23.5 8.5t9.5 23.5v171q0 15 -8 23.5t-23 8.5h-800q-15 0 -24 -9.5t-9 -24.5v-169z" />
<glyph unicode="&#xb0;" horiz-adv-x="665" d="M113 1248q0 -45 17 -85t47 -70t70 -47t85 -17q46 0 86 17t69.5 47t46.5 70t17 85q0 46 -17 86.5t-46.5 70.5t-69.5 47t-86 17q-45 0 -85 -17t-70 -47t-47 -70.5t-17 -86.5zM242 1248q0 37 25.5 63.5t63.5 26.5t63.5 -26.5t25.5 -63.5t-25.5 -63.5t-63.5 -26.5 q-37 0 -63 26.5t-26 63.5z" />
<glyph unicode="&#xb1;" horiz-adv-x="965" d="M79 631q0 -17 11 -24.5t20 -7.5h204v-213q0 -15 9.5 -24t24.5 -9h253q17 0 24.5 11t7.5 20v215h203q14 0 23.5 9t9.5 23v234q0 15 -8 23.5t-23 8.5h-205v213q0 14 -9 23.5t-23 9.5h-255q-15 0 -23.5 -8t-8.5 -22v-216h-202q-15 0 -24 -9.5t-9 -24.5v-232zM90 44 q0 -22 11.5 -33t32.5 -11h682q23 0 34 15.5t11 32.5v176q0 21 -13.5 33t-31.5 12h-682q-4 0 -12 -1t-15 -6.5t-12 -15.5t-5 -28v-174z" />
</font>
</defs>
</svg>
